M48
; DRILL file KiCad 10.0.0 date 2026-04-18T14:04:41
; FORMAT={-:-/ absolute / metric / decimal}
; #@! TF.CreationDate,2026-04-18T14:04:41-04:00
; #@! TF.GenerationSoftware,Kicad,Pcbnew,10.0.0
; #@! TF.FileFunction,Plated,1,2,PTH
FMAT,2
METRIC
; #@! TA.AperFunction,Plated,PTH,ViaDrill
T1C0.300
; #@! TA.AperFunction,Plated,PTH,ComponentDrill
T2C0.750
; #@! TA.AperFunction,Plated,PTH,ComponentDrill
T3C1.000
; #@! TA.AperFunction,Plated,PTH,ComponentDrill
T4C1.200
%
G90
G05
T1
X114.29Y-107.954
X119.63Y-119.873
X122.965Y-119.873
X123.671Y-94.327
X128.278Y-123.15
X129.113Y-117.107
X129.931Y-93.382
X132.552Y-92.923
X142.162Y-98.632
X149.062Y-89.751
X149.188Y-114.855
X154.382Y-108.79
X154.471Y-94.513
X155.501Y-89.52
X156.923Y-120.903
X157.734Y-125.905
X161.792Y-100.943
T2
X160.0Y-125.325
X162.0Y-125.325
T3
X111.0Y-122.92
X111.0Y-125.46
X111.0Y-128.0
X111.0Y-130.54
X111.5Y-109.69
X111.5Y-112.23
X111.5Y-114.77
X111.5Y-117.31
X116.5Y-109.38
X116.5Y-111.92
X116.5Y-114.46
X116.5Y-117.0
X116.5Y-122.88
X116.5Y-125.42
X116.5Y-127.96
X116.5Y-130.5
X122.0Y-81.46
X122.0Y-84.0
X122.0Y-86.54
X122.0Y-89.08
X122.0Y-91.62
X122.0Y-94.16
X122.0Y-96.7
X122.0Y-99.24
X122.0Y-101.78
X122.0Y-104.32
X122.0Y-109.38
X122.0Y-111.92
X122.0Y-114.46
X122.0Y-117.0
X126.95Y-93.94
X126.95Y-96.48
X126.95Y-99.02
X126.95Y-101.56
X126.95Y-104.1
X126.95Y-106.64
X126.95Y-109.18
X126.95Y-111.72
X126.95Y-114.26
X126.95Y-116.8
X126.95Y-119.34
X126.95Y-121.88
X126.95Y-124.42
X126.95Y-126.96
X126.95Y-129.5
X133.38Y-94.5
X135.92Y-94.5
X138.46Y-94.5
X141.0Y-94.5
X143.54Y-94.5
X146.08Y-94.5
X152.2Y-93.94
X152.2Y-96.48
X152.2Y-99.02
X152.2Y-101.56
X152.2Y-104.1
X152.2Y-106.64
X152.2Y-109.18
X152.2Y-111.72
X152.2Y-114.26
X152.2Y-116.8
X152.2Y-119.34
X152.2Y-121.88
X152.2Y-124.42
X152.2Y-126.96
X152.2Y-129.5
X158.0Y-78.15
X158.0Y-80.69
X158.0Y-83.23
X158.0Y-85.77
X158.0Y-88.31
X158.0Y-90.85
X158.0Y-95.96
X158.0Y-98.5
X158.0Y-101.04
X158.0Y-103.58
X164.0Y-70.64
X164.0Y-73.18
X164.0Y-75.72
X164.0Y-78.26
X164.0Y-80.8
X164.0Y-83.34
X164.0Y-85.88
X164.0Y-88.42
X164.0Y-90.96
X164.0Y-93.5
X164.0Y-96.04
X164.0Y-98.58
X164.0Y-101.12
X164.0Y-103.66
T4
X163.5Y-109.5
X163.5Y-114.5
X163.5Y-119.5
M30
