%TF.GenerationSoftware,KiCad,Pcbnew,10.0.0*%
%TF.CreationDate,2026-04-18T14:04:29-04:00*%
%TF.ProjectId,kicad_sailframes-e1,6b696361-645f-4736-9169-6c6672616d65,rev?*%
%TF.SameCoordinates,Original*%
%TF.FileFunction,Copper,L1,Top*%
%TF.FilePolarity,Positive*%
%FSLAX46Y46*%
G04 Gerber Fmt 4.6, Leading zero omitted, Abs format (unit mm)*
G04 Created by KiCad (PCBNEW 10.0.0) date 2026-04-18 14:04:29*
%MOMM*%
%LPD*%
G01*
G04 APERTURE LIST*
G04 Aperture macros list*
%AMRoundRect*
0 Rectangle with rounded corners*
0 $1 Rounding radius*
0 $2 $3 $4 $5 $6 $7 $8 $9 X,Y pos of 4 corners*
0 Add a 4 corners polygon primitive as box body*
4,1,4,$2,$3,$4,$5,$6,$7,$8,$9,$2,$3,0*
0 Add four circle primitives for the rounded corners*
1,1,$1+$1,$2,$3*
1,1,$1+$1,$4,$5*
1,1,$1+$1,$6,$7*
1,1,$1+$1,$8,$9*
0 Add four rect primitives between the rounded corners*
20,1,$1+$1,$2,$3,$4,$5,0*
20,1,$1+$1,$4,$5,$6,$7,0*
20,1,$1+$1,$6,$7,$8,$9,0*
20,1,$1+$1,$8,$9,$2,$3,0*%
G04 Aperture macros list end*
%TA.AperFunction,SMDPad,CuDef*%
%ADD10RoundRect,0.250000X-0.450000X0.262500X-0.450000X-0.262500X0.450000X-0.262500X0.450000X0.262500X0*%
%TD*%
%TA.AperFunction,ComponentPad*%
%ADD11C,1.700000*%
%TD*%
%TA.AperFunction,ComponentPad*%
%ADD12O,2.000000X2.200000*%
%TD*%
%TA.AperFunction,ComponentPad*%
%ADD13RoundRect,0.250000X-0.350000X-0.625000X0.350000X-0.625000X0.350000X0.625000X-0.350000X0.625000X0*%
%TD*%
%TA.AperFunction,ComponentPad*%
%ADD14O,1.200000X1.750000*%
%TD*%
%TA.AperFunction,ComponentPad*%
%ADD15R,1.700000X1.700000*%
%TD*%
%TA.AperFunction,SMDPad,CuDef*%
%ADD16RoundRect,0.250000X0.450000X-0.262500X0.450000X0.262500X-0.450000X0.262500X-0.450000X-0.262500X0*%
%TD*%
%TA.AperFunction,ViaPad*%
%ADD17C,0.600000*%
%TD*%
%TA.AperFunction,Conductor*%
%ADD18C,0.300000*%
%TD*%
G04 APERTURE END LIST*
D10*
%TO.P,R1,1*%
%TO.N,/VBAT*%
X157500000Y-116175000D03*
%TO.P,R1,2*%
%TO.N,/VBAT_DIV*%
X157500000Y-118000000D03*
%TD*%
D11*
%TO.P,U1,1,EN_1*%
%TO.N,unconnected-(U1-EN-Pad1)*%
X152200000Y-129500000D03*
%TO.P,U1,2,VP_2*%
%TO.N,/VP*%
X152200000Y-126960000D03*
%TO.P,U1,3,VN_3*%
%TO.N,/VN*%
X152200000Y-124420000D03*
%TO.P,U1,4,D34_4*%
%TO.N,/VBAT_DIV*%
X152200000Y-121880000D03*
%TO.P,U1,5,D35_5*%
%TO.N,/HSPI_MISO*%
X152200000Y-119340000D03*
%TO.P,U1,6,D32_6*%
%TO.N,/WIND_TX*%
X152200000Y-116800000D03*
%TO.P,U1,7,D33_7*%
%TO.N,/WIND_RX*%
X152200000Y-114260000D03*
%TO.P,U1,8,D25_8*%
%TO.N,/VSPI_MISO*%
X152200000Y-111720000D03*
%TO.P,U1,9,D26_9*%
%TO.N,/D26*%
X152200000Y-109180000D03*
%TO.P,U1,10,D27_10*%
%TO.N,/HSPI_CS*%
X152200000Y-106640000D03*
%TO.P,U1,11,D14_11*%
%TO.N,/HSPI_CLK*%
X152200000Y-104100000D03*
%TO.P,U1,12,D12_12*%
%TO.N,unconnected-(U1-D12-Pad12)*%
X152200000Y-101560000D03*
%TO.P,U1,13,D13_13*%
%TO.N,/HSPI_MOSI*%
X152200000Y-99020000D03*
%TO.P,U1,14,GND_14*%
%TO.N,/GND*%
X152200000Y-96480000D03*
%TO.P,U1,15,VIN_15*%
%TO.N,/5V_IN*%
X152200000Y-93940000D03*
%TO.P,U1,16,3V3_16*%
%TO.N,/3V3*%
X126950000Y-93940000D03*
%TO.P,U1,17,GND_17*%
%TO.N,/GND*%
X126950000Y-96480000D03*
%TO.P,U1,18,D15_18*%
%TO.N,/D15*%
X126950000Y-99020000D03*
%TO.P,U1,19,D2_19*%
%TO.N,/TFT_DC*%
X126950000Y-101560000D03*
%TO.P,U1,20,D4_20*%
%TO.N,/TFT_RST*%
X126950000Y-104100000D03*
%TO.P,U1,21,RX2_21*%
%TO.N,/GPS_TX3*%
X126950000Y-106640000D03*
%TO.P,U1,22,TX2_22*%
%TO.N,/GPS_RX3*%
X126950000Y-109180000D03*
%TO.P,U1,23,D5_23*%
%TO.N,/TFT_CS*%
X126950000Y-111720000D03*
%TO.P,U1,24,D18_24*%
%TO.N,/VSPI_CLK*%
X126950000Y-114260000D03*
%TO.P,U1,25,D19_25*%
%TO.N,/TFT_BL*%
X126950000Y-116800000D03*
%TO.P,U1,26,D21_26*%
%TO.N,/I2C_SDA*%
X126950000Y-119340000D03*
%TO.P,U1,27,RX0_27*%
%TO.N,unconnected-(U1-RX0-Pad27)*%
X126950000Y-121880000D03*
%TO.P,U1,28,TX0_28*%
%TO.N,unconnected-(U1-TX0-Pad28)*%
X126950000Y-124420000D03*
%TO.P,U1,29,D22_29*%
%TO.N,/I2C_SCL*%
X126950000Y-126960000D03*
%TO.P,U1,30,D23_30*%
%TO.N,/VSPI_MOSI*%
X126950000Y-129500000D03*
%TD*%
D12*
%TO.P,SW1,1,A_1*%
%TO.N,/5V_IN*%
X163500000Y-109500000D03*
%TO.P,SW1,2,B_2*%
%TO.N,/SW_5V_IN*%
X163500000Y-114500000D03*
%TO.P,SW1,3,C_3*%
%TO.N,unconnected-(SW1-C-Pad3)*%
X163500000Y-119500000D03*
%TD*%
D13*
%TO.P,J10,1,Pin_1_1*%
%TO.N,/GND*%
X160000000Y-125325000D03*
D14*
%TO.P,J10,2,Pin_2_2*%
%TO.N,/VBAT*%
X162000000Y-125325000D03*
%TD*%
D15*
%TO.P,J7,1,Pin_1_1*%
%TO.N,/GND*%
X116500000Y-109380000D03*
D11*
%TO.P,J7,2,Pin_2_2*%
%TO.N,/3V3*%
X116500000Y-111920000D03*
%TO.P,J7,3,Pin_3_3*%
%TO.N,/I2C_SCL*%
X116500000Y-114460000D03*
%TO.P,J7,4,Pin_4_4*%
%TO.N,/I2C_SDA*%
X116500000Y-117000000D03*
%TD*%
D10*
%TO.P,R4,1*%
%TO.N,/3V3*%
X122412500Y-121762500D03*
%TO.P,R4,2*%
%TO.N,/I2C_SCL*%
X122412500Y-123587500D03*
%TD*%
D15*
%TO.P,J8,1,Pin_1_1*%
%TO.N,/3V3*%
X122000000Y-109380000D03*
D11*
%TO.P,J8,2,Pin_2_2*%
%TO.N,/GND*%
X122000000Y-111920000D03*
%TO.P,J8,3,Pin_3_3*%
%TO.N,/WIND_TX*%
X122000000Y-114460000D03*
%TO.P,J8,4,Pin_4_4*%
%TO.N,/WIND_RX*%
X122000000Y-117000000D03*
%TD*%
D15*
%TO.P,J4,1,Pin_1_1*%
%TO.N,/GND*%
X116500000Y-122880000D03*
D11*
%TO.P,J4,2,Pin_2_2*%
%TO.N,/3V3*%
X116500000Y-125420000D03*
%TO.P,J4,3,Pin_3_3*%
%TO.N,/I2C_SCL*%
X116500000Y-127960000D03*
%TO.P,J4,4,Pin_4_4*%
%TO.N,/I2C_SDA*%
X116500000Y-130500000D03*
%TD*%
D10*
%TO.P,R3,1*%
%TO.N,/3V3*%
X122500000Y-126175000D03*
%TO.P,R3,2*%
%TO.N,/I2C_SDA*%
X122500000Y-128000000D03*
%TD*%
D15*
%TO.P,J6,1,Pin_1_1*%
%TO.N,/GND*%
X111500000Y-109690000D03*
D11*
%TO.P,J6,2,Pin_2_2*%
%TO.N,/3V3*%
X111500000Y-112230000D03*
%TO.P,J6,3,Pin_3_3*%
%TO.N,/I2C_SCL*%
X111500000Y-114770000D03*
%TO.P,J6,4,Pin_4_4*%
%TO.N,/I2C_SDA*%
X111500000Y-117310000D03*
%TD*%
D15*
%TO.P,J3,1,Pin_1_1*%
%TO.N,/3V3*%
X122000000Y-81460000D03*
D11*
%TO.P,J3,2,Pin_2_2*%
%TO.N,/GND*%
X122000000Y-84000000D03*
%TO.P,J3,3,Pin_3_3*%
%TO.N,/I2C_SCL*%
X122000000Y-86540000D03*
%TO.P,J3,4,Pin_4_4*%
%TO.N,/I2C_SDA*%
X122000000Y-89080000D03*
%TO.P,J3,5,Pin_5_5*%
%TO.N,unconnected-(J3-Pin_5-Pad5)*%
X122000000Y-91620000D03*
%TO.P,J3,6,Pin_6_6*%
%TO.N,unconnected-(J3-Pin_6-Pad6)*%
X122000000Y-94160000D03*
%TO.P,J3,7,Pin_7_7*%
%TO.N,unconnected-(J3-Pin_7-Pad7)*%
X122000000Y-96700000D03*
%TO.P,J3,8,Pin_8_8*%
%TO.N,unconnected-(J3-Pin_8-Pad8)*%
X122000000Y-99240000D03*
%TO.P,J3,9,Pin_9_9*%
%TO.N,unconnected-(J3-Pin_9-Pad9)*%
X122000000Y-101780000D03*
%TO.P,J3,10,Pin_10_10*%
%TO.N,unconnected-(J3-Pin_10-Pad10)*%
X122000000Y-104320000D03*
%TD*%
D15*
%TO.P,J9,1,Pin_1_1*%
%TO.N,/3V3*%
X158000000Y-78150000D03*
D11*
%TO.P,J9,2,Pin_2_2*%
%TO.N,/GND*%
X158000000Y-80690000D03*
%TO.P,J9,3,Pin_3_3*%
%TO.N,/D26*%
X158000000Y-83230000D03*
%TO.P,J9,4,Pin_4_4*%
%TO.N,/D15*%
X158000000Y-85770000D03*
%TO.P,J9,5,Pin_5_5*%
%TO.N,/VP*%
X158000000Y-88310000D03*
%TO.P,J9,6,Pin_6_6*%
%TO.N,/VN*%
X158000000Y-90850000D03*
%TD*%
D16*
%TO.P,R2,1*%
%TO.N,/VBAT_DIV*%
X157500000Y-112825000D03*
%TO.P,R2,2*%
%TO.N,/GND*%
X157500000Y-111000000D03*
%TD*%
D15*
%TO.P,J5,1,Pin_1_1*%
%TO.N,/GND*%
X158000000Y-95960000D03*
D11*
%TO.P,J5,2,Pin_2_2*%
%TO.N,/SW_5V_IN*%
X158000000Y-98500000D03*
%TO.P,J5,3,Pin_3_3*%
%TO.N,/VBAT*%
X158000000Y-101040000D03*
%TO.P,J5,4,Pin_4_4*%
%TO.N,/GND*%
X158000000Y-103580000D03*
%TD*%
D15*
%TO.P,J1,1,Pin_1_1*%
%TO.N,/3V3*%
X133380000Y-94500000D03*
D11*
%TO.P,J1,2,Pin_2_2*%
%TO.N,/HSPI_CS*%
X135920000Y-94500000D03*
%TO.P,J1,3,Pin_3_3*%
%TO.N,/HSPI_MOSI*%
X138460000Y-94500000D03*
%TO.P,J1,4,Pin_4_4*%
%TO.N,/HSPI_CLK*%
X141000000Y-94500000D03*
%TO.P,J1,5,Pin_5_5*%
%TO.N,/HSPI_MISO*%
X143540000Y-94500000D03*
%TO.P,J1,6,Pin_6_6*%
%TO.N,/GND*%
X146080000Y-94500000D03*
%TD*%
D15*
%TO.P,J2,1,Pin_1_1*%
%TO.N,/GPS_RX3*%
X111000000Y-122920000D03*
D11*
%TO.P,J2,2,Pin_2_2*%
%TO.N,/GPS_TX3*%
X111000000Y-125460000D03*
%TO.P,J2,3,Pin_3_3*%
%TO.N,/3V3*%
X111000000Y-128000000D03*
%TO.P,J2,4,Pin_4_4*%
%TO.N,/GND*%
X111000000Y-130540000D03*
%TD*%
D15*
%TO.P,U2,1,SD_CS_1*%
%TO.N,unconnected-(U2-SD_CS-Pad1)*%
X164000000Y-70640000D03*
D11*
%TO.P,U2,2,CTP_INT_2*%
%TO.N,unconnected-(U2-CTP_INT-Pad2)*%
X164000000Y-73180000D03*
%TO.P,U2,3,CTP_SDA_3*%
%TO.N,unconnected-(U2-CTP_SDA-Pad3)*%
X164000000Y-75720000D03*
%TO.P,U2,4,CTP_RST_4*%
%TO.N,unconnected-(U2-CTP_RST-Pad4)*%
X164000000Y-78260000D03*
%TO.P,U2,5,CTP_SCL_5*%
%TO.N,unconnected-(U2-CTP_SCL-Pad5)*%
X164000000Y-80800000D03*
%TO.P,U2,6,SDO_MISO_6*%
%TO.N,/VSPI_MISO*%
X164000000Y-83340000D03*
%TO.P,U2,7,LED_7*%
%TO.N,/TFT_BL*%
X164000000Y-85880000D03*
%TO.P,U2,8,SCK_8*%
%TO.N,/VSPI_CLK*%
X164000000Y-88420000D03*
%TO.P,U2,9,SDI_MOSI_9*%
%TO.N,/VSPI_MOSI*%
X164000000Y-90960000D03*
%TO.P,U2,10,LCD_RS_10*%
%TO.N,/TFT_DC*%
X164000000Y-93500000D03*
%TO.P,U2,11,LCD_RST_11*%
%TO.N,/TFT_RST*%
X164000000Y-96040000D03*
%TO.P,U2,12,LCD_CS_12*%
%TO.N,/TFT_CS*%
X164000000Y-98580000D03*
%TO.P,U2,13,GND_13*%
%TO.N,/GND*%
X164000000Y-101120000D03*
%TO.P,U2,14,VCC_14*%
%TO.N,/3V3*%
X164000000Y-103660000D03*
%TD*%
D17*
%TO.N,/VBAT_DIV*%
X156923200Y-120903400D03*
%TO.N,/VN*%
X155501500Y-89520500D03*
%TO.N,/WIND_TX*%
X128277500Y-123150000D03*
%TO.N,/WIND_RX*%
X129113300Y-117107400D03*
%TO.N,/VSPI_MISO*%
X161792300Y-100943400D03*
%TO.N,/HSPI_CLK*%
X142162200Y-98631700D03*
%TO.N,/5V_IN*%
X154471300Y-94513500D03*
X154381700Y-108789700D03*
%TO.N,/3V3*%
X123671500Y-94326600D03*
%TO.N,/GPS_TX3*%
X114290500Y-107953900D03*
%TO.N,/TFT_CS*%
X132551800Y-92922600D03*
%TO.N,/VSPI_CLK*%
X129931100Y-93382400D03*
%TO.N,/TFT_BL*%
X149062300Y-89751300D03*
X149188200Y-114855100D03*
%TO.N,/I2C_SDA*%
X122964700Y-119873300D03*
X119630200Y-119873300D03*
%TO.N,/VSPI_MOSI*%
X157733800Y-125905400D03*
%TD*%
%TO.N,/VBAT*%
D18*
X156635200Y-109738300D02*
X156635200Y-102404800D01*
X158947300Y-126261400D02*
X159343900Y-126658000D01*
X157500000Y-116175000D02*
X157325000Y-116000000D01*
X157325000Y-116000000D02*
X155675000Y-116000000D01*
X158947300Y-125981200D02*
X158947300Y-126261400D01*
X156635200Y-102404800D02*
X158000000Y-101040000D01*
X155675000Y-116000000D02*
X155600000Y-115925000D01*
X155600000Y-110773500D02*
X156635200Y-109738300D01*
X155675000Y-116000000D02*
X155600000Y-116075000D01*
X155600000Y-115925000D02*
X155600000Y-110773500D01*
X155600000Y-116075000D02*
X155600000Y-122633900D01*
X159343900Y-126658000D02*
X160667000Y-126658000D01*
X160667000Y-126658000D02*
X162000000Y-125325000D01*
X155600000Y-122633900D02*
X158947300Y-125981200D01*
%TO.N,/VBAT_DIV*%
X157500000Y-118000000D02*
X157500000Y-120326600D01*
X157500000Y-120326600D02*
X156923200Y-120903400D01*
X157675000Y-113000000D02*
X159000000Y-113000000D01*
X159000000Y-113000000D02*
X159000000Y-118000000D01*
X157500000Y-112825000D02*
X157675000Y-113000000D01*
X159000000Y-118000000D02*
X157500000Y-118000000D01*
%TO.N,/VP*%
X155000000Y-110522600D02*
X156033400Y-109489200D01*
X155000000Y-124160000D02*
X155000000Y-110522600D01*
X156033400Y-109489200D02*
X156033400Y-90276600D01*
X152200000Y-126960000D02*
X155000000Y-124160000D01*
X156033400Y-90276600D02*
X158000000Y-88310000D01*
%TO.N,/VN*%
X155272700Y-109098800D02*
X154378200Y-109993300D01*
X155272700Y-89749300D02*
X155272700Y-109098800D01*
X155501500Y-89520500D02*
X155272700Y-89749300D01*
X154378200Y-122241800D02*
X152200000Y-124420000D01*
X154378200Y-109993300D02*
X154378200Y-122241800D01*
%TO.N,/HSPI_MISO*%
X143540000Y-110680000D02*
X152200000Y-119340000D01*
X143540000Y-94500000D02*
X143540000Y-110680000D01*
%TO.N,/WIND_TX*%
X126403200Y-130834100D02*
X125620200Y-130051100D01*
X125620200Y-130051100D02*
X125620200Y-118080200D01*
X125620200Y-118080200D02*
X122000000Y-114460000D01*
X128277500Y-130041600D02*
X127485000Y-130834100D01*
X127485000Y-130834100D02*
X126403200Y-130834100D01*
X128277500Y-123150000D02*
X128277500Y-130041600D01*
%TO.N,/WIND_RX*%
X129113300Y-130056700D02*
X127734200Y-131435800D01*
X129113300Y-117107400D02*
X129113300Y-130056700D01*
X127734200Y-131435800D02*
X126154000Y-131435800D01*
X126154000Y-131435800D02*
X124930800Y-130212600D01*
X124930800Y-119930800D02*
X122000000Y-117000000D01*
X124930800Y-130212600D02*
X124930800Y-119930800D01*
%TO.N,/VSPI_MISO*%
X161792300Y-100943400D02*
X161792300Y-85547700D01*
X161792300Y-85547700D02*
X164000000Y-83340000D01*
%TO.N,/D26*%
X153670000Y-107710000D02*
X152200000Y-109180000D01*
X153670000Y-87560000D02*
X153670000Y-107710000D01*
X158000000Y-83230000D02*
X153670000Y-87560000D01*
%TO.N,/HSPI_CLK*%
X141000000Y-94500000D02*
X141000000Y-97469500D01*
X141000000Y-97469500D02*
X142162200Y-98631700D01*
%TO.N,/GND*%
X125520000Y-96480000D02*
X126950000Y-96480000D01*
X116500000Y-109380000D02*
X114581700Y-111298300D01*
X122000000Y-84000000D02*
X125520000Y-87520000D01*
X158000000Y-95960000D02*
X158000000Y-94658300D01*
X111000000Y-130540000D02*
X114890700Y-126649300D01*
X160000000Y-111000000D02*
X157500000Y-111000000D01*
X157500000Y-104080000D02*
X157500000Y-111000000D01*
X115500000Y-122880000D02*
X116500000Y-122880000D01*
X158000000Y-94658300D02*
X159346100Y-93312200D01*
X114581700Y-111298300D02*
X114581700Y-121961700D01*
X114581700Y-121961700D02*
X115500000Y-122880000D01*
X114890700Y-126649300D02*
X114890700Y-123489300D01*
X125520000Y-96480000D02*
X125520000Y-108400000D01*
X125520000Y-108400000D02*
X122000000Y-111920000D01*
X159346100Y-93312200D02*
X159346100Y-82036100D01*
X114890700Y-123489300D02*
X115500000Y-122880000D01*
X125520000Y-87520000D02*
X125520000Y-96480000D01*
X159346100Y-82036100D02*
X158000000Y-80690000D01*
X158000000Y-103580000D02*
X157500000Y-104080000D01*
X160000000Y-125325000D02*
X160000000Y-111000000D01*
%TO.N,/5V_IN*%
X154471300Y-108700100D02*
X154381700Y-108789700D01*
X154471300Y-94513500D02*
X154471300Y-108700100D01*
%TO.N,/3V3*%
X111000000Y-128000000D02*
X109690800Y-126690800D01*
X133380000Y-92641600D02*
X132709900Y-91971500D01*
X132709900Y-91971500D02*
X126950000Y-91971500D01*
X109690800Y-114039200D02*
X111500000Y-112230000D01*
X133380000Y-94500000D02*
X133380000Y-92641600D01*
X123671500Y-94326600D02*
X123671500Y-106406800D01*
X122000000Y-81460000D02*
X126950000Y-86410000D01*
X120698300Y-120048300D02*
X122412500Y-121762500D01*
X126950000Y-86410000D02*
X126950000Y-91971500D01*
X161040600Y-101254700D02*
X163445900Y-103660000D01*
X122412500Y-121762500D02*
X123262500Y-121762500D01*
X163445900Y-103660000D02*
X164000000Y-103660000D01*
X109690800Y-126690800D02*
X109690800Y-114039200D01*
X123730800Y-124944200D02*
X122500000Y-126175000D01*
X122000000Y-109380000D02*
X122000000Y-108078300D01*
X161040600Y-81190600D02*
X161040600Y-101254700D01*
X126950000Y-91971500D02*
X126950000Y-93940000D01*
X120698300Y-110681700D02*
X120698300Y-120048300D01*
X123730800Y-122230800D02*
X123730800Y-124944200D01*
X123671500Y-106406800D02*
X122000000Y-108078300D01*
X158000000Y-78150000D02*
X161040600Y-81190600D01*
X123262500Y-121762500D02*
X123730800Y-122230800D01*
X122000000Y-109380000D02*
X120698300Y-110681700D01*
%TO.N,/GPS_TX3*%
X114290500Y-107953900D02*
X113688800Y-108555600D01*
X113688800Y-108555600D02*
X113688800Y-122771200D01*
X113688800Y-122771200D02*
X111000000Y-125460000D01*
%TO.N,/TFT_CS*%
X132236700Y-92607500D02*
X129643000Y-92607500D01*
X128251700Y-93998800D02*
X128251700Y-110418300D01*
X128251700Y-110418300D02*
X126950000Y-111720000D01*
X132551800Y-92922600D02*
X132236700Y-92607500D01*
X129643000Y-92607500D02*
X128251700Y-93998800D01*
%TO.N,/VSPI_CLK*%
X126950000Y-114260000D02*
X129931100Y-111278900D01*
X129931100Y-111278900D02*
X129931100Y-93382400D01*
%TO.N,/TFT_BL*%
X149188200Y-114855100D02*
X149188200Y-89877200D01*
X149188200Y-89877200D02*
X149062300Y-89751300D01*
%TO.N,/I2C_SDA*%
X119630200Y-91449800D02*
X119630200Y-117000000D01*
X116500000Y-130500000D02*
X119000000Y-128000000D01*
X122000000Y-89080000D02*
X119630200Y-91449800D01*
X122500000Y-128000000D02*
X124330800Y-128000000D01*
X119000000Y-128000000D02*
X122500000Y-128000000D01*
X124330800Y-128000000D02*
X124330800Y-121339600D01*
X124330800Y-121339600D02*
X122964700Y-119973500D01*
X119630200Y-117000000D02*
X119630200Y-119873300D01*
X122964700Y-119973500D02*
X122964700Y-119873300D01*
X119630200Y-117000000D02*
X116500000Y-117000000D01*
%TO.N,/I2C_SCL*%
X115191300Y-117906300D02*
X115191300Y-115768700D01*
X115191300Y-115768700D02*
X116500000Y-114460000D01*
X122000000Y-86540000D02*
X118535000Y-90005000D01*
X120872500Y-123587500D02*
X115191300Y-117906300D01*
X118535000Y-112425000D02*
X116500000Y-114460000D01*
X120872500Y-123587500D02*
X116500000Y-127960000D01*
X118535000Y-90005000D02*
X118535000Y-112425000D01*
X122412500Y-123587500D02*
X120872500Y-123587500D01*
%TO.N,/VSPI_MOSI*%
X161886000Y-127259700D02*
X165323800Y-123821900D01*
X165323800Y-92283800D02*
X164000000Y-90960000D01*
X159088100Y-127259700D02*
X161886000Y-127259700D01*
X157733800Y-125905400D02*
X159088100Y-127259700D01*
X165323800Y-123821900D02*
X165323800Y-92283800D01*
%TO.N,/SW_5V_IN*%
X158000000Y-98500000D02*
X158000000Y-99065000D01*
X162048300Y-103113300D02*
X162048300Y-114500000D01*
X163500000Y-114500000D02*
X162048300Y-114500000D01*
X158000000Y-99065000D02*
X162048300Y-103113300D01*
%TD*%
M02*
