%TF.GenerationSoftware,KiCad,Pcbnew,10.0.0*%
%TF.CreationDate,2026-04-12T14:35:19-04:00*%
%TF.ProjectId,kicad_sailframes-e1,6b696361-645f-4736-9169-6c6672616d65,rev?*%
%TF.SameCoordinates,Original*%
%TF.FileFunction,Legend,Top*%
%TF.FilePolarity,Positive*%
%FSLAX46Y46*%
G04 Gerber Fmt 4.6, Leading zero omitted, Abs format (unit mm)*
G04 Created by KiCad (PCBNEW 10.0.0) date 2026-04-12 14:35:19*
%MOMM*%
%LPD*%
G01*
G04 APERTURE LIST*
%ADD10C,0.100000*%
%ADD11C,0.125000*%
%ADD12C,0.150000*%
%ADD13C,0.200000*%
%ADD14C,0.120000*%
G04 APERTURE END LIST*
D10*
X113219651Y-79500000D02*
X123780349Y-79500000D01*
X123780349Y-106000000D01*
X113219651Y-106000000D01*
X113219651Y-79500000D01*
X135803884Y-60872419D02*
X135803884Y-59872419D01*
X135803884Y-59872419D02*
X136184836Y-59872419D01*
X136184836Y-59872419D02*
X136280074Y-59920038D01*
X136280074Y-59920038D02*
X136327693Y-59967657D01*
X136327693Y-59967657D02*
X136375312Y-60062895D01*
X136375312Y-60062895D02*
X136375312Y-60205752D01*
X136375312Y-60205752D02*
X136327693Y-60300990D01*
X136327693Y-60300990D02*
X136280074Y-60348609D01*
X136280074Y-60348609D02*
X136184836Y-60396228D01*
X136184836Y-60396228D02*
X135803884Y-60396228D01*
X137232455Y-60872419D02*
X137232455Y-60348609D01*
X137232455Y-60348609D02*
X137184836Y-60253371D01*
X137184836Y-60253371D02*
X137089598Y-60205752D01*
X137089598Y-60205752D02*
X136899122Y-60205752D01*
X136899122Y-60205752D02*
X136803884Y-60253371D01*
X137232455Y-60824800D02*
X137137217Y-60872419D01*
X137137217Y-60872419D02*
X136899122Y-60872419D01*
X136899122Y-60872419D02*
X136803884Y-60824800D01*
X136803884Y-60824800D02*
X136756265Y-60729561D01*
X136756265Y-60729561D02*
X136756265Y-60634323D01*
X136756265Y-60634323D02*
X136803884Y-60539085D01*
X136803884Y-60539085D02*
X136899122Y-60491466D01*
X136899122Y-60491466D02*
X137137217Y-60491466D01*
X137137217Y-60491466D02*
X137232455Y-60443847D01*
X138137217Y-60205752D02*
X138137217Y-60872419D01*
X137708646Y-60205752D02*
X137708646Y-60729561D01*
X137708646Y-60729561D02*
X137756265Y-60824800D01*
X137756265Y-60824800D02*
X137851503Y-60872419D01*
X137851503Y-60872419D02*
X137994360Y-60872419D01*
X137994360Y-60872419D02*
X138089598Y-60824800D01*
X138089598Y-60824800D02*
X138137217Y-60777180D01*
X138756265Y-60872419D02*
X138661027Y-60824800D01*
X138661027Y-60824800D02*
X138613408Y-60729561D01*
X138613408Y-60729561D02*
X138613408Y-59872419D01*
X139851504Y-60586704D02*
X140327694Y-60586704D01*
X139756266Y-60872419D02*
X140089599Y-59872419D01*
X140089599Y-59872419D02*
X140422932Y-60872419D01*
X140661028Y-60205752D02*
X140899123Y-60872419D01*
X140899123Y-60872419D02*
X141137218Y-60205752D01*
X141518171Y-60872419D02*
X141518171Y-60205752D01*
X141518171Y-59872419D02*
X141470552Y-59920038D01*
X141470552Y-59920038D02*
X141518171Y-59967657D01*
X141518171Y-59967657D02*
X141565790Y-59920038D01*
X141565790Y-59920038D02*
X141518171Y-59872419D01*
X141518171Y-59872419D02*
X141518171Y-59967657D01*
X142137218Y-60872419D02*
X142041980Y-60824800D01*
X142041980Y-60824800D02*
X141994361Y-60729561D01*
X141994361Y-60729561D02*
X141994361Y-59872419D01*
X142661028Y-60872419D02*
X142565790Y-60824800D01*
X142565790Y-60824800D02*
X142518171Y-60729561D01*
X142518171Y-60729561D02*
X142518171Y-59872419D01*
X143470552Y-60872419D02*
X143470552Y-60348609D01*
X143470552Y-60348609D02*
X143422933Y-60253371D01*
X143422933Y-60253371D02*
X143327695Y-60205752D01*
X143327695Y-60205752D02*
X143137219Y-60205752D01*
X143137219Y-60205752D02*
X143041981Y-60253371D01*
X143470552Y-60824800D02*
X143375314Y-60872419D01*
X143375314Y-60872419D02*
X143137219Y-60872419D01*
X143137219Y-60872419D02*
X143041981Y-60824800D01*
X143041981Y-60824800D02*
X142994362Y-60729561D01*
X142994362Y-60729561D02*
X142994362Y-60634323D01*
X142994362Y-60634323D02*
X143041981Y-60539085D01*
X143041981Y-60539085D02*
X143137219Y-60491466D01*
X143137219Y-60491466D02*
X143375314Y-60491466D01*
X143375314Y-60491466D02*
X143470552Y-60443847D01*
X144375314Y-60824800D02*
X144280076Y-60872419D01*
X144280076Y-60872419D02*
X144089600Y-60872419D01*
X144089600Y-60872419D02*
X143994362Y-60824800D01*
X143994362Y-60824800D02*
X143946743Y-60777180D01*
X143946743Y-60777180D02*
X143899124Y-60681942D01*
X143899124Y-60681942D02*
X143899124Y-60396228D01*
X143899124Y-60396228D02*
X143946743Y-60300990D01*
X143946743Y-60300990D02*
X143994362Y-60253371D01*
X143994362Y-60253371D02*
X144089600Y-60205752D01*
X144089600Y-60205752D02*
X144280076Y-60205752D01*
X144280076Y-60205752D02*
X144375314Y-60253371D01*
X144803886Y-60872419D02*
X144803886Y-59872419D01*
X145232457Y-60872419D02*
X145232457Y-60348609D01*
X145232457Y-60348609D02*
X145184838Y-60253371D01*
X145184838Y-60253371D02*
X145089600Y-60205752D01*
X145089600Y-60205752D02*
X144946743Y-60205752D01*
X144946743Y-60205752D02*
X144851505Y-60253371D01*
X144851505Y-60253371D02*
X144803886Y-60300990D01*
X135803884Y-62348609D02*
X136137217Y-62348609D01*
X136280074Y-62872419D02*
X135803884Y-62872419D01*
X135803884Y-62872419D02*
X135803884Y-61872419D01*
X135803884Y-61872419D02*
X136280074Y-61872419D01*
X137232455Y-62872419D02*
X136661027Y-62872419D01*
X136946741Y-62872419D02*
X136946741Y-61872419D01*
X136946741Y-61872419D02*
X136851503Y-62015276D01*
X136851503Y-62015276D02*
X136756265Y-62110514D01*
X136756265Y-62110514D02*
X136661027Y-62158133D01*
X139089599Y-62205752D02*
X139327694Y-62872419D01*
X139327694Y-62872419D02*
X139565789Y-62205752D01*
X140470551Y-62872419D02*
X139899123Y-62872419D01*
X140184837Y-62872419D02*
X140184837Y-61872419D01*
X140184837Y-61872419D02*
X140089599Y-62015276D01*
X140089599Y-62015276D02*
X139994361Y-62110514D01*
X139994361Y-62110514D02*
X139899123Y-62158133D01*
X140899123Y-62777180D02*
X140946742Y-62824800D01*
X140946742Y-62824800D02*
X140899123Y-62872419D01*
X140899123Y-62872419D02*
X140851504Y-62824800D01*
X140851504Y-62824800D02*
X140899123Y-62777180D01*
X140899123Y-62777180D02*
X140899123Y-62872419D01*
X141565789Y-61872419D02*
X141661027Y-61872419D01*
X141661027Y-61872419D02*
X141756265Y-61920038D01*
X141756265Y-61920038D02*
X141803884Y-61967657D01*
X141803884Y-61967657D02*
X141851503Y-62062895D01*
X141851503Y-62062895D02*
X141899122Y-62253371D01*
X141899122Y-62253371D02*
X141899122Y-62491466D01*
X141899122Y-62491466D02*
X141851503Y-62681942D01*
X141851503Y-62681942D02*
X141803884Y-62777180D01*
X141803884Y-62777180D02*
X141756265Y-62824800D01*
X141756265Y-62824800D02*
X141661027Y-62872419D01*
X141661027Y-62872419D02*
X141565789Y-62872419D01*
X141565789Y-62872419D02*
X141470551Y-62824800D01*
X141470551Y-62824800D02*
X141422932Y-62777180D01*
X141422932Y-62777180D02*
X141375313Y-62681942D01*
X141375313Y-62681942D02*
X141327694Y-62491466D01*
X141327694Y-62491466D02*
X141327694Y-62253371D01*
X141327694Y-62253371D02*
X141375313Y-62062895D01*
X141375313Y-62062895D02*
X141422932Y-61967657D01*
X141422932Y-61967657D02*
X141470551Y-61920038D01*
X141470551Y-61920038D02*
X141565789Y-61872419D01*
D11*
X116347309Y-95346335D02*
X116394928Y-95203478D01*
X116394928Y-95203478D02*
X116442547Y-95155859D01*
X116442547Y-95155859D02*
X116537785Y-95108240D01*
X116537785Y-95108240D02*
X116680642Y-95108240D01*
X116680642Y-95108240D02*
X116775880Y-95155859D01*
X116775880Y-95155859D02*
X116823500Y-95203478D01*
X116823500Y-95203478D02*
X116871119Y-95298716D01*
X116871119Y-95298716D02*
X116871119Y-95679668D01*
X116871119Y-95679668D02*
X115871119Y-95679668D01*
X115871119Y-95679668D02*
X115871119Y-95346335D01*
X115871119Y-95346335D02*
X115918738Y-95251097D01*
X115918738Y-95251097D02*
X115966357Y-95203478D01*
X115966357Y-95203478D02*
X116061595Y-95155859D01*
X116061595Y-95155859D02*
X116156833Y-95155859D01*
X116156833Y-95155859D02*
X116252071Y-95203478D01*
X116252071Y-95203478D02*
X116299690Y-95251097D01*
X116299690Y-95251097D02*
X116347309Y-95346335D01*
X116347309Y-95346335D02*
X116347309Y-95679668D01*
X116871119Y-94679668D02*
X115871119Y-94679668D01*
X115871119Y-94679668D02*
X116871119Y-94108240D01*
X116871119Y-94108240D02*
X115871119Y-94108240D01*
X115871119Y-93441573D02*
X115871119Y-93251097D01*
X115871119Y-93251097D02*
X115918738Y-93155859D01*
X115918738Y-93155859D02*
X116013976Y-93060621D01*
X116013976Y-93060621D02*
X116204452Y-93013002D01*
X116204452Y-93013002D02*
X116537785Y-93013002D01*
X116537785Y-93013002D02*
X116728261Y-93060621D01*
X116728261Y-93060621D02*
X116823500Y-93155859D01*
X116823500Y-93155859D02*
X116871119Y-93251097D01*
X116871119Y-93251097D02*
X116871119Y-93441573D01*
X116871119Y-93441573D02*
X116823500Y-93536811D01*
X116823500Y-93536811D02*
X116728261Y-93632049D01*
X116728261Y-93632049D02*
X116537785Y-93679668D01*
X116537785Y-93679668D02*
X116204452Y-93679668D01*
X116204452Y-93679668D02*
X116013976Y-93632049D01*
X116013976Y-93632049D02*
X115918738Y-93536811D01*
X115918738Y-93536811D02*
X115871119Y-93441573D01*
X115871119Y-92393954D02*
X115871119Y-92298716D01*
X115871119Y-92298716D02*
X115918738Y-92203478D01*
X115918738Y-92203478D02*
X115966357Y-92155859D01*
X115966357Y-92155859D02*
X116061595Y-92108240D01*
X116061595Y-92108240D02*
X116252071Y-92060621D01*
X116252071Y-92060621D02*
X116490166Y-92060621D01*
X116490166Y-92060621D02*
X116680642Y-92108240D01*
X116680642Y-92108240D02*
X116775880Y-92155859D01*
X116775880Y-92155859D02*
X116823500Y-92203478D01*
X116823500Y-92203478D02*
X116871119Y-92298716D01*
X116871119Y-92298716D02*
X116871119Y-92393954D01*
X116871119Y-92393954D02*
X116823500Y-92489192D01*
X116823500Y-92489192D02*
X116775880Y-92536811D01*
X116775880Y-92536811D02*
X116680642Y-92584430D01*
X116680642Y-92584430D02*
X116490166Y-92632049D01*
X116490166Y-92632049D02*
X116252071Y-92632049D01*
X116252071Y-92632049D02*
X116061595Y-92584430D01*
X116061595Y-92584430D02*
X115966357Y-92536811D01*
X115966357Y-92536811D02*
X115918738Y-92489192D01*
X115918738Y-92489192D02*
X115871119Y-92393954D01*
X116299690Y-91489192D02*
X116252071Y-91584430D01*
X116252071Y-91584430D02*
X116204452Y-91632049D01*
X116204452Y-91632049D02*
X116109214Y-91679668D01*
X116109214Y-91679668D02*
X116061595Y-91679668D01*
X116061595Y-91679668D02*
X115966357Y-91632049D01*
X115966357Y-91632049D02*
X115918738Y-91584430D01*
X115918738Y-91584430D02*
X115871119Y-91489192D01*
X115871119Y-91489192D02*
X115871119Y-91298716D01*
X115871119Y-91298716D02*
X115918738Y-91203478D01*
X115918738Y-91203478D02*
X115966357Y-91155859D01*
X115966357Y-91155859D02*
X116061595Y-91108240D01*
X116061595Y-91108240D02*
X116109214Y-91108240D01*
X116109214Y-91108240D02*
X116204452Y-91155859D01*
X116204452Y-91155859D02*
X116252071Y-91203478D01*
X116252071Y-91203478D02*
X116299690Y-91298716D01*
X116299690Y-91298716D02*
X116299690Y-91489192D01*
X116299690Y-91489192D02*
X116347309Y-91584430D01*
X116347309Y-91584430D02*
X116394928Y-91632049D01*
X116394928Y-91632049D02*
X116490166Y-91679668D01*
X116490166Y-91679668D02*
X116680642Y-91679668D01*
X116680642Y-91679668D02*
X116775880Y-91632049D01*
X116775880Y-91632049D02*
X116823500Y-91584430D01*
X116823500Y-91584430D02*
X116871119Y-91489192D01*
X116871119Y-91489192D02*
X116871119Y-91298716D01*
X116871119Y-91298716D02*
X116823500Y-91203478D01*
X116823500Y-91203478D02*
X116775880Y-91155859D01*
X116775880Y-91155859D02*
X116680642Y-91108240D01*
X116680642Y-91108240D02*
X116490166Y-91108240D01*
X116490166Y-91108240D02*
X116394928Y-91155859D01*
X116394928Y-91155859D02*
X116347309Y-91203478D01*
X116347309Y-91203478D02*
X116299690Y-91298716D01*
X115871119Y-90203478D02*
X115871119Y-90679668D01*
X115871119Y-90679668D02*
X116347309Y-90727287D01*
X116347309Y-90727287D02*
X116299690Y-90679668D01*
X116299690Y-90679668D02*
X116252071Y-90584430D01*
X116252071Y-90584430D02*
X116252071Y-90346335D01*
X116252071Y-90346335D02*
X116299690Y-90251097D01*
X116299690Y-90251097D02*
X116347309Y-90203478D01*
X116347309Y-90203478D02*
X116442547Y-90155859D01*
X116442547Y-90155859D02*
X116680642Y-90155859D01*
X116680642Y-90155859D02*
X116775880Y-90203478D01*
X116775880Y-90203478D02*
X116823500Y-90251097D01*
X116823500Y-90251097D02*
X116871119Y-90346335D01*
X116871119Y-90346335D02*
X116871119Y-90584430D01*
X116871119Y-90584430D02*
X116823500Y-90679668D01*
X116823500Y-90679668D02*
X116775880Y-90727287D01*
D12*
X158336779Y-134988866D02*
X159098684Y-134988866D01*
X161170112Y-134846009D02*
X161312969Y-134893628D01*
X161312969Y-134893628D02*
X161360588Y-134941247D01*
X161360588Y-134941247D02*
X161408207Y-135036485D01*
X161408207Y-135036485D02*
X161408207Y-135179342D01*
X161408207Y-135179342D02*
X161360588Y-135274580D01*
X161360588Y-135274580D02*
X161312969Y-135322200D01*
X161312969Y-135322200D02*
X161217731Y-135369819D01*
X161217731Y-135369819D02*
X160836779Y-135369819D01*
X160836779Y-135369819D02*
X160836779Y-134369819D01*
X160836779Y-134369819D02*
X161170112Y-134369819D01*
X161170112Y-134369819D02*
X161265350Y-134417438D01*
X161265350Y-134417438D02*
X161312969Y-134465057D01*
X161312969Y-134465057D02*
X161360588Y-134560295D01*
X161360588Y-134560295D02*
X161360588Y-134655533D01*
X161360588Y-134655533D02*
X161312969Y-134750771D01*
X161312969Y-134750771D02*
X161265350Y-134798390D01*
X161265350Y-134798390D02*
X161170112Y-134846009D01*
X161170112Y-134846009D02*
X160836779Y-134846009D01*
X161789160Y-135084104D02*
X162265350Y-135084104D01*
X161693922Y-135369819D02*
X162027255Y-134369819D01*
X162027255Y-134369819D02*
X162360588Y-135369819D01*
X162551065Y-134369819D02*
X163122493Y-134369819D01*
X162836779Y-135369819D02*
X162836779Y-134369819D01*
X163455827Y-134988866D02*
X164217732Y-134988866D01*
X163836779Y-135369819D02*
X163836779Y-134607914D01*
D13*
X135322054Y-58819600D02*
X135464911Y-58867219D01*
X135464911Y-58867219D02*
X135703006Y-58867219D01*
X135703006Y-58867219D02*
X135798244Y-58819600D01*
X135798244Y-58819600D02*
X135845863Y-58771980D01*
X135845863Y-58771980D02*
X135893482Y-58676742D01*
X135893482Y-58676742D02*
X135893482Y-58581504D01*
X135893482Y-58581504D02*
X135845863Y-58486266D01*
X135845863Y-58486266D02*
X135798244Y-58438647D01*
X135798244Y-58438647D02*
X135703006Y-58391028D01*
X135703006Y-58391028D02*
X135512530Y-58343409D01*
X135512530Y-58343409D02*
X135417292Y-58295790D01*
X135417292Y-58295790D02*
X135369673Y-58248171D01*
X135369673Y-58248171D02*
X135322054Y-58152933D01*
X135322054Y-58152933D02*
X135322054Y-58057695D01*
X135322054Y-58057695D02*
X135369673Y-57962457D01*
X135369673Y-57962457D02*
X135417292Y-57914838D01*
X135417292Y-57914838D02*
X135512530Y-57867219D01*
X135512530Y-57867219D02*
X135750625Y-57867219D01*
X135750625Y-57867219D02*
X135893482Y-57914838D01*
X136750625Y-58867219D02*
X136750625Y-58343409D01*
X136750625Y-58343409D02*
X136703006Y-58248171D01*
X136703006Y-58248171D02*
X136607768Y-58200552D01*
X136607768Y-58200552D02*
X136417292Y-58200552D01*
X136417292Y-58200552D02*
X136322054Y-58248171D01*
X136750625Y-58819600D02*
X136655387Y-58867219D01*
X136655387Y-58867219D02*
X136417292Y-58867219D01*
X136417292Y-58867219D02*
X136322054Y-58819600D01*
X136322054Y-58819600D02*
X136274435Y-58724361D01*
X136274435Y-58724361D02*
X136274435Y-58629123D01*
X136274435Y-58629123D02*
X136322054Y-58533885D01*
X136322054Y-58533885D02*
X136417292Y-58486266D01*
X136417292Y-58486266D02*
X136655387Y-58486266D01*
X136655387Y-58486266D02*
X136750625Y-58438647D01*
X137226816Y-58867219D02*
X137226816Y-58200552D01*
X137226816Y-57867219D02*
X137179197Y-57914838D01*
X137179197Y-57914838D02*
X137226816Y-57962457D01*
X137226816Y-57962457D02*
X137274435Y-57914838D01*
X137274435Y-57914838D02*
X137226816Y-57867219D01*
X137226816Y-57867219D02*
X137226816Y-57962457D01*
X137845863Y-58867219D02*
X137750625Y-58819600D01*
X137750625Y-58819600D02*
X137703006Y-58724361D01*
X137703006Y-58724361D02*
X137703006Y-57867219D01*
X138083959Y-58200552D02*
X138464911Y-58200552D01*
X138226816Y-58867219D02*
X138226816Y-58010076D01*
X138226816Y-58010076D02*
X138274435Y-57914838D01*
X138274435Y-57914838D02*
X138369673Y-57867219D01*
X138369673Y-57867219D02*
X138464911Y-57867219D01*
X138798245Y-58867219D02*
X138798245Y-58200552D01*
X138798245Y-58391028D02*
X138845864Y-58295790D01*
X138845864Y-58295790D02*
X138893483Y-58248171D01*
X138893483Y-58248171D02*
X138988721Y-58200552D01*
X138988721Y-58200552D02*
X139083959Y-58200552D01*
X139845864Y-58867219D02*
X139845864Y-58343409D01*
X139845864Y-58343409D02*
X139798245Y-58248171D01*
X139798245Y-58248171D02*
X139703007Y-58200552D01*
X139703007Y-58200552D02*
X139512531Y-58200552D01*
X139512531Y-58200552D02*
X139417293Y-58248171D01*
X139845864Y-58819600D02*
X139750626Y-58867219D01*
X139750626Y-58867219D02*
X139512531Y-58867219D01*
X139512531Y-58867219D02*
X139417293Y-58819600D01*
X139417293Y-58819600D02*
X139369674Y-58724361D01*
X139369674Y-58724361D02*
X139369674Y-58629123D01*
X139369674Y-58629123D02*
X139417293Y-58533885D01*
X139417293Y-58533885D02*
X139512531Y-58486266D01*
X139512531Y-58486266D02*
X139750626Y-58486266D01*
X139750626Y-58486266D02*
X139845864Y-58438647D01*
X140322055Y-58867219D02*
X140322055Y-58200552D01*
X140322055Y-58295790D02*
X140369674Y-58248171D01*
X140369674Y-58248171D02*
X140464912Y-58200552D01*
X140464912Y-58200552D02*
X140607769Y-58200552D01*
X140607769Y-58200552D02*
X140703007Y-58248171D01*
X140703007Y-58248171D02*
X140750626Y-58343409D01*
X140750626Y-58343409D02*
X140750626Y-58867219D01*
X140750626Y-58343409D02*
X140798245Y-58248171D01*
X140798245Y-58248171D02*
X140893483Y-58200552D01*
X140893483Y-58200552D02*
X141036340Y-58200552D01*
X141036340Y-58200552D02*
X141131579Y-58248171D01*
X141131579Y-58248171D02*
X141179198Y-58343409D01*
X141179198Y-58343409D02*
X141179198Y-58867219D01*
X142036340Y-58819600D02*
X141941102Y-58867219D01*
X141941102Y-58867219D02*
X141750626Y-58867219D01*
X141750626Y-58867219D02*
X141655388Y-58819600D01*
X141655388Y-58819600D02*
X141607769Y-58724361D01*
X141607769Y-58724361D02*
X141607769Y-58343409D01*
X141607769Y-58343409D02*
X141655388Y-58248171D01*
X141655388Y-58248171D02*
X141750626Y-58200552D01*
X141750626Y-58200552D02*
X141941102Y-58200552D01*
X141941102Y-58200552D02*
X142036340Y-58248171D01*
X142036340Y-58248171D02*
X142083959Y-58343409D01*
X142083959Y-58343409D02*
X142083959Y-58438647D01*
X142083959Y-58438647D02*
X141607769Y-58533885D01*
X142464912Y-58819600D02*
X142560150Y-58867219D01*
X142560150Y-58867219D02*
X142750626Y-58867219D01*
X142750626Y-58867219D02*
X142845864Y-58819600D01*
X142845864Y-58819600D02*
X142893483Y-58724361D01*
X142893483Y-58724361D02*
X142893483Y-58676742D01*
X142893483Y-58676742D02*
X142845864Y-58581504D01*
X142845864Y-58581504D02*
X142750626Y-58533885D01*
X142750626Y-58533885D02*
X142607769Y-58533885D01*
X142607769Y-58533885D02*
X142512531Y-58486266D01*
X142512531Y-58486266D02*
X142464912Y-58391028D01*
X142464912Y-58391028D02*
X142464912Y-58343409D01*
X142464912Y-58343409D02*
X142512531Y-58248171D01*
X142512531Y-58248171D02*
X142607769Y-58200552D01*
X142607769Y-58200552D02*
X142750626Y-58200552D01*
X142750626Y-58200552D02*
X142845864Y-58248171D01*
X143322055Y-58771980D02*
X143369674Y-58819600D01*
X143369674Y-58819600D02*
X143322055Y-58867219D01*
X143322055Y-58867219D02*
X143274436Y-58819600D01*
X143274436Y-58819600D02*
X143322055Y-58771980D01*
X143322055Y-58771980D02*
X143322055Y-58867219D01*
X144226816Y-58819600D02*
X144131578Y-58867219D01*
X144131578Y-58867219D02*
X143941102Y-58867219D01*
X143941102Y-58867219D02*
X143845864Y-58819600D01*
X143845864Y-58819600D02*
X143798245Y-58771980D01*
X143798245Y-58771980D02*
X143750626Y-58676742D01*
X143750626Y-58676742D02*
X143750626Y-58391028D01*
X143750626Y-58391028D02*
X143798245Y-58295790D01*
X143798245Y-58295790D02*
X143845864Y-58248171D01*
X143845864Y-58248171D02*
X143941102Y-58200552D01*
X143941102Y-58200552D02*
X144131578Y-58200552D01*
X144131578Y-58200552D02*
X144226816Y-58248171D01*
X144798245Y-58867219D02*
X144703007Y-58819600D01*
X144703007Y-58819600D02*
X144655388Y-58771980D01*
X144655388Y-58771980D02*
X144607769Y-58676742D01*
X144607769Y-58676742D02*
X144607769Y-58391028D01*
X144607769Y-58391028D02*
X144655388Y-58295790D01*
X144655388Y-58295790D02*
X144703007Y-58248171D01*
X144703007Y-58248171D02*
X144798245Y-58200552D01*
X144798245Y-58200552D02*
X144941102Y-58200552D01*
X144941102Y-58200552D02*
X145036340Y-58248171D01*
X145036340Y-58248171D02*
X145083959Y-58295790D01*
X145083959Y-58295790D02*
X145131578Y-58391028D01*
X145131578Y-58391028D02*
X145131578Y-58676742D01*
X145131578Y-58676742D02*
X145083959Y-58771980D01*
X145083959Y-58771980D02*
X145036340Y-58819600D01*
X145036340Y-58819600D02*
X144941102Y-58867219D01*
X144941102Y-58867219D02*
X144798245Y-58867219D01*
X145560150Y-58867219D02*
X145560150Y-58200552D01*
X145560150Y-58295790D02*
X145607769Y-58248171D01*
X145607769Y-58248171D02*
X145703007Y-58200552D01*
X145703007Y-58200552D02*
X145845864Y-58200552D01*
X145845864Y-58200552D02*
X145941102Y-58248171D01*
X145941102Y-58248171D02*
X145988721Y-58343409D01*
X145988721Y-58343409D02*
X145988721Y-58867219D01*
X145988721Y-58343409D02*
X146036340Y-58248171D01*
X146036340Y-58248171D02*
X146131578Y-58200552D01*
X146131578Y-58200552D02*
X146274435Y-58200552D01*
X146274435Y-58200552D02*
X146369674Y-58248171D01*
X146369674Y-58248171D02*
X146417293Y-58343409D01*
X146417293Y-58343409D02*
X146417293Y-58867219D01*
D12*
X157954819Y-120754166D02*
X157478628Y-121087499D01*
X157954819Y-121325594D02*
X156954819Y-121325594D01*
X156954819Y-121325594D02*
X156954819Y-120944642D01*
X156954819Y-120944642D02*
X157002438Y-120849404D01*
X157002438Y-120849404D02*
X157050057Y-120801785D01*
X157050057Y-120801785D02*
X157145295Y-120754166D01*
X157145295Y-120754166D02*
X157288152Y-120754166D01*
X157288152Y-120754166D02*
X157383390Y-120801785D01*
X157383390Y-120801785D02*
X157431009Y-120849404D01*
X157431009Y-120849404D02*
X157478628Y-120944642D01*
X157478628Y-120944642D02*
X157478628Y-121325594D01*
X157954819Y-119801785D02*
X157954819Y-120373213D01*
X157954819Y-120087499D02*
X156954819Y-120087499D01*
X156954819Y-120087499D02*
X157097676Y-120182737D01*
X157097676Y-120182737D02*
X157192914Y-120277975D01*
X157192914Y-120277975D02*
X157240533Y-120373213D01*
D10*
X140261904Y-123082580D02*
X140261904Y-122273057D01*
X140261904Y-122273057D02*
X140214285Y-122177819D01*
X140214285Y-122177819D02*
X140166666Y-122130200D01*
X140166666Y-122130200D02*
X140071428Y-122082580D01*
X140071428Y-122082580D02*
X139880952Y-122082580D01*
X139880952Y-122082580D02*
X139785714Y-122130200D01*
X139785714Y-122130200D02*
X139738095Y-122177819D01*
X139738095Y-122177819D02*
X139690476Y-122273057D01*
X139690476Y-122273057D02*
X139690476Y-123082580D01*
X138690476Y-122082580D02*
X139261904Y-122082580D01*
X138976190Y-122082580D02*
X138976190Y-123082580D01*
X138976190Y-123082580D02*
X139071428Y-122939723D01*
X139071428Y-122939723D02*
X139166666Y-122844485D01*
X139166666Y-122844485D02*
X139261904Y-122796866D01*
X163864895Y-112299999D02*
X163864895Y-112699999D01*
X163864895Y-112499999D02*
X163064895Y-112499999D01*
X163064895Y-112499999D02*
X163179180Y-112566666D01*
X163179180Y-112566666D02*
X163255371Y-112633333D01*
X163255371Y-112633333D02*
X163293466Y-112699999D01*
D12*
X160190476Y-122229819D02*
X160190476Y-122944104D01*
X160190476Y-122944104D02*
X160142857Y-123086961D01*
X160142857Y-123086961D02*
X160047619Y-123182200D01*
X160047619Y-123182200D02*
X159904762Y-123229819D01*
X159904762Y-123229819D02*
X159809524Y-123229819D01*
X161190476Y-123229819D02*
X160619048Y-123229819D01*
X160904762Y-123229819D02*
X160904762Y-122229819D01*
X160904762Y-122229819D02*
X160809524Y-122372676D01*
X160809524Y-122372676D02*
X160714286Y-122467914D01*
X160714286Y-122467914D02*
X160619048Y-122515533D01*
X161809524Y-122229819D02*
X161904762Y-122229819D01*
X161904762Y-122229819D02*
X162000000Y-122277438D01*
X162000000Y-122277438D02*
X162047619Y-122325057D01*
X162047619Y-122325057D02*
X162095238Y-122420295D01*
X162095238Y-122420295D02*
X162142857Y-122610771D01*
X162142857Y-122610771D02*
X162142857Y-122848866D01*
X162142857Y-122848866D02*
X162095238Y-123039342D01*
X162095238Y-123039342D02*
X162047619Y-123134580D01*
X162047619Y-123134580D02*
X162000000Y-123182200D01*
X162000000Y-123182200D02*
X161904762Y-123229819D01*
X161904762Y-123229819D02*
X161809524Y-123229819D01*
X161809524Y-123229819D02*
X161714286Y-123182200D01*
X161714286Y-123182200D02*
X161666667Y-123134580D01*
X161666667Y-123134580D02*
X161619048Y-123039342D01*
X161619048Y-123039342D02*
X161571429Y-122848866D01*
X161571429Y-122848866D02*
X161571429Y-122610771D01*
X161571429Y-122610771D02*
X161619048Y-122420295D01*
X161619048Y-122420295D02*
X161666667Y-122325057D01*
X161666667Y-122325057D02*
X161714286Y-122277438D01*
X161714286Y-122277438D02*
X161809524Y-122229819D01*
X116166666Y-106454819D02*
X116166666Y-107169104D01*
X116166666Y-107169104D02*
X116119047Y-107311961D01*
X116119047Y-107311961D02*
X116023809Y-107407200D01*
X116023809Y-107407200D02*
X115880952Y-107454819D01*
X115880952Y-107454819D02*
X115785714Y-107454819D01*
X116547619Y-106454819D02*
X117214285Y-106454819D01*
X117214285Y-106454819D02*
X116785714Y-107454819D01*
X124867319Y-122841666D02*
X124391128Y-123174999D01*
X124867319Y-123413094D02*
X123867319Y-123413094D01*
X123867319Y-123413094D02*
X123867319Y-123032142D01*
X123867319Y-123032142D02*
X123914938Y-122936904D01*
X123914938Y-122936904D02*
X123962557Y-122889285D01*
X123962557Y-122889285D02*
X124057795Y-122841666D01*
X124057795Y-122841666D02*
X124200652Y-122841666D01*
X124200652Y-122841666D02*
X124295890Y-122889285D01*
X124295890Y-122889285D02*
X124343509Y-122936904D01*
X124343509Y-122936904D02*
X124391128Y-123032142D01*
X124391128Y-123032142D02*
X124391128Y-123413094D01*
X124200652Y-121984523D02*
X124867319Y-121984523D01*
X123819700Y-122222618D02*
X124533985Y-122460713D01*
X124533985Y-122460713D02*
X124533985Y-121841666D01*
X121666666Y-106454819D02*
X121666666Y-107169104D01*
X121666666Y-107169104D02*
X121619047Y-107311961D01*
X121619047Y-107311961D02*
X121523809Y-107407200D01*
X121523809Y-107407200D02*
X121380952Y-107454819D01*
X121380952Y-107454819D02*
X121285714Y-107454819D01*
X122285714Y-106883390D02*
X122190476Y-106835771D01*
X122190476Y-106835771D02*
X122142857Y-106788152D01*
X122142857Y-106788152D02*
X122095238Y-106692914D01*
X122095238Y-106692914D02*
X122095238Y-106645295D01*
X122095238Y-106645295D02*
X122142857Y-106550057D01*
X122142857Y-106550057D02*
X122190476Y-106502438D01*
X122190476Y-106502438D02*
X122285714Y-106454819D01*
X122285714Y-106454819D02*
X122476190Y-106454819D01*
X122476190Y-106454819D02*
X122571428Y-106502438D01*
X122571428Y-106502438D02*
X122619047Y-106550057D01*
X122619047Y-106550057D02*
X122666666Y-106645295D01*
X122666666Y-106645295D02*
X122666666Y-106692914D01*
X122666666Y-106692914D02*
X122619047Y-106788152D01*
X122619047Y-106788152D02*
X122571428Y-106835771D01*
X122571428Y-106835771D02*
X122476190Y-106883390D01*
X122476190Y-106883390D02*
X122285714Y-106883390D01*
X122285714Y-106883390D02*
X122190476Y-106931009D01*
X122190476Y-106931009D02*
X122142857Y-106978628D01*
X122142857Y-106978628D02*
X122095238Y-107073866D01*
X122095238Y-107073866D02*
X122095238Y-107264342D01*
X122095238Y-107264342D02*
X122142857Y-107359580D01*
X122142857Y-107359580D02*
X122190476Y-107407200D01*
X122190476Y-107407200D02*
X122285714Y-107454819D01*
X122285714Y-107454819D02*
X122476190Y-107454819D01*
X122476190Y-107454819D02*
X122571428Y-107407200D01*
X122571428Y-107407200D02*
X122619047Y-107359580D01*
X122619047Y-107359580D02*
X122666666Y-107264342D01*
X122666666Y-107264342D02*
X122666666Y-107073866D01*
X122666666Y-107073866D02*
X122619047Y-106978628D01*
X122619047Y-106978628D02*
X122571428Y-106931009D01*
X122571428Y-106931009D02*
X122476190Y-106883390D01*
X116166666Y-119954819D02*
X116166666Y-120669104D01*
X116166666Y-120669104D02*
X116119047Y-120811961D01*
X116119047Y-120811961D02*
X116023809Y-120907200D01*
X116023809Y-120907200D02*
X115880952Y-120954819D01*
X115880952Y-120954819D02*
X115785714Y-120954819D01*
X117071428Y-120288152D02*
X117071428Y-120954819D01*
X116833333Y-119907200D02*
X116595238Y-120621485D01*
X116595238Y-120621485D02*
X117214285Y-120621485D01*
X125004819Y-127341666D02*
X124528628Y-127674999D01*
X125004819Y-127913094D02*
X124004819Y-127913094D01*
X124004819Y-127913094D02*
X124004819Y-127532142D01*
X124004819Y-127532142D02*
X124052438Y-127436904D01*
X124052438Y-127436904D02*
X124100057Y-127389285D01*
X124100057Y-127389285D02*
X124195295Y-127341666D01*
X124195295Y-127341666D02*
X124338152Y-127341666D01*
X124338152Y-127341666D02*
X124433390Y-127389285D01*
X124433390Y-127389285D02*
X124481009Y-127436904D01*
X124481009Y-127436904D02*
X124528628Y-127532142D01*
X124528628Y-127532142D02*
X124528628Y-127913094D01*
X124004819Y-127008332D02*
X124004819Y-126389285D01*
X124004819Y-126389285D02*
X124385771Y-126722618D01*
X124385771Y-126722618D02*
X124385771Y-126579761D01*
X124385771Y-126579761D02*
X124433390Y-126484523D01*
X124433390Y-126484523D02*
X124481009Y-126436904D01*
X124481009Y-126436904D02*
X124576247Y-126389285D01*
X124576247Y-126389285D02*
X124814342Y-126389285D01*
X124814342Y-126389285D02*
X124909580Y-126436904D01*
X124909580Y-126436904D02*
X124957200Y-126484523D01*
X124957200Y-126484523D02*
X125004819Y-126579761D01*
X125004819Y-126579761D02*
X125004819Y-126865475D01*
X125004819Y-126865475D02*
X124957200Y-126960713D01*
X124957200Y-126960713D02*
X124909580Y-127008332D01*
X111166666Y-106764819D02*
X111166666Y-107479104D01*
X111166666Y-107479104D02*
X111119047Y-107621961D01*
X111119047Y-107621961D02*
X111023809Y-107717200D01*
X111023809Y-107717200D02*
X110880952Y-107764819D01*
X110880952Y-107764819D02*
X110785714Y-107764819D01*
X112071428Y-106764819D02*
X111880952Y-106764819D01*
X111880952Y-106764819D02*
X111785714Y-106812438D01*
X111785714Y-106812438D02*
X111738095Y-106860057D01*
X111738095Y-106860057D02*
X111642857Y-107002914D01*
X111642857Y-107002914D02*
X111595238Y-107193390D01*
X111595238Y-107193390D02*
X111595238Y-107574342D01*
X111595238Y-107574342D02*
X111642857Y-107669580D01*
X111642857Y-107669580D02*
X111690476Y-107717200D01*
X111690476Y-107717200D02*
X111785714Y-107764819D01*
X111785714Y-107764819D02*
X111976190Y-107764819D01*
X111976190Y-107764819D02*
X112071428Y-107717200D01*
X112071428Y-107717200D02*
X112119047Y-107669580D01*
X112119047Y-107669580D02*
X112166666Y-107574342D01*
X112166666Y-107574342D02*
X112166666Y-107336247D01*
X112166666Y-107336247D02*
X112119047Y-107241009D01*
X112119047Y-107241009D02*
X112071428Y-107193390D01*
X112071428Y-107193390D02*
X111976190Y-107145771D01*
X111976190Y-107145771D02*
X111785714Y-107145771D01*
X111785714Y-107145771D02*
X111690476Y-107193390D01*
X111690476Y-107193390D02*
X111642857Y-107241009D01*
X111642857Y-107241009D02*
X111595238Y-107336247D01*
X121666666Y-77954819D02*
X121666666Y-78669104D01*
X121666666Y-78669104D02*
X121619047Y-78811961D01*
X121619047Y-78811961D02*
X121523809Y-78907200D01*
X121523809Y-78907200D02*
X121380952Y-78954819D01*
X121380952Y-78954819D02*
X121285714Y-78954819D01*
X122047619Y-77954819D02*
X122666666Y-77954819D01*
X122666666Y-77954819D02*
X122333333Y-78335771D01*
X122333333Y-78335771D02*
X122476190Y-78335771D01*
X122476190Y-78335771D02*
X122571428Y-78383390D01*
X122571428Y-78383390D02*
X122619047Y-78431009D01*
X122619047Y-78431009D02*
X122666666Y-78526247D01*
X122666666Y-78526247D02*
X122666666Y-78764342D01*
X122666666Y-78764342D02*
X122619047Y-78859580D01*
X122619047Y-78859580D02*
X122571428Y-78907200D01*
X122571428Y-78907200D02*
X122476190Y-78954819D01*
X122476190Y-78954819D02*
X122190476Y-78954819D01*
X122190476Y-78954819D02*
X122095238Y-78907200D01*
X122095238Y-78907200D02*
X122047619Y-78859580D01*
X157666666Y-78724819D02*
X157666666Y-79439104D01*
X157666666Y-79439104D02*
X157619047Y-79581961D01*
X157619047Y-79581961D02*
X157523809Y-79677200D01*
X157523809Y-79677200D02*
X157380952Y-79724819D01*
X157380952Y-79724819D02*
X157285714Y-79724819D01*
X158190476Y-79724819D02*
X158380952Y-79724819D01*
X158380952Y-79724819D02*
X158476190Y-79677200D01*
X158476190Y-79677200D02*
X158523809Y-79629580D01*
X158523809Y-79629580D02*
X158619047Y-79486723D01*
X158619047Y-79486723D02*
X158666666Y-79296247D01*
X158666666Y-79296247D02*
X158666666Y-78915295D01*
X158666666Y-78915295D02*
X158619047Y-78820057D01*
X158619047Y-78820057D02*
X158571428Y-78772438D01*
X158571428Y-78772438D02*
X158476190Y-78724819D01*
X158476190Y-78724819D02*
X158285714Y-78724819D01*
X158285714Y-78724819D02*
X158190476Y-78772438D01*
X158190476Y-78772438D02*
X158142857Y-78820057D01*
X158142857Y-78820057D02*
X158095238Y-78915295D01*
X158095238Y-78915295D02*
X158095238Y-79153390D01*
X158095238Y-79153390D02*
X158142857Y-79248628D01*
X158142857Y-79248628D02*
X158190476Y-79296247D01*
X158190476Y-79296247D02*
X158285714Y-79343866D01*
X158285714Y-79343866D02*
X158476190Y-79343866D01*
X158476190Y-79343866D02*
X158571428Y-79296247D01*
X158571428Y-79296247D02*
X158619047Y-79248628D01*
X158619047Y-79248628D02*
X158666666Y-79153390D01*
X157954819Y-108491666D02*
X157478628Y-108824999D01*
X157954819Y-109063094D02*
X156954819Y-109063094D01*
X156954819Y-109063094D02*
X156954819Y-108682142D01*
X156954819Y-108682142D02*
X157002438Y-108586904D01*
X157002438Y-108586904D02*
X157050057Y-108539285D01*
X157050057Y-108539285D02*
X157145295Y-108491666D01*
X157145295Y-108491666D02*
X157288152Y-108491666D01*
X157288152Y-108491666D02*
X157383390Y-108539285D01*
X157383390Y-108539285D02*
X157431009Y-108586904D01*
X157431009Y-108586904D02*
X157478628Y-108682142D01*
X157478628Y-108682142D02*
X157478628Y-109063094D01*
X157050057Y-108110713D02*
X157002438Y-108063094D01*
X157002438Y-108063094D02*
X156954819Y-107967856D01*
X156954819Y-107967856D02*
X156954819Y-107729761D01*
X156954819Y-107729761D02*
X157002438Y-107634523D01*
X157002438Y-107634523D02*
X157050057Y-107586904D01*
X157050057Y-107586904D02*
X157145295Y-107539285D01*
X157145295Y-107539285D02*
X157240533Y-107539285D01*
X157240533Y-107539285D02*
X157383390Y-107586904D01*
X157383390Y-107586904D02*
X157954819Y-108158332D01*
X157954819Y-108158332D02*
X157954819Y-107539285D01*
X163166666Y-93034819D02*
X163166666Y-93749104D01*
X163166666Y-93749104D02*
X163119047Y-93891961D01*
X163119047Y-93891961D02*
X163023809Y-93987200D01*
X163023809Y-93987200D02*
X162880952Y-94034819D01*
X162880952Y-94034819D02*
X162785714Y-94034819D01*
X164119047Y-93034819D02*
X163642857Y-93034819D01*
X163642857Y-93034819D02*
X163595238Y-93511009D01*
X163595238Y-93511009D02*
X163642857Y-93463390D01*
X163642857Y-93463390D02*
X163738095Y-93415771D01*
X163738095Y-93415771D02*
X163976190Y-93415771D01*
X163976190Y-93415771D02*
X164071428Y-93463390D01*
X164071428Y-93463390D02*
X164119047Y-93511009D01*
X164119047Y-93511009D02*
X164166666Y-93606247D01*
X164166666Y-93606247D02*
X164166666Y-93844342D01*
X164166666Y-93844342D02*
X164119047Y-93939580D01*
X164119047Y-93939580D02*
X164071428Y-93987200D01*
X164071428Y-93987200D02*
X163976190Y-94034819D01*
X163976190Y-94034819D02*
X163738095Y-94034819D01*
X163738095Y-94034819D02*
X163642857Y-93987200D01*
X163642857Y-93987200D02*
X163595238Y-93939580D01*
X130454819Y-94833333D02*
X131169104Y-94833333D01*
X131169104Y-94833333D02*
X131311961Y-94880952D01*
X131311961Y-94880952D02*
X131407200Y-94976190D01*
X131407200Y-94976190D02*
X131454819Y-95119047D01*
X131454819Y-95119047D02*
X131454819Y-95214285D01*
X131454819Y-93833333D02*
X131454819Y-94404761D01*
X131454819Y-94119047D02*
X130454819Y-94119047D01*
X130454819Y-94119047D02*
X130597676Y-94214285D01*
X130597676Y-94214285D02*
X130692914Y-94309523D01*
X130692914Y-94309523D02*
X130740533Y-94404761D01*
X110666666Y-119994819D02*
X110666666Y-120709104D01*
X110666666Y-120709104D02*
X110619047Y-120851961D01*
X110619047Y-120851961D02*
X110523809Y-120947200D01*
X110523809Y-120947200D02*
X110380952Y-120994819D01*
X110380952Y-120994819D02*
X110285714Y-120994819D01*
X111095238Y-120090057D02*
X111142857Y-120042438D01*
X111142857Y-120042438D02*
X111238095Y-119994819D01*
X111238095Y-119994819D02*
X111476190Y-119994819D01*
X111476190Y-119994819D02*
X111571428Y-120042438D01*
X111571428Y-120042438D02*
X111619047Y-120090057D01*
X111619047Y-120090057D02*
X111666666Y-120185295D01*
X111666666Y-120185295D02*
X111666666Y-120280533D01*
X111666666Y-120280533D02*
X111619047Y-120423390D01*
X111619047Y-120423390D02*
X111047619Y-120994819D01*
X111047619Y-120994819D02*
X111666666Y-120994819D01*
X162738095Y-54054819D02*
X162738095Y-54864342D01*
X162738095Y-54864342D02*
X162785714Y-54959580D01*
X162785714Y-54959580D02*
X162833333Y-55007200D01*
X162833333Y-55007200D02*
X162928571Y-55054819D01*
X162928571Y-55054819D02*
X163119047Y-55054819D01*
X163119047Y-55054819D02*
X163214285Y-55007200D01*
X163214285Y-55007200D02*
X163261904Y-54959580D01*
X163261904Y-54959580D02*
X163309523Y-54864342D01*
X163309523Y-54864342D02*
X163309523Y-54054819D01*
X163738095Y-54150057D02*
X163785714Y-54102438D01*
X163785714Y-54102438D02*
X163880952Y-54054819D01*
X163880952Y-54054819D02*
X164119047Y-54054819D01*
X164119047Y-54054819D02*
X164214285Y-54102438D01*
X164214285Y-54102438D02*
X164261904Y-54150057D01*
X164261904Y-54150057D02*
X164309523Y-54245295D01*
X164309523Y-54245295D02*
X164309523Y-54340533D01*
X164309523Y-54340533D02*
X164261904Y-54483390D01*
X164261904Y-54483390D02*
X163690476Y-55054819D01*
X163690476Y-55054819D02*
X164309523Y-55054819D01*
%TO.C,R1*%
D14*
X156765000Y-116860436D02*
X156765000Y-117314564D01*
X158235000Y-116860436D02*
X158235000Y-117314564D01*
%TO.C,U1*%
D10*
X125670000Y-85370000D02*
X154000000Y-85370000D01*
X154000000Y-136820000D01*
X125670000Y-136820000D01*
X125670000Y-85370000D01*
%TO.C,SW1*%
D14*
X161000000Y-108150000D02*
X165000000Y-108150000D01*
X161000000Y-120850000D02*
X161000000Y-108150000D01*
X165000000Y-108150000D02*
X165000000Y-120850000D01*
X165000000Y-120850000D02*
X161000000Y-120850000D01*
%TO.C,J10*%
X157940000Y-123865000D02*
X157940000Y-131685000D01*
X157940000Y-125465000D02*
X158860000Y-125465000D01*
X157940000Y-131685000D02*
X164060000Y-131685000D01*
X158860000Y-123865000D02*
X157940000Y-123865000D01*
X158860000Y-125465000D02*
X158860000Y-123865000D01*
X159140000Y-125465000D02*
X158860000Y-125465000D01*
X159140000Y-125465000D02*
X159140000Y-124250000D01*
X159200000Y-129425000D02*
X159200000Y-131685000D01*
X159700000Y-129425000D02*
X159700000Y-131685000D01*
X160500000Y-127325000D02*
X161500000Y-127325000D01*
X160500000Y-131685000D02*
X160500000Y-127325000D01*
X161500000Y-127325000D02*
X161500000Y-131685000D01*
X163140000Y-123865000D02*
X163140000Y-125465000D01*
X163140000Y-125465000D02*
X162860000Y-125465000D01*
X164060000Y-123865000D02*
X163140000Y-123865000D01*
X164060000Y-125465000D02*
X163140000Y-125465000D01*
X164060000Y-131685000D02*
X164060000Y-123865000D01*
X158700000Y-127825000D02*
X159700000Y-127825000D01*
X159700000Y-129425000D01*
X158700000Y-129425000D01*
X158700000Y-127825000D01*
X162300000Y-127825000D02*
X163300000Y-127825000D01*
X163300000Y-129425000D01*
X162300000Y-129425000D01*
X162300000Y-127825000D01*
%TO.C,J7*%
X115120000Y-108000000D02*
X116500000Y-108000000D01*
X115120000Y-109380000D02*
X115120000Y-108000000D01*
X115120000Y-110650000D02*
X115120000Y-118380000D01*
X115120000Y-110650000D02*
X117880000Y-110650000D01*
X115120000Y-118380000D02*
X117880000Y-118380000D01*
X117880000Y-110650000D02*
X117880000Y-118380000D01*
%TO.C,R4*%
X121677500Y-122447936D02*
X121677500Y-122902064D01*
X123147500Y-122447936D02*
X123147500Y-122902064D01*
%TO.C,J8*%
X120620000Y-108000000D02*
X122000000Y-108000000D01*
X120620000Y-109380000D02*
X120620000Y-108000000D01*
X120620000Y-110650000D02*
X120620000Y-118380000D01*
X120620000Y-110650000D02*
X123380000Y-110650000D01*
X120620000Y-118380000D02*
X123380000Y-118380000D01*
X123380000Y-110650000D02*
X123380000Y-118380000D01*
%TO.C,J4*%
X115120000Y-121500000D02*
X116500000Y-121500000D01*
X115120000Y-122880000D02*
X115120000Y-121500000D01*
X115120000Y-124150000D02*
X115120000Y-131880000D01*
X115120000Y-124150000D02*
X117880000Y-124150000D01*
X115120000Y-131880000D02*
X117880000Y-131880000D01*
X117880000Y-124150000D02*
X117880000Y-131880000D01*
%TO.C,R3*%
X121765000Y-126860436D02*
X121765000Y-127314564D01*
X123235000Y-126860436D02*
X123235000Y-127314564D01*
%TO.C,J6*%
X110120000Y-108310000D02*
X111500000Y-108310000D01*
X110120000Y-109690000D02*
X110120000Y-108310000D01*
X110120000Y-110960000D02*
X110120000Y-118690000D01*
X110120000Y-110960000D02*
X112880000Y-110960000D01*
X110120000Y-118690000D02*
X112880000Y-118690000D01*
X112880000Y-110960000D02*
X112880000Y-118690000D01*
%TO.C,J3*%
X120620000Y-80080000D02*
X122000000Y-80080000D01*
X120620000Y-81460000D02*
X120620000Y-80080000D01*
X120620000Y-82730000D02*
X120620000Y-105700000D01*
X120620000Y-82730000D02*
X123380000Y-82730000D01*
X120620000Y-105700000D02*
X123380000Y-105700000D01*
X123380000Y-82730000D02*
X123380000Y-105700000D01*
%TO.C,J9*%
X156620000Y-80270000D02*
X158000000Y-80270000D01*
X156620000Y-81650000D02*
X156620000Y-80270000D01*
X156620000Y-82920000D02*
X156620000Y-95730000D01*
X156620000Y-82920000D02*
X159380000Y-82920000D01*
X156620000Y-95730000D02*
X159380000Y-95730000D01*
X159380000Y-82920000D02*
X159380000Y-95730000D01*
%TO.C,R2*%
X156765000Y-112139564D02*
X156765000Y-111685436D01*
X158235000Y-112139564D02*
X158235000Y-111685436D01*
%TO.C,J5*%
X162120000Y-94580000D02*
X163500000Y-94580000D01*
X162120000Y-95960000D02*
X162120000Y-94580000D01*
X162120000Y-97230000D02*
X162120000Y-104960000D01*
X162120000Y-97230000D02*
X164880000Y-97230000D01*
X162120000Y-104960000D02*
X164880000Y-104960000D01*
X164880000Y-97230000D02*
X164880000Y-104960000D01*
%TO.C,J1*%
X132000000Y-95880000D02*
X132000000Y-94500000D01*
X133380000Y-95880000D02*
X132000000Y-95880000D01*
X134650000Y-93120000D02*
X147460000Y-93120000D01*
X134650000Y-95880000D02*
X134650000Y-93120000D01*
X134650000Y-95880000D02*
X147460000Y-95880000D01*
X147460000Y-95880000D02*
X147460000Y-93120000D01*
%TO.C,J2*%
X109620000Y-121540000D02*
X111000000Y-121540000D01*
X109620000Y-122920000D02*
X109620000Y-121540000D01*
X109620000Y-124190000D02*
X109620000Y-131920000D01*
X109620000Y-124190000D02*
X112380000Y-124190000D01*
X109620000Y-131920000D02*
X112380000Y-131920000D01*
X112380000Y-124190000D02*
X112380000Y-131920000D01*
%TO.C,U2*%
X162120000Y-55600000D02*
X163500000Y-55600000D01*
X162120000Y-56980000D02*
X162120000Y-55600000D01*
X162120000Y-58250000D02*
X162120000Y-91380000D01*
X162120000Y-58250000D02*
X164880000Y-58250000D01*
X162120000Y-91380000D02*
X164880000Y-91380000D01*
X164880000Y-58250000D02*
X164880000Y-91380000D01*
%TD*%
M02*
