%TF.GenerationSoftware,KiCad,Pcbnew,10.0.0*%
%TF.CreationDate,2026-04-12T14:35:19-04:00*%
%TF.ProjectId,kicad_sailframes-e1,6b696361-645f-4736-9169-6c6672616d65,rev?*%
%TF.SameCoordinates,Original*%
%TF.FileFunction,Copper,L1,Top*%
%TF.FilePolarity,Positive*%
%FSLAX46Y46*%
G04 Gerber Fmt 4.6, Leading zero omitted, Abs format (unit mm)*
G04 Created by KiCad (PCBNEW 10.0.0) date 2026-04-12 14:35:19*
%MOMM*%
%LPD*%
G01*
G04 APERTURE LIST*
G04 Aperture macros list*
%AMRoundRect*
0 Rectangle with rounded corners*
0 $1 Rounding radius*
0 $2 $3 $4 $5 $6 $7 $8 $9 X,Y pos of 4 corners*
0 Add a 4 corners polygon primitive as box body*
4,1,4,$2,$3,$4,$5,$6,$7,$8,$9,$2,$3,0*
0 Add four circle primitives for the rounded corners*
1,1,$1+$1,$2,$3*
1,1,$1+$1,$4,$5*
1,1,$1+$1,$6,$7*
1,1,$1+$1,$8,$9*
0 Add four rect primitives between the rounded corners*
20,1,$1+$1,$2,$3,$4,$5,0*
20,1,$1+$1,$4,$5,$6,$7,0*
20,1,$1+$1,$6,$7,$8,$9,0*
20,1,$1+$1,$8,$9,$2,$3,0*%
G04 Aperture macros list end*
%TA.AperFunction,SMDPad,CuDef*%
%ADD10RoundRect,0.250000X-0.450000X0.262500X-0.450000X-0.262500X0.450000X-0.262500X0.450000X0.262500X0*%
%TD*%
%TA.AperFunction,ComponentPad*%
%ADD11C,1.700000*%
%TD*%
%TA.AperFunction,ComponentPad*%
%ADD12C,1.800000*%
%TD*%
%TA.AperFunction,ComponentPad*%
%ADD13RoundRect,0.250000X-0.350000X-0.625000X0.350000X-0.625000X0.350000X0.625000X-0.350000X0.625000X0*%
%TD*%
%TA.AperFunction,ComponentPad*%
%ADD14O,1.200000X1.750000*%
%TD*%
%TA.AperFunction,ComponentPad*%
%ADD15R,1.700000X1.700000*%
%TD*%
%TA.AperFunction,SMDPad,CuDef*%
%ADD16RoundRect,0.250000X0.450000X-0.262500X0.450000X0.262500X-0.450000X0.262500X-0.450000X-0.262500X0*%
%TD*%
%TA.AperFunction,ViaPad*%
%ADD17C,0.600000*%
%TD*%
%TA.AperFunction,Conductor*%
%ADD18C,0.200000*%
%TD*%
G04 APERTURE END LIST*
D10*
%TO.P,R1,1*%
%TO.N,/VBAT*%
X157500000Y-116175000D03*
%TO.P,R1,2*%
%TO.N,/VBAT_DIV*%
X157500000Y-118000000D03*
%TD*%
D11*
%TO.P,U1,1,EN_1*%
%TO.N,unconnected-(U1-EN-Pad1)*%
X152200000Y-129500000D03*
%TO.P,U1,2,VP_2*%
%TO.N,/VP*%
X152200000Y-126960000D03*
%TO.P,U1,3,VN_3*%
%TO.N,/VN*%
X152200000Y-124420000D03*
%TO.P,U1,4,D34_4*%
%TO.N,/VBAT_DIV*%
X152200000Y-121880000D03*
%TO.P,U1,5,D35_5*%
%TO.N,/HSPI_MISO*%
X152200000Y-119340000D03*
%TO.P,U1,6,D32_6*%
%TO.N,/WIND_TX*%
X152200000Y-116800000D03*
%TO.P,U1,7,D33_7*%
%TO.N,/WIND_RX*%
X152200000Y-114260000D03*
%TO.P,U1,8,D25_8*%
%TO.N,/VSPI_MISO*%
X152200000Y-111720000D03*
%TO.P,U1,9,D26_9*%
%TO.N,/D26*%
X152200000Y-109180000D03*
%TO.P,U1,10,D27_10*%
%TO.N,/HSPI_CS*%
X152200000Y-106640000D03*
%TO.P,U1,11,D14_11*%
%TO.N,/HSPI_CLK*%
X152200000Y-104100000D03*
%TO.P,U1,12,D12_12*%
%TO.N,unconnected-(U1-D12-Pad12)*%
X152200000Y-101560000D03*
%TO.P,U1,13,D13_13*%
%TO.N,/HSPI_MOSI*%
X152200000Y-99020000D03*
%TO.P,U1,14,GND_14*%
%TO.N,/GND*%
X152200000Y-96480000D03*
%TO.P,U1,15,VIN_15*%
%TO.N,/5V_IN*%
X152200000Y-93940000D03*
%TO.P,U1,16,3V3_16*%
%TO.N,/3V3*%
X126950000Y-93940000D03*
%TO.P,U1,17,GND_17*%
%TO.N,/GND*%
X126950000Y-96480000D03*
%TO.P,U1,18,D15_18*%
%TO.N,/D15*%
X126950000Y-99020000D03*
%TO.P,U1,19,D2_19*%
%TO.N,/TFT_DC*%
X126950000Y-101560000D03*
%TO.P,U1,20,D4_20*%
%TO.N,/TFT_RST*%
X126950000Y-104100000D03*
%TO.P,U1,21,RX2_21*%
%TO.N,/GPS_TX3*%
X126950000Y-106640000D03*
%TO.P,U1,22,TX2_22*%
%TO.N,/GPS_RX3*%
X126950000Y-109180000D03*
%TO.P,U1,23,D5_23*%
%TO.N,/TFT_CS*%
X126950000Y-111720000D03*
%TO.P,U1,24,D18_24*%
%TO.N,/VSPI_CLK*%
X126950000Y-114260000D03*
%TO.P,U1,25,D19_25*%
%TO.N,/TFT_BL*%
X126950000Y-116800000D03*
%TO.P,U1,26,D21_26*%
%TO.N,/I2C_SDA*%
X126950000Y-119340000D03*
%TO.P,U1,27,RX0_27*%
%TO.N,unconnected-(U1-RX0-Pad27)*%
X126950000Y-121880000D03*
%TO.P,U1,28,TX0_28*%
%TO.N,unconnected-(U1-TX0-Pad28)*%
X126950000Y-124420000D03*
%TO.P,U1,29,D22_29*%
%TO.N,/I2C_SCL*%
X126950000Y-126960000D03*
%TO.P,U1,30,D23_30*%
%TO.N,/VSPI_MOSI*%
X126950000Y-129500000D03*
%TD*%
D12*
%TO.P,SW1,1,A_1*%
%TO.N,/5V_IN*%
X163000000Y-109500000D03*
%TO.P,SW1,2,B_2*%
%TO.N,/SW_5V_IN*%
X163000000Y-114500000D03*
%TO.P,SW1,3,C_3*%
%TO.N,unconnected-(SW1-C-Pad3)*%
X163000000Y-119500000D03*
%TD*%
D13*
%TO.P,J10,1,Pin_1_1*%
%TO.N,/GND*%
X160000000Y-125325000D03*
D14*
%TO.P,J10,2,Pin_2_2*%
%TO.N,/VBAT*%
X162000000Y-125325000D03*
%TD*%
D15*
%TO.P,J7,1,Pin_1_1*%
%TO.N,/GND*%
X116500000Y-109380000D03*
D11*
%TO.P,J7,2,Pin_2_2*%
%TO.N,/3V3*%
X116500000Y-111920000D03*
%TO.P,J7,3,Pin_3_3*%
%TO.N,/I2C_SCL*%
X116500000Y-114460000D03*
%TO.P,J7,4,Pin_4_4*%
%TO.N,/I2C_SDA*%
X116500000Y-117000000D03*
%TD*%
D10*
%TO.P,R4,1*%
%TO.N,/3V3*%
X122412500Y-121762500D03*
%TO.P,R4,2*%
%TO.N,/I2C_SCL*%
X122412500Y-123587500D03*
%TD*%
D15*
%TO.P,J8,1,Pin_1_1*%
%TO.N,/3V3*%
X122000000Y-109380000D03*
D11*
%TO.P,J8,2,Pin_2_2*%
%TO.N,/GND*%
X122000000Y-111920000D03*
%TO.P,J8,3,Pin_3_3*%
%TO.N,/WIND_TX*%
X122000000Y-114460000D03*
%TO.P,J8,4,Pin_4_4*%
%TO.N,/WIND_RX*%
X122000000Y-117000000D03*
%TD*%
D15*
%TO.P,J4,1,Pin_1_1*%
%TO.N,/GND*%
X116500000Y-122880000D03*
D11*
%TO.P,J4,2,Pin_2_2*%
%TO.N,/3V3*%
X116500000Y-125420000D03*
%TO.P,J4,3,Pin_3_3*%
%TO.N,/I2C_SCL*%
X116500000Y-127960000D03*
%TO.P,J4,4,Pin_4_4*%
%TO.N,/I2C_SDA*%
X116500000Y-130500000D03*
%TD*%
D10*
%TO.P,R3,1*%
%TO.N,/3V3*%
X122500000Y-126175000D03*
%TO.P,R3,2*%
%TO.N,/I2C_SDA*%
X122500000Y-128000000D03*
%TD*%
D15*
%TO.P,J6,1,Pin_1_1*%
%TO.N,/GND*%
X111500000Y-109690000D03*
D11*
%TO.P,J6,2,Pin_2_2*%
%TO.N,/3V3*%
X111500000Y-112230000D03*
%TO.P,J6,3,Pin_3_3*%
%TO.N,/I2C_SCL*%
X111500000Y-114770000D03*
%TO.P,J6,4,Pin_4_4*%
%TO.N,/I2C_SDA*%
X111500000Y-117310000D03*
%TD*%
D15*
%TO.P,J3,1,Pin_1_1*%
%TO.N,/3V3*%
X122000000Y-81460000D03*
D11*
%TO.P,J3,2,Pin_2_2*%
%TO.N,/GND*%
X122000000Y-84000000D03*
%TO.P,J3,3,Pin_3_3*%
%TO.N,/I2C_SCL*%
X122000000Y-86540000D03*
%TO.P,J3,4,Pin_4_4*%
%TO.N,/I2C_SDA*%
X122000000Y-89080000D03*
%TO.P,J3,5,Pin_5_5*%
%TO.N,unconnected-(J3-Pin_5-Pad5)*%
X122000000Y-91620000D03*
%TO.P,J3,6,Pin_6_6*%
%TO.N,unconnected-(J3-Pin_6-Pad6)*%
X122000000Y-94160000D03*
%TO.P,J3,7,Pin_7_7*%
%TO.N,unconnected-(J3-Pin_7-Pad7)*%
X122000000Y-96700000D03*
%TO.P,J3,8,Pin_8_8*%
%TO.N,unconnected-(J3-Pin_8-Pad8)*%
X122000000Y-99240000D03*
%TO.P,J3,9,Pin_9_9*%
%TO.N,unconnected-(J3-Pin_9-Pad9)*%
X122000000Y-101780000D03*
%TO.P,J3,10,Pin_10_10*%
%TO.N,unconnected-(J3-Pin_10-Pad10)*%
X122000000Y-104320000D03*
%TD*%
D15*
%TO.P,J9,1,Pin_1_1*%
%TO.N,/3V3*%
X158000000Y-81650000D03*
D11*
%TO.P,J9,2,Pin_2_2*%
%TO.N,/GND*%
X158000000Y-84190000D03*
%TO.P,J9,3,Pin_3_3*%
%TO.N,/D26*%
X158000000Y-86730000D03*
%TO.P,J9,4,Pin_4_4*%
%TO.N,/D15*%
X158000000Y-89270000D03*
%TO.P,J9,5,Pin_5_5*%
%TO.N,/VP*%
X158000000Y-91810000D03*
%TO.P,J9,6,Pin_6_6*%
%TO.N,/VN*%
X158000000Y-94350000D03*
%TD*%
D16*
%TO.P,R2,1*%
%TO.N,/VBAT_DIV*%
X157500000Y-112825000D03*
%TO.P,R2,2*%
%TO.N,/GND*%
X157500000Y-111000000D03*
%TD*%
D15*
%TO.P,J5,1,Pin_1_1*%
%TO.N,/GND*%
X163500000Y-95960000D03*
D11*
%TO.P,J5,2,Pin_2_2*%
%TO.N,/SW_5V_IN*%
X163500000Y-98500000D03*
%TO.P,J5,3,Pin_3_3*%
%TO.N,/VBAT*%
X163500000Y-101040000D03*
%TO.P,J5,4,Pin_4_4*%
%TO.N,/GND*%
X163500000Y-103580000D03*
%TD*%
D15*
%TO.P,J1,1,Pin_1_1*%
%TO.N,/3V3*%
X133380000Y-94500000D03*
D11*
%TO.P,J1,2,Pin_2_2*%
%TO.N,/HSPI_CS*%
X135920000Y-94500000D03*
%TO.P,J1,3,Pin_3_3*%
%TO.N,/HSPI_MOSI*%
X138460000Y-94500000D03*
%TO.P,J1,4,Pin_4_4*%
%TO.N,/HSPI_CLK*%
X141000000Y-94500000D03*
%TO.P,J1,5,Pin_5_5*%
%TO.N,/HSPI_MISO*%
X143540000Y-94500000D03*
%TO.P,J1,6,Pin_6_6*%
%TO.N,/GND*%
X146080000Y-94500000D03*
%TD*%
D15*
%TO.P,J2,1,Pin_1_1*%
%TO.N,/GPS_RX3*%
X111000000Y-122920000D03*
D11*
%TO.P,J2,2,Pin_2_2*%
%TO.N,/GPS_TX3*%
X111000000Y-125460000D03*
%TO.P,J2,3,Pin_3_3*%
%TO.N,/3V3*%
X111000000Y-128000000D03*
%TO.P,J2,4,Pin_4_4*%
%TO.N,/GND*%
X111000000Y-130540000D03*
%TD*%
D15*
%TO.P,U2,1,SD_CS_1*%
%TO.N,unconnected-(U2-SD_CS-Pad1)*%
X163500000Y-56980000D03*
D11*
%TO.P,U2,2,CTP_INT_2*%
%TO.N,unconnected-(U2-CTP_INT-Pad2)*%
X163500000Y-59520000D03*
%TO.P,U2,3,CTP_SDA_3*%
%TO.N,unconnected-(U2-CTP_SDA-Pad3)*%
X163500000Y-62060000D03*
%TO.P,U2,4,CTP_RST_4*%
%TO.N,unconnected-(U2-CTP_RST-Pad4)*%
X163500000Y-64600000D03*
%TO.P,U2,5,CTP_SCL_5*%
%TO.N,unconnected-(U2-CTP_SCL-Pad5)*%
X163500000Y-67140000D03*
%TO.P,U2,6,SDO_MISO_6*%
%TO.N,/VSPI_MISO*%
X163500000Y-69680000D03*
%TO.P,U2,7,LED_7*%
%TO.N,/TFT_BL*%
X163500000Y-72220000D03*
%TO.P,U2,8,SCK_8*%
%TO.N,/VSPI_CLK*%
X163500000Y-74760000D03*
%TO.P,U2,9,SDI_MOSI_9*%
%TO.N,/VSPI_MOSI*%
X163500000Y-77300000D03*
%TO.P,U2,10,LCD_RS_10*%
%TO.N,/TFT_DC*%
X163500000Y-79840000D03*
%TO.P,U2,11,LCD_RST_11*%
%TO.N,/TFT_RST*%
X163500000Y-82380000D03*
%TO.P,U2,12,LCD_CS_12*%
%TO.N,/TFT_CS*%
X163500000Y-84920000D03*
%TO.P,U2,13,GND_13*%
%TO.N,/GND*%
X163500000Y-87460000D03*
%TO.P,U2,14,VCC_14*%
%TO.N,/3V3*%
X163500000Y-90000000D03*
%TD*%
D17*
%TO.N,/VBAT_DIV*%
X157883700Y-119990900D03*
%TO.N,/VN*%
X155425500Y-123838200D03*
%TO.N,/GND*%
X120065700Y-108569400D03*
X127580900Y-95789589D03*
%TO.N,/5V_IN*%
X151109100Y-107570300D03*
%TO.N,/3V3*%
X122328200Y-125043900D03*
%TO.N,/TFT_RST*%
X129601400Y-102240600D03*
X129601400Y-90204900D03*
%TO.N,/GPS_TX3*%
X113940700Y-107758900D03*
%TO.N,/TFT_CS*%
X132651100Y-89049600D03*
X132037700Y-108678600D03*
%TO.N,/VSPI_CLK*%
X128022100Y-76441300D03*
%TO.N,/TFT_BL*%
X128828800Y-75617700D03*
%TO.N,/VSPI_MOSI*%
X162334800Y-126792200D03*
%TD*%
%TO.N,/VBAT*%
D18*
X156488300Y-117186700D02*
X156488300Y-123575300D01*
X161098300Y-126003300D02*
X161098300Y-125325000D01*
X163500000Y-101664200D02*
X163500000Y-101040000D01*
X160597800Y-126503800D02*
X161098300Y-126003300D01*
X161735600Y-125325000D02*
X161098300Y-125325000D01*
X159416800Y-126503800D02*
X160597800Y-126503800D01*
X164665800Y-102830000D02*
X163500000Y-101664200D01*
X162000000Y-125325000D02*
X161735600Y-125325000D01*
X161735600Y-112463900D02*
X164665800Y-109533700D01*
X164665800Y-109533700D02*
X164665800Y-102830000D01*
X157500000Y-116175000D02*
X156488300Y-117186700D01*
X161735600Y-125325000D02*
X161735600Y-112463900D01*
X156488300Y-123575300D02*
X159416800Y-126503800D01*
%TO.N,/VBAT_DIV*%
X157883700Y-119990900D02*
X157500000Y-119607200D01*
X158511300Y-113836300D02*
X158511300Y-116988700D01*
X157500000Y-119607200D02*
X157500000Y-118000000D01*
X158511300Y-116988700D02*
X157500000Y-118000000D01*
X157500000Y-112825000D02*
X158511300Y-113836300D01*
%TO.N,/VP*%
X154462500Y-95347500D02*
X154462500Y-124697500D01*
X154462500Y-124697500D02*
X152200000Y-126960000D01*
X158000000Y-91810000D02*
X154462500Y-95347500D01*
%TO.N,/VN*%
X155425500Y-96924500D02*
X158000000Y-94350000D01*
X155425500Y-123838200D02*
X155425500Y-96924500D01*
%TO.N,/HSPI_MISO*%
X143540000Y-94500000D02*
X143540000Y-110680000D01*
X143540000Y-110680000D02*
X152200000Y-119340000D01*
%TO.N,/VSPI_MISO*%
X153389700Y-107079100D02*
X153389700Y-79790300D01*
X151038400Y-110558400D02*
X151038400Y-108642100D01*
X152677100Y-107791700D02*
X153389700Y-107079100D01*
X151038400Y-108642100D02*
X151888800Y-107791700D01*
X151888800Y-107791700D02*
X152677100Y-107791700D01*
X152200000Y-111720000D02*
X151038400Y-110558400D01*
X153389700Y-79790300D02*
X163500000Y-69680000D01*
%TO.N,/D26*%
X152200000Y-109180000D02*
X153791500Y-107588500D01*
X153791500Y-90938500D02*
X158000000Y-86730000D01*
X153791500Y-107588500D02*
X153791500Y-90938500D01*
%TO.N,/GND*%
X124698300Y-108808400D02*
X124698300Y-98731700D01*
X160000000Y-111000000D02*
X157500000Y-111000000D01*
X114946600Y-111797100D02*
X114946600Y-121713300D01*
X120848300Y-110355000D02*
X120848300Y-108569400D01*
X120065700Y-108569400D02*
X120848300Y-108569400D01*
X122000000Y-110531700D02*
X122975000Y-110531700D01*
X160000000Y-107080000D02*
X163500000Y-103580000D01*
X116500000Y-109380000D02*
X116500000Y-110531700D01*
X162348300Y-97975400D02*
X163212000Y-97111700D01*
X116500000Y-123266700D02*
X116500000Y-124031700D01*
X163500000Y-95960000D02*
X163500000Y-97111700D01*
X114946600Y-121713300D02*
X116500000Y-123266700D01*
X122000000Y-110531700D02*
X121025000Y-110531700D01*
X122000000Y-110531700D02*
X122000000Y-111920000D01*
X163500000Y-95960000D02*
X163500000Y-94808300D01*
X163212000Y-97111700D02*
X163500000Y-97111700D01*
X123600200Y-85600200D02*
X122000000Y-84000000D01*
X116500000Y-110531700D02*
X116212000Y-110531700D01*
X164651700Y-88611700D02*
X164651700Y-93656600D01*
X163500000Y-103580000D02*
X162348300Y-102428300D01*
X116500000Y-122880000D02*
X116500000Y-123266700D01*
X121025000Y-110531700D02*
X120848300Y-110355000D01*
X160000000Y-111000000D02*
X160000000Y-107080000D01*
X116212000Y-124031700D02*
X116500000Y-124031700D01*
X120848300Y-108405000D02*
X123600200Y-105653100D01*
X164651700Y-93656600D02*
X163500000Y-94808300D01*
X123600200Y-105653100D02*
X123600200Y-85600200D01*
X115348300Y-124895400D02*
X116212000Y-124031700D01*
X163500000Y-87460000D02*
X164651700Y-88611700D01*
X160000000Y-125325000D02*
X160000000Y-111000000D01*
X162348300Y-102428300D02*
X162348300Y-97975400D01*
X111000000Y-130540000D02*
X115348300Y-126191700D01*
X122975000Y-110531700D02*
X124698300Y-108808400D01*
X115348300Y-126191700D02*
X115348300Y-124895400D01*
X124698300Y-98731700D02*
X126950000Y-96480000D01*
X116212000Y-110531700D02*
X114946600Y-111797100D01*
X120848300Y-108569400D02*
X120848300Y-108405000D01*
%TO.N,/5V_IN*%
X151048300Y-107509500D02*
X151109100Y-107570300D01*
X151048300Y-95091700D02*
X151048300Y-107509500D01*
X152200000Y-93940000D02*
X151048300Y-95091700D01*
%TO.N,/3V3*%
X111000000Y-128000000D02*
X109805600Y-126805600D01*
X123458000Y-122808000D02*
X123458000Y-125217000D01*
X124155200Y-96734800D02*
X124155200Y-106073100D01*
X159151700Y-85651700D02*
X159151700Y-83665400D01*
X158288000Y-82801700D02*
X158000000Y-82801700D01*
X122000000Y-81460000D02*
X122000000Y-82611700D01*
X124155200Y-106073100D02*
X122000000Y-108228300D01*
X122000000Y-82611700D02*
X122287900Y-82611700D01*
X158000000Y-81650000D02*
X158000000Y-82801700D01*
X122287900Y-82611700D02*
X126950000Y-87273800D01*
X126950000Y-93940000D02*
X124155200Y-96734800D01*
X159151700Y-83665400D02*
X158288000Y-82801700D01*
X122328200Y-125043900D02*
X122500000Y-125215700D01*
X109805600Y-126805600D02*
X109805600Y-113924400D01*
X163500000Y-90000000D02*
X159151700Y-85651700D01*
X123458000Y-125217000D02*
X122500000Y-126175000D01*
X122500000Y-125215700D02*
X122500000Y-126175000D01*
X126950000Y-87273800D02*
X126950000Y-93940000D01*
X122000000Y-109380000D02*
X122000000Y-108228300D01*
X109805600Y-113924400D02*
X111500000Y-112230000D01*
X122412500Y-121762500D02*
X123458000Y-122808000D01*
%TO.N,/TFT_RST*%
X129601400Y-90204900D02*
X129601400Y-102240600D01*
%TO.N,/GPS_TX3*%
X111000000Y-125460000D02*
X113940600Y-122519400D01*
X113940600Y-107758900D02*
X113940700Y-107758900D01*
X113940600Y-122519400D02*
X113940600Y-107758900D01*
%TO.N,/TFT_CS*%
X132037700Y-89663000D02*
X132037700Y-108678600D01*
X132651100Y-89049600D02*
X132651100Y-89049500D01*
X132651100Y-89049500D02*
X132651100Y-89049600D01*
X132651100Y-89049600D02*
X132037700Y-89663000D01*
%TO.N,/VSPI_CLK*%
X128180900Y-76600100D02*
X128180900Y-113029100D01*
X128022100Y-76441300D02*
X128180900Y-76600100D01*
X128180900Y-113029100D02*
X126950000Y-114260000D01*
%TO.N,/TFT_BL*%
X128828800Y-114921200D02*
X128828800Y-75617700D01*
X126950000Y-116800000D02*
X128828800Y-114921200D01*
%TO.N,/I2C_SDA*%
X117678200Y-118178200D02*
X117678200Y-125916200D01*
X121388300Y-129111700D02*
X122500000Y-128000000D01*
X122000000Y-89080000D02*
X118222100Y-92857900D01*
X116023000Y-126808300D02*
X115348300Y-127483000D01*
X118222100Y-111830400D02*
X116862500Y-113190000D01*
X118222100Y-92857900D02*
X118222100Y-111830400D01*
X116500000Y-117000000D02*
X117678200Y-118178200D01*
X115348300Y-128437000D02*
X116023000Y-129111700D01*
X115348300Y-115848300D02*
X116500000Y-117000000D01*
X117678200Y-125916200D02*
X116786100Y-126808300D01*
X116500000Y-129111700D02*
X116500000Y-130500000D01*
X116786100Y-126808300D02*
X116023000Y-126808300D01*
X116023000Y-129111700D02*
X116500000Y-129111700D01*
X116862500Y-113190000D02*
X116105300Y-113190000D01*
X115348300Y-113947000D02*
X115348300Y-115848300D01*
X116500000Y-129111700D02*
X121388300Y-129111700D01*
X116105300Y-113190000D02*
X115348300Y-113947000D01*
X115348300Y-127483000D02*
X115348300Y-128437000D01*
%TO.N,/I2C_SCL*%
X121405200Y-122580200D02*
X121405200Y-120919600D01*
X122257700Y-90468300D02*
X121464700Y-90468300D01*
X125560200Y-125570200D02*
X126950000Y-126960000D01*
X125560200Y-123384300D02*
X125560200Y-125570200D01*
X121405200Y-120919600D02*
X123095500Y-120919600D01*
X122000000Y-86540000D02*
X123198500Y-87738500D01*
X123198500Y-89527500D02*
X122257700Y-90468300D01*
X123095500Y-120919600D02*
X125560200Y-123384300D01*
X123198500Y-87738500D02*
X123198500Y-89527500D01*
X118881400Y-93051600D02*
X118881400Y-112078600D01*
X121405200Y-119365200D02*
X116500000Y-114460000D01*
X121464700Y-90468300D02*
X118881400Y-93051600D01*
X121405200Y-120919600D02*
X121405200Y-119365200D01*
X118881400Y-112078600D02*
X116500000Y-114460000D01*
X122412500Y-123587500D02*
X121405200Y-122580200D01*
%TO.N,/VSPI_MOSI*%
X165117500Y-99923500D02*
X164882100Y-99688100D01*
X165233800Y-102061800D02*
X165117500Y-101945500D01*
X165067300Y-78867300D02*
X163500000Y-77300000D01*
X165117500Y-101945500D02*
X165117500Y-99923500D01*
X165469200Y-123657800D02*
X165469200Y-102297200D01*
X164882100Y-99688100D02*
X164715800Y-99521800D01*
X165233800Y-102061800D02*
X165117500Y-101945500D01*
X162334800Y-126792200D02*
X165469200Y-123657800D01*
X165469200Y-102297200D02*
X165233800Y-102061800D01*
X165067300Y-99170300D02*
X165067300Y-78867300D01*
X164715800Y-99521800D02*
X165067300Y-99170300D01*
X164882100Y-99688100D02*
X164715800Y-99521800D01*
%TO.N,/SW_5V_IN*%
X163500000Y-99074200D02*
X163500000Y-98500000D01*
X165067500Y-112432500D02*
X165067500Y-102463500D01*
X164832100Y-102228100D02*
X164665800Y-102061800D01*
X165067500Y-102463500D02*
X164832100Y-102228100D01*
X164832100Y-102228100D02*
X164665800Y-102061800D01*
X164665800Y-102061800D02*
X164665800Y-100240000D01*
X164665800Y-100240000D02*
X163500000Y-99074200D01*
X163000000Y-114500000D02*
X165067500Y-112432500D01*
%TD*%
M02*
