%TF.GenerationSoftware,KiCad,Pcbnew,10.0.0*%
%TF.CreationDate,2026-04-12T14:35:19-04:00*%
%TF.ProjectId,kicad_sailframes-e1,6b696361-645f-4736-9169-6c6672616d65,rev?*%
%TF.SameCoordinates,Original*%
%TF.FileFunction,Copper,L2,Bot*%
%TF.FilePolarity,Positive*%
%FSLAX46Y46*%
G04 Gerber Fmt 4.6, Leading zero omitted, Abs format (unit mm)*
G04 Created by KiCad (PCBNEW 10.0.0) date 2026-04-12 14:35:19*
%MOMM*%
%LPD*%
G01*
G04 APERTURE LIST*
G04 Aperture macros list*
%AMRoundRect*
0 Rectangle with rounded corners*
0 $1 Rounding radius*
0 $2 $3 $4 $5 $6 $7 $8 $9 X,Y pos of 4 corners*
0 Add a 4 corners polygon primitive as box body*
4,1,4,$2,$3,$4,$5,$6,$7,$8,$9,$2,$3,0*
0 Add four circle primitives for the rounded corners*
1,1,$1+$1,$2,$3*
1,1,$1+$1,$4,$5*
1,1,$1+$1,$6,$7*
1,1,$1+$1,$8,$9*
0 Add four rect primitives between the rounded corners*
20,1,$1+$1,$2,$3,$4,$5,0*
20,1,$1+$1,$4,$5,$6,$7,0*
20,1,$1+$1,$6,$7,$8,$9,0*
20,1,$1+$1,$8,$9,$2,$3,0*%
G04 Aperture macros list end*
%TA.AperFunction,ComponentPad*%
%ADD10C,1.700000*%
%TD*%
%TA.AperFunction,ComponentPad*%
%ADD11C,1.800000*%
%TD*%
%TA.AperFunction,ComponentPad*%
%ADD12RoundRect,0.250000X-0.350000X-0.625000X0.350000X-0.625000X0.350000X0.625000X-0.350000X0.625000X0*%
%TD*%
%TA.AperFunction,ComponentPad*%
%ADD13O,1.200000X1.750000*%
%TD*%
%TA.AperFunction,ComponentPad*%
%ADD14R,1.700000X1.700000*%
%TD*%
%TA.AperFunction,ViaPad*%
%ADD15C,0.600000*%
%TD*%
%TA.AperFunction,Conductor*%
%ADD16C,0.200000*%
%TD*%
G04 APERTURE END LIST*
D10*
%TO.P,U1,1,EN_1*%
%TO.N,unconnected-(U1-EN-Pad1)*%
X152200000Y-129500000D03*
%TO.P,U1,2,VP_2*%
%TO.N,/VP*%
X152200000Y-126960000D03*
%TO.P,U1,3,VN_3*%
%TO.N,/VN*%
X152200000Y-124420000D03*
%TO.P,U1,4,D34_4*%
%TO.N,/VBAT_DIV*%
X152200000Y-121880000D03*
%TO.P,U1,5,D35_5*%
%TO.N,/HSPI_MISO*%
X152200000Y-119340000D03*
%TO.P,U1,6,D32_6*%
%TO.N,/WIND_TX*%
X152200000Y-116800000D03*
%TO.P,U1,7,D33_7*%
%TO.N,/WIND_RX*%
X152200000Y-114260000D03*
%TO.P,U1,8,D25_8*%
%TO.N,/VSPI_MISO*%
X152200000Y-111720000D03*
%TO.P,U1,9,D26_9*%
%TO.N,/D26*%
X152200000Y-109180000D03*
%TO.P,U1,10,D27_10*%
%TO.N,/HSPI_CS*%
X152200000Y-106640000D03*
%TO.P,U1,11,D14_11*%
%TO.N,/HSPI_CLK*%
X152200000Y-104100000D03*
%TO.P,U1,12,D12_12*%
%TO.N,unconnected-(U1-D12-Pad12)*%
X152200000Y-101560000D03*
%TO.P,U1,13,D13_13*%
%TO.N,/HSPI_MOSI*%
X152200000Y-99020000D03*
%TO.P,U1,14,GND_14*%
%TO.N,/GND*%
X152200000Y-96480000D03*
%TO.P,U1,15,VIN_15*%
%TO.N,/5V_IN*%
X152200000Y-93940000D03*
%TO.P,U1,16,3V3_16*%
%TO.N,/3V3*%
X126950000Y-93940000D03*
%TO.P,U1,17,GND_17*%
%TO.N,/GND*%
X126950000Y-96480000D03*
%TO.P,U1,18,D15_18*%
%TO.N,/D15*%
X126950000Y-99020000D03*
%TO.P,U1,19,D2_19*%
%TO.N,/TFT_DC*%
X126950000Y-101560000D03*
%TO.P,U1,20,D4_20*%
%TO.N,/TFT_RST*%
X126950000Y-104100000D03*
%TO.P,U1,21,RX2_21*%
%TO.N,/GPS_TX3*%
X126950000Y-106640000D03*
%TO.P,U1,22,TX2_22*%
%TO.N,/GPS_RX3*%
X126950000Y-109180000D03*
%TO.P,U1,23,D5_23*%
%TO.N,/TFT_CS*%
X126950000Y-111720000D03*
%TO.P,U1,24,D18_24*%
%TO.N,/VSPI_CLK*%
X126950000Y-114260000D03*
%TO.P,U1,25,D19_25*%
%TO.N,/TFT_BL*%
X126950000Y-116800000D03*
%TO.P,U1,26,D21_26*%
%TO.N,/I2C_SDA*%
X126950000Y-119340000D03*
%TO.P,U1,27,RX0_27*%
%TO.N,unconnected-(U1-RX0-Pad27)*%
X126950000Y-121880000D03*
%TO.P,U1,28,TX0_28*%
%TO.N,unconnected-(U1-TX0-Pad28)*%
X126950000Y-124420000D03*
%TO.P,U1,29,D22_29*%
%TO.N,/I2C_SCL*%
X126950000Y-126960000D03*
%TO.P,U1,30,D23_30*%
%TO.N,/VSPI_MOSI*%
X126950000Y-129500000D03*
%TD*%
D11*
%TO.P,SW1,1,A_1*%
%TO.N,/5V_IN*%
X163000000Y-109500000D03*
%TO.P,SW1,2,B_2*%
%TO.N,/SW_5V_IN*%
X163000000Y-114500000D03*
%TO.P,SW1,3,C_3*%
%TO.N,unconnected-(SW1-C-Pad3)*%
X163000000Y-119500000D03*
%TD*%
D12*
%TO.P,J10,1,Pin_1_1*%
%TO.N,/GND*%
X160000000Y-125325000D03*
D13*
%TO.P,J10,2,Pin_2_2*%
%TO.N,/VBAT*%
X162000000Y-125325000D03*
%TD*%
D14*
%TO.P,J7,1,Pin_1_1*%
%TO.N,/GND*%
X116500000Y-109380000D03*
D10*
%TO.P,J7,2,Pin_2_2*%
%TO.N,/3V3*%
X116500000Y-111920000D03*
%TO.P,J7,3,Pin_3_3*%
%TO.N,/I2C_SCL*%
X116500000Y-114460000D03*
%TO.P,J7,4,Pin_4_4*%
%TO.N,/I2C_SDA*%
X116500000Y-117000000D03*
%TD*%
D14*
%TO.P,J8,1,Pin_1_1*%
%TO.N,/3V3*%
X122000000Y-109380000D03*
D10*
%TO.P,J8,2,Pin_2_2*%
%TO.N,/GND*%
X122000000Y-111920000D03*
%TO.P,J8,3,Pin_3_3*%
%TO.N,/WIND_TX*%
X122000000Y-114460000D03*
%TO.P,J8,4,Pin_4_4*%
%TO.N,/WIND_RX*%
X122000000Y-117000000D03*
%TD*%
D14*
%TO.P,J4,1,Pin_1_1*%
%TO.N,/GND*%
X116500000Y-122880000D03*
D10*
%TO.P,J4,2,Pin_2_2*%
%TO.N,/3V3*%
X116500000Y-125420000D03*
%TO.P,J4,3,Pin_3_3*%
%TO.N,/I2C_SCL*%
X116500000Y-127960000D03*
%TO.P,J4,4,Pin_4_4*%
%TO.N,/I2C_SDA*%
X116500000Y-130500000D03*
%TD*%
D14*
%TO.P,J6,1,Pin_1_1*%
%TO.N,/GND*%
X111500000Y-109690000D03*
D10*
%TO.P,J6,2,Pin_2_2*%
%TO.N,/3V3*%
X111500000Y-112230000D03*
%TO.P,J6,3,Pin_3_3*%
%TO.N,/I2C_SCL*%
X111500000Y-114770000D03*
%TO.P,J6,4,Pin_4_4*%
%TO.N,/I2C_SDA*%
X111500000Y-117310000D03*
%TD*%
D14*
%TO.P,J3,1,Pin_1_1*%
%TO.N,/3V3*%
X122000000Y-81460000D03*
D10*
%TO.P,J3,2,Pin_2_2*%
%TO.N,/GND*%
X122000000Y-84000000D03*
%TO.P,J3,3,Pin_3_3*%
%TO.N,/I2C_SCL*%
X122000000Y-86540000D03*
%TO.P,J3,4,Pin_4_4*%
%TO.N,/I2C_SDA*%
X122000000Y-89080000D03*
%TO.P,J3,5,Pin_5_5*%
%TO.N,unconnected-(J3-Pin_5-Pad5)*%
X122000000Y-91620000D03*
%TO.P,J3,6,Pin_6_6*%
%TO.N,unconnected-(J3-Pin_6-Pad6)*%
X122000000Y-94160000D03*
%TO.P,J3,7,Pin_7_7*%
%TO.N,unconnected-(J3-Pin_7-Pad7)*%
X122000000Y-96700000D03*
%TO.P,J3,8,Pin_8_8*%
%TO.N,unconnected-(J3-Pin_8-Pad8)*%
X122000000Y-99240000D03*
%TO.P,J3,9,Pin_9_9*%
%TO.N,unconnected-(J3-Pin_9-Pad9)*%
X122000000Y-101780000D03*
%TO.P,J3,10,Pin_10_10*%
%TO.N,unconnected-(J3-Pin_10-Pad10)*%
X122000000Y-104320000D03*
%TD*%
D14*
%TO.P,J9,1,Pin_1_1*%
%TO.N,/3V3*%
X158000000Y-81650000D03*
D10*
%TO.P,J9,2,Pin_2_2*%
%TO.N,/GND*%
X158000000Y-84190000D03*
%TO.P,J9,3,Pin_3_3*%
%TO.N,/D26*%
X158000000Y-86730000D03*
%TO.P,J9,4,Pin_4_4*%
%TO.N,/D15*%
X158000000Y-89270000D03*
%TO.P,J9,5,Pin_5_5*%
%TO.N,/VP*%
X158000000Y-91810000D03*
%TO.P,J9,6,Pin_6_6*%
%TO.N,/VN*%
X158000000Y-94350000D03*
%TD*%
D14*
%TO.P,J5,1,Pin_1_1*%
%TO.N,/GND*%
X163500000Y-95960000D03*
D10*
%TO.P,J5,2,Pin_2_2*%
%TO.N,/SW_5V_IN*%
X163500000Y-98500000D03*
%TO.P,J5,3,Pin_3_3*%
%TO.N,/VBAT*%
X163500000Y-101040000D03*
%TO.P,J5,4,Pin_4_4*%
%TO.N,/GND*%
X163500000Y-103580000D03*
%TD*%
D14*
%TO.P,J1,1,Pin_1_1*%
%TO.N,/3V3*%
X133380000Y-94500000D03*
D10*
%TO.P,J1,2,Pin_2_2*%
%TO.N,/HSPI_CS*%
X135920000Y-94500000D03*
%TO.P,J1,3,Pin_3_3*%
%TO.N,/HSPI_MOSI*%
X138460000Y-94500000D03*
%TO.P,J1,4,Pin_4_4*%
%TO.N,/HSPI_CLK*%
X141000000Y-94500000D03*
%TO.P,J1,5,Pin_5_5*%
%TO.N,/HSPI_MISO*%
X143540000Y-94500000D03*
%TO.P,J1,6,Pin_6_6*%
%TO.N,/GND*%
X146080000Y-94500000D03*
%TD*%
D14*
%TO.P,J2,1,Pin_1_1*%
%TO.N,/GPS_RX3*%
X111000000Y-122920000D03*
D10*
%TO.P,J2,2,Pin_2_2*%
%TO.N,/GPS_TX3*%
X111000000Y-125460000D03*
%TO.P,J2,3,Pin_3_3*%
%TO.N,/3V3*%
X111000000Y-128000000D03*
%TO.P,J2,4,Pin_4_4*%
%TO.N,/GND*%
X111000000Y-130540000D03*
%TD*%
D14*
%TO.P,U2,1,SD_CS_1*%
%TO.N,unconnected-(U2-SD_CS-Pad1)*%
X163500000Y-56980000D03*
D10*
%TO.P,U2,2,CTP_INT_2*%
%TO.N,unconnected-(U2-CTP_INT-Pad2)*%
X163500000Y-59520000D03*
%TO.P,U2,3,CTP_SDA_3*%
%TO.N,unconnected-(U2-CTP_SDA-Pad3)*%
X163500000Y-62060000D03*
%TO.P,U2,4,CTP_RST_4*%
%TO.N,unconnected-(U2-CTP_RST-Pad4)*%
X163500000Y-64600000D03*
%TO.P,U2,5,CTP_SCL_5*%
%TO.N,unconnected-(U2-CTP_SCL-Pad5)*%
X163500000Y-67140000D03*
%TO.P,U2,6,SDO_MISO_6*%
%TO.N,/VSPI_MISO*%
X163500000Y-69680000D03*
%TO.P,U2,7,LED_7*%
%TO.N,/TFT_BL*%
X163500000Y-72220000D03*
%TO.P,U2,8,SCK_8*%
%TO.N,/VSPI_CLK*%
X163500000Y-74760000D03*
%TO.P,U2,9,SDI_MOSI_9*%
%TO.N,/VSPI_MOSI*%
X163500000Y-77300000D03*
%TO.P,U2,10,LCD_RS_10*%
%TO.N,/TFT_DC*%
X163500000Y-79840000D03*
%TO.P,U2,11,LCD_RST_11*%
%TO.N,/TFT_RST*%
X163500000Y-82380000D03*
%TO.P,U2,12,LCD_CS_12*%
%TO.N,/TFT_CS*%
X163500000Y-84920000D03*
%TO.P,U2,13,GND_13*%
%TO.N,/GND*%
X163500000Y-87460000D03*
%TO.P,U2,14,VCC_14*%
%TO.N,/3V3*%
X163500000Y-90000000D03*
%TD*%
D15*
%TO.N,/VBAT_DIV*%
X157883700Y-119990900D03*
%TO.N,/VN*%
X155425500Y-123838200D03*
%TO.N,/GND*%
X120065700Y-108569400D03*
X127580900Y-95789589D03*
%TO.N,/5V_IN*%
X151109100Y-107570300D03*
%TO.N,/3V3*%
X122328200Y-125043900D03*
%TO.N,/TFT_RST*%
X129601400Y-102240600D03*
X129601400Y-90204900D03*
%TO.N,/GPS_TX3*%
X113940700Y-107758900D03*
%TO.N,/TFT_CS*%
X132651100Y-89049600D03*
X132037700Y-108678600D03*
%TO.N,/VSPI_CLK*%
X128022100Y-76441300D03*
%TO.N,/TFT_BL*%
X128828800Y-75617700D03*
%TO.N,/VSPI_MOSI*%
X162334800Y-126792200D03*
%TD*%
%TO.N,/VBAT_DIV*%
D16*
X152200000Y-121880000D02*
X154089100Y-119990900D01*
X154089100Y-119990900D02*
X157883700Y-119990900D01*
%TO.N,/VN*%
X152200000Y-124420000D02*
X154843700Y-124420000D01*
X154843700Y-124420000D02*
X155425500Y-123838200D01*
%TO.N,/WIND_TX*%
X123070000Y-115530000D02*
X122000000Y-114460000D01*
X152200000Y-116800000D02*
X150930000Y-115530000D01*
X150930000Y-115530000D02*
X123070000Y-115530000D01*
%TO.N,/WIND_RX*%
X153394200Y-115454200D02*
X153394200Y-117281500D01*
X153394200Y-117281500D02*
X152704300Y-117971400D01*
X122971400Y-117971400D02*
X122000000Y-117000000D01*
X152704300Y-117971400D02*
X122971400Y-117971400D01*
X152200000Y-114260000D02*
X153394200Y-115454200D01*
%TO.N,/HSPI_CS*%
X148060000Y-106640000D02*
X135920000Y-94500000D01*
X152200000Y-106640000D02*
X148060000Y-106640000D01*
%TO.N,/HSPI_CLK*%
X141000000Y-94500000D02*
X150600000Y-104100000D01*
X150600000Y-104100000D02*
X152200000Y-104100000D01*
%TO.N,/HSPI_MOSI*%
X139659000Y-93301000D02*
X141475400Y-93301000D01*
X146376500Y-99020000D02*
X152200000Y-99020000D01*
X138460000Y-94500000D02*
X139659000Y-93301000D01*
X141475400Y-93301000D02*
X142388300Y-94213900D01*
X142388300Y-95031800D02*
X146376500Y-99020000D01*
X142388300Y-94213900D02*
X142388300Y-95031800D01*
%TO.N,/GND*%
X127020000Y-96480000D02*
X127500000Y-96000000D01*
X126980000Y-96480000D02*
X126950000Y-96480000D01*
X116500000Y-109380000D02*
X119255100Y-109380000D01*
X126950000Y-96480000D02*
X126950000Y-96420489D01*
X152798300Y-95960000D02*
X163500000Y-95960000D01*
X160000000Y-125325000D02*
X157825000Y-123150000D01*
X115038300Y-109690000D02*
X115348300Y-109380000D01*
X126950000Y-96420489D02*
X127580900Y-95789589D01*
X152798300Y-95960000D02*
X152720000Y-95960000D01*
X119255100Y-109380000D02*
X120065700Y-108569400D01*
X115924200Y-109380000D02*
X115348300Y-109380000D01*
X117921700Y-123150000D02*
X117651700Y-122880000D01*
X157825000Y-123150000D02*
X117921700Y-123150000D01*
X111500000Y-109690000D02*
X115038300Y-109690000D01*
X116500000Y-122880000D02*
X117651700Y-122880000D01*
X115924200Y-109380000D02*
X116500000Y-109380000D01*
X160230000Y-84190000D02*
X158000000Y-84190000D01*
X127020000Y-96480000D02*
X126950000Y-96480000D01*
X126980000Y-96480000D02*
X127000000Y-96500000D01*
X152720000Y-95960000D02*
X152200000Y-96480000D01*
X152798300Y-95960000D02*
X147540000Y-95960000D01*
X147540000Y-95960000D02*
X146080000Y-94500000D01*
X163500000Y-87460000D02*
X160230000Y-84190000D01*
%TO.N,/5V_IN*%
X151448800Y-107910000D02*
X161410000Y-107910000D01*
X161410000Y-107910000D02*
X163000000Y-109500000D01*
X151109100Y-107570300D02*
X151448800Y-107910000D01*
%TO.N,/3V3*%
X131668300Y-93940000D02*
X132228300Y-94500000D01*
X120848300Y-109380000D02*
X118308300Y-111920000D01*
X116500000Y-111920000D02*
X111810000Y-111920000D01*
X163073900Y-90426100D02*
X163500000Y-90000000D01*
X116500000Y-125420000D02*
X121952100Y-125420000D01*
X138317700Y-90426100D02*
X163073900Y-90426100D01*
X126950000Y-93940000D02*
X131668300Y-93940000D01*
X118308300Y-111920000D02*
X116500000Y-111920000D01*
X122000000Y-109380000D02*
X120848300Y-109380000D01*
X133380000Y-94500000D02*
X134531700Y-94500000D01*
X111810000Y-111920000D02*
X111500000Y-112230000D01*
X134531700Y-94500000D02*
X134531700Y-94212100D01*
X113580000Y-125420000D02*
X116500000Y-125420000D01*
X133380000Y-94500000D02*
X132228300Y-94500000D01*
X121952100Y-125420000D02*
X122328200Y-125043900D01*
X134531700Y-94212100D02*
X138317700Y-90426100D01*
X111000000Y-128000000D02*
X113580000Y-125420000D01*
%TO.N,/D15*%
X130099600Y-92452000D02*
X133281500Y-89270100D01*
X125733900Y-93485400D02*
X126767300Y-92452000D01*
X126767300Y-92452000D02*
X130099600Y-92452000D01*
X125733900Y-96918600D02*
X125733900Y-93485400D01*
X126950000Y-98134700D02*
X125733900Y-96918600D01*
X133281500Y-89270100D02*
X133281500Y-89270000D01*
X133281500Y-89270000D02*
X158000000Y-89270000D01*
X126950000Y-99020000D02*
X126950000Y-98134700D01*
%TO.N,/TFT_DC*%
X125567600Y-97320300D02*
X125732400Y-97485100D01*
X125332200Y-97084900D02*
X125567600Y-97320300D01*
X125332200Y-93319100D02*
X125332200Y-97084900D01*
X125732400Y-97485100D02*
X125732400Y-100342400D01*
X138811300Y-79840000D02*
X125332200Y-93319100D01*
X163500000Y-79840000D02*
X138811300Y-79840000D01*
X125732400Y-100342400D02*
X126950000Y-101560000D01*
X125567600Y-97320300D02*
X125732400Y-97485100D01*
%TO.N,/TFT_RST*%
X126950000Y-104100000D02*
X127742000Y-104100000D01*
X127742000Y-104100000D02*
X129601400Y-102240600D01*
X161618300Y-80498300D02*
X163500000Y-82380000D01*
X139308000Y-80498300D02*
X161618300Y-80498300D01*
X129601400Y-90204900D02*
X139308000Y-80498300D01*
%TO.N,/GPS_TX3*%
X113940700Y-107758900D02*
X125831100Y-107758900D01*
X125831100Y-107758900D02*
X126950000Y-106640000D01*
%TO.N,/GPS_RX3*%
X111107400Y-116040000D02*
X110333600Y-116813800D01*
X110333600Y-116813800D02*
X110333600Y-121101900D01*
X123058300Y-113071700D02*
X120702000Y-113071700D01*
X118008500Y-115765200D02*
X112404800Y-115765200D01*
X110333600Y-121101900D02*
X111000000Y-121768300D01*
X112130000Y-116040000D02*
X111107400Y-116040000D01*
X120702000Y-113071700D02*
X118008500Y-115765200D01*
X126950000Y-109180000D02*
X123058300Y-113071700D01*
X112404800Y-115765200D02*
X112130000Y-116040000D01*
X111000000Y-122920000D02*
X111000000Y-121768300D01*
%TO.N,/TFT_CS*%
X138679700Y-83021000D02*
X132651100Y-89049600D01*
X127555100Y-111114900D02*
X129601400Y-111114900D01*
X126950000Y-111720000D02*
X127555100Y-111114900D01*
X161601000Y-83021000D02*
X138679700Y-83021000D01*
X163500000Y-84920000D02*
X161601000Y-83021000D01*
X129601400Y-111114900D02*
X132037700Y-108678600D01*
%TO.N,/VSPI_CLK*%
X163500000Y-74760000D02*
X161818700Y-76441300D01*
X161818700Y-76441300D02*
X128022100Y-76441300D01*
%TO.N,/TFT_BL*%
X159879500Y-72220000D02*
X156648100Y-75451400D01*
X163500000Y-72220000D02*
X159879500Y-72220000D01*
X156648100Y-75451400D02*
X156481800Y-75617700D01*
X156648100Y-75451400D02*
X156481800Y-75617700D01*
X156481800Y-75617700D02*
X128828800Y-75617700D01*
%TO.N,/I2C_SDA*%
X118840000Y-119340000D02*
X126950000Y-119340000D01*
X116500000Y-117000000D02*
X118840000Y-119340000D01*
X116190000Y-117310000D02*
X116500000Y-117000000D01*
X111500000Y-117310000D02*
X116190000Y-117310000D01*
%TO.N,/I2C_SCL*%
X116500000Y-127960000D02*
X125950000Y-127960000D01*
X125950000Y-127960000D02*
X126950000Y-126960000D01*
X116190000Y-114770000D02*
X116500000Y-114460000D01*
X111500000Y-114770000D02*
X116190000Y-114770000D01*
%TO.N,/VSPI_MOSI*%
X162334800Y-126792200D02*
X160957000Y-128170000D01*
X128280000Y-128170000D02*
X126950000Y-129500000D01*
X160957000Y-128170000D02*
X128280000Y-128170000D01*
%TD*%
%TA.AperFunction,Conductor*%
%TO.N,/GND*%
G36*
X150940354Y-118591585D02*
G01*
X150986109Y-118644389D01*
X150996053Y-118713547D01*
X150983800Y-118752194D01*
X150948445Y-118821582D01*
X150882753Y-119023760D01*
X150849500Y-119233713D01*
X150849500Y-119446286D01*
X150877359Y-119622184D01*
X150882754Y-119656243D01*
X150936132Y-119820524D01*
X150948444Y-119858414D01*
X151044951Y-120047820D01*
X151169890Y-120219786D01*
X151320213Y-120370109D01*
X151492182Y-120495050D01*
X151500946Y-120499516D01*
X151551742Y-120547491D01*
X151568536Y-120615312D01*
X151545998Y-120681447D01*
X151500946Y-120720484D01*
X151492182Y-120724949D01*
X151320213Y-120849890D01*
X151169890Y-121000213D01*
X151044951Y-121172179D01*
X150948444Y-121361585D01*
X150882753Y-121563760D01*
X150849500Y-121773713D01*
X150849500Y-121986286D01*
X150882753Y-122196239D01*
X150948444Y-122398414D01*
X151044951Y-122587820D01*
X151169890Y-122759786D01*
X151320213Y-122910109D01*
X151492182Y-123035050D01*
X151500946Y-123039516D01*
X151551742Y-123087491D01*
X151568536Y-123155312D01*
X151545998Y-123221447D01*
X151500946Y-123260484D01*
X151492182Y-123264949D01*
X151320213Y-123389890D01*
X151169890Y-123540213D01*
X151044951Y-123712179D01*
X150948444Y-123901585D01*
X150882753Y-124103760D01*
X150856344Y-124270499D01*
X150849500Y-124313713D01*
X150849500Y-124526287D01*
X150852830Y-124547309D01*
X150878943Y-124712185D01*
X150882754Y-124736243D01*
X150932505Y-124889361D01*
X150948444Y-124938414D01*
X151044951Y-125127820D01*
X151169890Y-125299786D01*
X151320213Y-125450109D01*
X151492182Y-125575050D01*
X151500946Y-125579516D01*
X151551742Y-125627491D01*
X151568536Y-125695312D01*
X151545998Y-125761447D01*
X151500946Y-125800484D01*
X151492182Y-125804949D01*
X151320213Y-125929890D01*
X151169890Y-126080213D01*
X151044951Y-126252179D01*
X150948444Y-126441585D01*
X150948443Y-126441587D01*
X150948443Y-126441588D01*
X150916068Y-126541229D01*
X150882753Y-126643760D01*
X150849500Y-126853713D01*
X150849500Y-127066286D01*
X150882753Y-127276240D01*
X150925299Y-127407182D01*
X150927294Y-127477023D01*
X150891214Y-127536856D01*
X150828513Y-127567684D01*
X150807368Y-127569500D01*
X128366664Y-127569500D01*
X128359059Y-127569499D01*
X128359057Y-127569499D01*
X128342627Y-127569499D01*
X128293414Y-127555047D01*
X128275593Y-127549814D01*
X128275592Y-127549813D01*
X128275588Y-127549812D01*
X128235546Y-127503598D01*
X128229838Y-127497010D01*
X128229837Y-127497009D01*
X128229835Y-127497006D01*
X128224018Y-127456535D01*
X128219894Y-127427852D01*
X128224701Y-127407181D01*
X128267246Y-127276243D01*
X128300500Y-127066287D01*
X128300500Y-126853713D01*
X128267246Y-126643757D01*
X128201557Y-126441588D01*
X128105051Y-126252184D01*
X128105049Y-126252181D01*
X128105048Y-126252179D01*
X127980109Y-126080213D01*
X127829786Y-125929890D01*
X127657820Y-125804951D01*
X127657115Y-125804591D01*
X127649054Y-125800485D01*
X127598259Y-125752512D01*
X127581463Y-125684692D01*
X127603999Y-125618556D01*
X127649054Y-125579515D01*
X127657816Y-125575051D01*
X127747699Y-125509748D01*
X127829786Y-125450109D01*
X127829788Y-125450106D01*
X127829792Y-125450104D01*
X127980104Y-125299792D01*
X127980106Y-125299788D01*
X127980109Y-125299786D01*
X128105048Y-125127820D01*
X128105047Y-125127820D01*
X128105051Y-125127816D01*
X128201557Y-124938412D01*
X128267246Y-124736243D01*
X128300500Y-124526287D01*
X128300500Y-124313713D01*
X128267246Y-124103757D01*
X128201557Y-123901588D01*
X128105051Y-123712184D01*
X128105049Y-123712181D01*
X128105048Y-123712179D01*
X127980109Y-123540213D01*
X127829786Y-123389890D01*
X127657820Y-123264951D01*
X127657115Y-123264591D01*
X127649054Y-123260485D01*
X127598259Y-123212512D01*
X127581463Y-123144692D01*
X127603999Y-123078556D01*
X127649054Y-123039515D01*
X127657816Y-123035051D01*
X127780625Y-122945826D01*
X127829786Y-122910109D01*
X127829788Y-122910106D01*
X127829792Y-122910104D01*
X127980104Y-122759792D01*
X127980106Y-122759788D01*
X127980109Y-122759786D01*
X128105048Y-122587820D01*
X128105047Y-122587820D01*
X128105051Y-122587816D01*
X128201557Y-122398412D01*
X128267246Y-122196243D01*
X128300500Y-121986287D01*
X128300500Y-121773713D01*
X128267246Y-121563757D01*
X128201557Y-121361588D01*
X128105051Y-121172184D01*
X128105049Y-121172181D01*
X128105048Y-121172179D01*
X127980109Y-121000213D01*
X127829786Y-120849890D01*
X127657820Y-120724951D01*
X127657115Y-120724591D01*
X127649054Y-120720485D01*
X127598259Y-120672512D01*
X127581463Y-120604692D01*
X127603999Y-120538556D01*
X127649054Y-120499515D01*
X127657816Y-120495051D01*
X127679789Y-120479086D01*
X127829786Y-120370109D01*
X127829788Y-120370106D01*
X127829792Y-120370104D01*
X127980104Y-120219792D01*
X127980106Y-120219788D01*
X127980109Y-120219786D01*
X128105048Y-120047820D01*
X128105047Y-120047820D01*
X128105051Y-120047816D01*
X128201557Y-119858412D01*
X128267246Y-119656243D01*
X128300500Y-119446287D01*
X128300500Y-119233713D01*
X128267246Y-119023757D01*
X128201557Y-118821588D01*
X128201554Y-118821582D01*
X128166200Y-118752194D01*
X128153304Y-118683525D01*
X128179581Y-118618785D01*
X128236687Y-118578528D01*
X128276685Y-118571900D01*
X150873315Y-118571900D01*
X150940354Y-118591585D01*
G37*
%TD.AperFunction*%
%TA.AperFunction,Conductor*%
G36*
X115516281Y-117930185D02*
G01*
X115536923Y-117946819D01*
X115620213Y-118030109D01*
X115792179Y-118155048D01*
X115792181Y-118155049D01*
X115792184Y-118155051D01*
X115981588Y-118251557D01*
X116183757Y-118317246D01*
X116393713Y-118350500D01*
X116393714Y-118350500D01*
X116606286Y-118350500D01*
X116606287Y-118350500D01*
X116816243Y-118317246D01*
X116858523Y-118303507D01*
X116928362Y-118301511D01*
X116984521Y-118333756D01*
X118471284Y-119820520D01*
X118471286Y-119820521D01*
X118471290Y-119820524D01*
X118608209Y-119899573D01*
X118608216Y-119899577D01*
X118760943Y-119940501D01*
X118760945Y-119940501D01*
X118926654Y-119940501D01*
X118926670Y-119940500D01*
X125664281Y-119940500D01*
X125731320Y-119960185D01*
X125774765Y-120008205D01*
X125794947Y-120047814D01*
X125794948Y-120047815D01*
X125919890Y-120219786D01*
X126070213Y-120370109D01*
X126242182Y-120495050D01*
X126250946Y-120499516D01*
X126301742Y-120547491D01*
X126318536Y-120615312D01*
X126295998Y-120681447D01*
X126250946Y-120720484D01*
X126242182Y-120724949D01*
X126070213Y-120849890D01*
X125919890Y-121000213D01*
X125794951Y-121172179D01*
X125698444Y-121361585D01*
X125632753Y-121563760D01*
X125599500Y-121773713D01*
X125599500Y-121986286D01*
X125632753Y-122196239D01*
X125698444Y-122398414D01*
X125794951Y-122587820D01*
X125919890Y-122759786D01*
X126070213Y-122910109D01*
X126242182Y-123035050D01*
X126250946Y-123039516D01*
X126301742Y-123087491D01*
X126318536Y-123155312D01*
X126295998Y-123221447D01*
X126250946Y-123260484D01*
X126242182Y-123264949D01*
X126070213Y-123389890D01*
X125919890Y-123540213D01*
X125794951Y-123712179D01*
X125698444Y-123901585D01*
X125632753Y-124103760D01*
X125606344Y-124270499D01*
X125599500Y-124313713D01*
X125599500Y-124526287D01*
X125602830Y-124547309D01*
X125628943Y-124712185D01*
X125632754Y-124736243D01*
X125682505Y-124889361D01*
X125698444Y-124938414D01*
X125794951Y-125127820D01*
X125919890Y-125299786D01*
X126070213Y-125450109D01*
X126242182Y-125575050D01*
X126250946Y-125579516D01*
X126301742Y-125627491D01*
X126318536Y-125695312D01*
X126295998Y-125761447D01*
X126250946Y-125800484D01*
X126242182Y-125804949D01*
X126070213Y-125929890D01*
X125919890Y-126080213D01*
X125794951Y-126252179D01*
X125698444Y-126441585D01*
X125698443Y-126441587D01*
X125698443Y-126441588D01*
X125666068Y-126541229D01*
X125632753Y-126643760D01*
X125599500Y-126853713D01*
X125599500Y-127066287D01*
X125599499Y-127066287D01*
X125623228Y-127216103D01*
X125614273Y-127285396D01*
X125569277Y-127338848D01*
X125502525Y-127359487D01*
X125500755Y-127359500D01*
X117785719Y-127359500D01*
X117718680Y-127339815D01*
X117675235Y-127291795D01*
X117655052Y-127252185D01*
X117655051Y-127252184D01*
X117530109Y-127080213D01*
X117379786Y-126929890D01*
X117207820Y-126804951D01*
X117207115Y-126804591D01*
X117199054Y-126800485D01*
X117148259Y-126752512D01*
X117131463Y-126684692D01*
X117153999Y-126618556D01*
X117199054Y-126579515D01*
X117207816Y-126575051D01*
X117254368Y-126541229D01*
X117379786Y-126450109D01*
X117379788Y-126450106D01*
X117379792Y-126450104D01*
X117530104Y-126299792D01*
X117530106Y-126299788D01*
X117530109Y-126299786D01*
X117619471Y-126176788D01*
X117655051Y-126127816D01*
X117655349Y-126127230D01*
X117675235Y-126088205D01*
X117723209Y-126037409D01*
X117785719Y-126020500D01*
X121865431Y-126020500D01*
X121865447Y-126020501D01*
X121873043Y-126020501D01*
X122031154Y-126020501D01*
X122031157Y-126020501D01*
X122183885Y-125979577D01*
X122234004Y-125950639D01*
X122320816Y-125900520D01*
X122351055Y-125870280D01*
X122360616Y-125863752D01*
X122383276Y-125856404D01*
X122404181Y-125844989D01*
X122406352Y-125844537D01*
X122407041Y-125844400D01*
X122407042Y-125844400D01*
X122561697Y-125813637D01*
X122707379Y-125753294D01*
X122838489Y-125665689D01*
X122949989Y-125554189D01*
X123037594Y-125423079D01*
X123097937Y-125277397D01*
X123128700Y-125122742D01*
X123128700Y-124965058D01*
X123128700Y-124965055D01*
X123128699Y-124965053D01*
X123123400Y-124938412D01*
X123097937Y-124810403D01*
X123092533Y-124797356D01*
X123037597Y-124664727D01*
X123037590Y-124664714D01*
X122949989Y-124533611D01*
X122949986Y-124533607D01*
X122838492Y-124422113D01*
X122838488Y-124422110D01*
X122707385Y-124334509D01*
X122707372Y-124334502D01*
X122561701Y-124274164D01*
X122561689Y-124274161D01*
X122407045Y-124243400D01*
X122407042Y-124243400D01*
X122249358Y-124243400D01*
X122249355Y-124243400D01*
X122094710Y-124274161D01*
X122094698Y-124274164D01*
X121949027Y-124334502D01*
X121949014Y-124334509D01*
X121817911Y-124422110D01*
X121817907Y-124422113D01*
X121706413Y-124533607D01*
X121706410Y-124533611D01*
X121618809Y-124664714D01*
X121618804Y-124664724D01*
X121586401Y-124742953D01*
X121542560Y-124797356D01*
X121476266Y-124819421D01*
X121471840Y-124819500D01*
X117785719Y-124819500D01*
X117718680Y-124799815D01*
X117675235Y-124751795D01*
X117655052Y-124712185D01*
X117655051Y-124712184D01*
X117530109Y-124540213D01*
X117416181Y-124426285D01*
X117382696Y-124364962D01*
X117387680Y-124295270D01*
X117429552Y-124239337D01*
X117460529Y-124222422D01*
X117592086Y-124173354D01*
X117592093Y-124173350D01*
X117707187Y-124087190D01*
X117707190Y-124087187D01*
X117793350Y-123972093D01*
X117793354Y-123972086D01*
X117843596Y-123837379D01*
X117843598Y-123837372D01*
X117849999Y-123777844D01*
X117850000Y-123777827D01*
X117850000Y-123130000D01*
X116933012Y-123130000D01*
X116965925Y-123072993D01*
X117000000Y-122945826D01*
X117000000Y-122814174D01*
X116965925Y-122687007D01*
X116933012Y-122630000D01*
X117850000Y-122630000D01*
X117850000Y-121982172D01*
X117849999Y-121982155D01*
X117843598Y-121922627D01*
X117843596Y-121922620D01*
X117793354Y-121787913D01*
X117793350Y-121787906D01*
X117707190Y-121672812D01*
X117707187Y-121672809D01*
X117592093Y-121586649D01*
X117592086Y-121586645D01*
X117457379Y-121536403D01*
X117457372Y-121536401D01*
X117397844Y-121530000D01*
X116750000Y-121530000D01*
X116750000Y-122446988D01*
X116692993Y-122414075D01*
X116565826Y-122380000D01*
X116434174Y-122380000D01*
X116307007Y-122414075D01*
X116250000Y-122446988D01*
X116250000Y-121530000D01*
X115602155Y-121530000D01*
X115542627Y-121536401D01*
X115542620Y-121536403D01*
X115407913Y-121586645D01*
X115407906Y-121586649D01*
X115292812Y-121672809D01*
X115292809Y-121672812D01*
X115206649Y-121787906D01*
X115206645Y-121787913D01*
X115156403Y-121922620D01*
X115156401Y-121922627D01*
X115150000Y-121982155D01*
X115150000Y-122630000D01*
X116066988Y-122630000D01*
X116034075Y-122687007D01*
X116000000Y-122814174D01*
X116000000Y-122945826D01*
X116034075Y-123072993D01*
X116066988Y-123130000D01*
X115150000Y-123130000D01*
X115150000Y-123777844D01*
X115156401Y-123837372D01*
X115156403Y-123837379D01*
X115206645Y-123972086D01*
X115206649Y-123972093D01*
X115292809Y-124087187D01*
X115292812Y-124087190D01*
X115407906Y-124173350D01*
X115407913Y-124173354D01*
X115539470Y-124222422D01*
X115595404Y-124264293D01*
X115619821Y-124329758D01*
X115604969Y-124398031D01*
X115583819Y-124426285D01*
X115469889Y-124540215D01*
X115344948Y-124712184D01*
X115344947Y-124712185D01*
X115324765Y-124751795D01*
X115276791Y-124802591D01*
X115214281Y-124819500D01*
X113666669Y-124819500D01*
X113666653Y-124819499D01*
X113659057Y-124819499D01*
X113500943Y-124819499D01*
X113393587Y-124848265D01*
X113348210Y-124860424D01*
X113348209Y-124860425D01*
X113298096Y-124889359D01*
X113298095Y-124889360D01*
X113254689Y-124914420D01*
X113211285Y-124939479D01*
X113211282Y-124939481D01*
X112562181Y-125588583D01*
X112500858Y-125622068D01*
X112431166Y-125617084D01*
X112375233Y-125575212D01*
X112350816Y-125509748D01*
X112350500Y-125500902D01*
X112350500Y-125353713D01*
X112338413Y-125277401D01*
X112317246Y-125143757D01*
X112251557Y-124941588D01*
X112155051Y-124752184D01*
X112155049Y-124752181D01*
X112155048Y-124752179D01*
X112030109Y-124580213D01*
X111916569Y-124466673D01*
X111883084Y-124405350D01*
X111888068Y-124335658D01*
X111929940Y-124279725D01*
X111960915Y-124262810D01*
X112092331Y-124213796D01*
X112207546Y-124127546D01*
X112293796Y-124012331D01*
X112344091Y-123877483D01*
X112350500Y-123817873D01*
X112350499Y-122022128D01*
X112349883Y-122016406D01*
X112347272Y-121992103D01*
X112344091Y-121962516D01*
X112293797Y-121827671D01*
X112293793Y-121827664D01*
X112207547Y-121712455D01*
X112207544Y-121712452D01*
X112092335Y-121626206D01*
X112092328Y-121626202D01*
X111957482Y-121575908D01*
X111957483Y-121575908D01*
X111897883Y-121569501D01*
X111897881Y-121569500D01*
X111897873Y-121569500D01*
X111897865Y-121569500D01*
X111650212Y-121569500D01*
X111583173Y-121549815D01*
X111542825Y-121507500D01*
X111521530Y-121470616D01*
X111521529Y-121470615D01*
X111480521Y-121399586D01*
X111480520Y-121399584D01*
X111368716Y-121287780D01*
X111368715Y-121287779D01*
X111364385Y-121283449D01*
X111364374Y-121283439D01*
X110970419Y-120889484D01*
X110936934Y-120828161D01*
X110934100Y-120801803D01*
X110934100Y-118716798D01*
X110953785Y-118649759D01*
X111006589Y-118604004D01*
X111075747Y-118594060D01*
X111096407Y-118598864D01*
X111183757Y-118627246D01*
X111393713Y-118660500D01*
X111393714Y-118660500D01*
X111606286Y-118660500D01*
X111606287Y-118660500D01*
X111816243Y-118627246D01*
X112018412Y-118561557D01*
X112207816Y-118465051D01*
X112253643Y-118431756D01*
X112379786Y-118340109D01*
X112379788Y-118340106D01*
X112379792Y-118340104D01*
X112530104Y-118189792D01*
X112530106Y-118189788D01*
X112530109Y-118189786D01*
X112588661Y-118109193D01*
X112655051Y-118017816D01*
X112655349Y-118017230D01*
X112675235Y-117978205D01*
X112723209Y-117927409D01*
X112785719Y-117910500D01*
X115449242Y-117910500D01*
X115516281Y-117930185D01*
G37*
%TD.AperFunction*%
%TA.AperFunction,Conductor*%
G36*
X120692790Y-110487257D02*
G01*
X120748721Y-110529126D01*
X120792454Y-110587546D01*
X120838643Y-110622123D01*
X120907664Y-110673793D01*
X120907671Y-110673797D01*
X120950819Y-110689890D01*
X121042517Y-110724091D01*
X121102127Y-110730500D01*
X121112685Y-110730499D01*
X121179723Y-110750179D01*
X121200372Y-110766818D01*
X121870591Y-111437037D01*
X121807007Y-111454075D01*
X121692993Y-111519901D01*
X121599901Y-111612993D01*
X121534075Y-111727007D01*
X121517037Y-111790591D01*
X120884728Y-111158282D01*
X120884727Y-111158282D01*
X120845380Y-111212439D01*
X120748904Y-111401782D01*
X120683242Y-111603869D01*
X120683242Y-111603872D01*
X120650000Y-111813753D01*
X120650000Y-112026246D01*
X120683242Y-112236127D01*
X120683242Y-112236130D01*
X120708296Y-112313237D01*
X120710291Y-112383078D01*
X120674210Y-112442911D01*
X120627738Y-112469789D01*
X120623274Y-112471200D01*
X120622942Y-112471200D01*
X120470215Y-112512123D01*
X120453394Y-112521835D01*
X120441675Y-112528600D01*
X120441668Y-112528603D01*
X120333290Y-112591175D01*
X120333282Y-112591181D01*
X118023163Y-114901301D01*
X117961840Y-114934786D01*
X117892148Y-114929802D01*
X117836215Y-114887930D01*
X117811798Y-114822466D01*
X117816839Y-114781153D01*
X117816109Y-114780978D01*
X117817243Y-114776251D01*
X117817246Y-114776243D01*
X117850500Y-114566287D01*
X117850500Y-114353713D01*
X117817246Y-114143757D01*
X117751557Y-113941588D01*
X117655051Y-113752184D01*
X117655049Y-113752181D01*
X117655048Y-113752179D01*
X117530109Y-113580213D01*
X117379786Y-113429890D01*
X117207820Y-113304951D01*
X117202391Y-113302185D01*
X117199054Y-113300485D01*
X117148259Y-113252512D01*
X117131463Y-113184692D01*
X117153999Y-113118556D01*
X117199054Y-113079515D01*
X117207816Y-113075051D01*
X117229789Y-113059086D01*
X117379786Y-112950109D01*
X117379788Y-112950106D01*
X117379792Y-112950104D01*
X117530104Y-112799792D01*
X117530106Y-112799788D01*
X117530109Y-112799786D01*
X117600439Y-112702984D01*
X117655051Y-112627816D01*
X117666075Y-112606181D01*
X117675235Y-112588205D01*
X117723209Y-112537409D01*
X117785719Y-112520500D01*
X118221631Y-112520500D01*
X118221647Y-112520501D01*
X118229243Y-112520501D01*
X118387354Y-112520501D01*
X118387357Y-112520501D01*
X118540085Y-112479577D01*
X118590204Y-112450639D01*
X118677016Y-112400520D01*
X118788820Y-112288716D01*
X118788820Y-112288714D01*
X118799028Y-112278507D01*
X118799030Y-112278504D01*
X120561777Y-110515756D01*
X120623098Y-110482273D01*
X120692790Y-110487257D01*
G37*
%TD.AperFunction*%
%TA.AperFunction,Conductor*%
G36*
X131435242Y-94560185D02*
G01*
X131455883Y-94576818D01*
X131859584Y-94980520D01*
X131968274Y-95043271D01*
X131969024Y-95043719D01*
X131992214Y-95068745D01*
X132015715Y-95093391D01*
X132015949Y-95094359D01*
X132016514Y-95094968D01*
X132017661Y-95101412D01*
X132029500Y-95150212D01*
X132029500Y-95397869D01*
X132029501Y-95397876D01*
X132035908Y-95457483D01*
X132086202Y-95592328D01*
X132086206Y-95592335D01*
X132172452Y-95707544D01*
X132172455Y-95707547D01*
X132287664Y-95793793D01*
X132287671Y-95793797D01*
X132422517Y-95844091D01*
X132422516Y-95844091D01*
X132429444Y-95844835D01*
X132482127Y-95850500D01*
X134277872Y-95850499D01*
X134337483Y-95844091D01*
X134472331Y-95793796D01*
X134587546Y-95707546D01*
X134673796Y-95592331D01*
X134722810Y-95460916D01*
X134764681Y-95404984D01*
X134830145Y-95380566D01*
X134898418Y-95395417D01*
X134926673Y-95416569D01*
X135040213Y-95530109D01*
X135212179Y-95655048D01*
X135212181Y-95655049D01*
X135212184Y-95655051D01*
X135401588Y-95751557D01*
X135603757Y-95817246D01*
X135813713Y-95850500D01*
X135813714Y-95850500D01*
X136026286Y-95850500D01*
X136026287Y-95850500D01*
X136236243Y-95817246D01*
X136278523Y-95803507D01*
X136348362Y-95801511D01*
X136404521Y-95833756D01*
X147691284Y-107120520D01*
X147691286Y-107120521D01*
X147691290Y-107120524D01*
X147828209Y-107199573D01*
X147828216Y-107199577D01*
X147980943Y-107240501D01*
X147980945Y-107240501D01*
X148146654Y-107240501D01*
X148146670Y-107240500D01*
X150207424Y-107240500D01*
X150274463Y-107260185D01*
X150320218Y-107312989D01*
X150330162Y-107382147D01*
X150329041Y-107388691D01*
X150308600Y-107491453D01*
X150308600Y-107649146D01*
X150339361Y-107803789D01*
X150339364Y-107803801D01*
X150399702Y-107949472D01*
X150399709Y-107949485D01*
X150487310Y-108080588D01*
X150487313Y-108080592D01*
X150598807Y-108192086D01*
X150598811Y-108192089D01*
X150729914Y-108279690D01*
X150729927Y-108279697D01*
X150875514Y-108340000D01*
X150875603Y-108340037D01*
X150875607Y-108340037D01*
X150875608Y-108340038D01*
X150929840Y-108350826D01*
X150991751Y-108383211D01*
X151026325Y-108443927D01*
X151022585Y-108513696D01*
X151016133Y-108528738D01*
X150948444Y-108661585D01*
X150948443Y-108661587D01*
X150948443Y-108661588D01*
X150947680Y-108663937D01*
X150882753Y-108863760D01*
X150856498Y-109029527D01*
X150849500Y-109073713D01*
X150849500Y-109286287D01*
X150851733Y-109300386D01*
X150880038Y-109479100D01*
X150882754Y-109496243D01*
X150944737Y-109687007D01*
X150948444Y-109698414D01*
X151044951Y-109887820D01*
X151169890Y-110059786D01*
X151320213Y-110210109D01*
X151492182Y-110335050D01*
X151500946Y-110339516D01*
X151551742Y-110387491D01*
X151568536Y-110455312D01*
X151545998Y-110521447D01*
X151500946Y-110560484D01*
X151492182Y-110564949D01*
X151320213Y-110689890D01*
X151169890Y-110840213D01*
X151044951Y-111012179D01*
X150948444Y-111201585D01*
X150882753Y-111403760D01*
X150849500Y-111613713D01*
X150849500Y-111826286D01*
X150881170Y-112026246D01*
X150882754Y-112036243D01*
X150944737Y-112227007D01*
X150948444Y-112238414D01*
X151044951Y-112427820D01*
X151169890Y-112599786D01*
X151320213Y-112750109D01*
X151492182Y-112875050D01*
X151500946Y-112879516D01*
X151551742Y-112927491D01*
X151568536Y-112995312D01*
X151545998Y-113061447D01*
X151500946Y-113100484D01*
X151492182Y-113104949D01*
X151320213Y-113229890D01*
X151169890Y-113380213D01*
X151044951Y-113552179D01*
X150948444Y-113741585D01*
X150882753Y-113943760D01*
X150849500Y-114153713D01*
X150849500Y-114366286D01*
X150882753Y-114576240D01*
X150944794Y-114767182D01*
X150946789Y-114837023D01*
X150910709Y-114896856D01*
X150848008Y-114927684D01*
X150826863Y-114929500D01*
X128323137Y-114929500D01*
X128256098Y-114909815D01*
X128210343Y-114857011D01*
X128200399Y-114787853D01*
X128205206Y-114767182D01*
X128230027Y-114690791D01*
X128267246Y-114576243D01*
X128300500Y-114366287D01*
X128300500Y-114153713D01*
X128267246Y-113943757D01*
X128201557Y-113741588D01*
X128105051Y-113552184D01*
X128105049Y-113552181D01*
X128105048Y-113552179D01*
X127980109Y-113380213D01*
X127829786Y-113229890D01*
X127657820Y-113104951D01*
X127657115Y-113104591D01*
X127649054Y-113100485D01*
X127598259Y-113052512D01*
X127581463Y-112984692D01*
X127603999Y-112918556D01*
X127649054Y-112879515D01*
X127657816Y-112875051D01*
X127761402Y-112799792D01*
X127829786Y-112750109D01*
X127829788Y-112750106D01*
X127829792Y-112750104D01*
X127980104Y-112599792D01*
X127980106Y-112599788D01*
X127980109Y-112599786D01*
X128105048Y-112427820D01*
X128105047Y-112427820D01*
X128105051Y-112427816D01*
X128201557Y-112238412D01*
X128267246Y-112036243D01*
X128300500Y-111826287D01*
X128300500Y-111826285D01*
X128301262Y-111821475D01*
X128303236Y-111821787D01*
X128325121Y-111764378D01*
X128381354Y-111722910D01*
X128423851Y-111715400D01*
X129514731Y-111715400D01*
X129514747Y-111715401D01*
X129522343Y-111715401D01*
X129680454Y-111715401D01*
X129680457Y-111715401D01*
X129833185Y-111674477D01*
X129913399Y-111628165D01*
X129970116Y-111595420D01*
X130081920Y-111483616D01*
X130081920Y-111483614D01*
X130092124Y-111473411D01*
X130092127Y-111473406D01*
X132052364Y-109513171D01*
X132113685Y-109479688D01*
X132115852Y-109479237D01*
X132116541Y-109479100D01*
X132116542Y-109479100D01*
X132271197Y-109448337D01*
X132416879Y-109387994D01*
X132547989Y-109300389D01*
X132659489Y-109188889D01*
X132747094Y-109057779D01*
X132807437Y-108912097D01*
X132838200Y-108757442D01*
X132838200Y-108599758D01*
X132838200Y-108599755D01*
X132838199Y-108599753D01*
X132826939Y-108543144D01*
X132807437Y-108445103D01*
X132795532Y-108416361D01*
X132747097Y-108299427D01*
X132747090Y-108299414D01*
X132659489Y-108168311D01*
X132659486Y-108168307D01*
X132547992Y-108056813D01*
X132547988Y-108056810D01*
X132416885Y-107969209D01*
X132416872Y-107969202D01*
X132271201Y-107908864D01*
X132271189Y-107908861D01*
X132116545Y-107878100D01*
X132116542Y-107878100D01*
X131958858Y-107878100D01*
X131958855Y-107878100D01*
X131804210Y-107908861D01*
X131804198Y-107908864D01*
X131658527Y-107969202D01*
X131658514Y-107969209D01*
X131527411Y-108056810D01*
X131527407Y-108056813D01*
X131415913Y-108168307D01*
X131415910Y-108168311D01*
X131328309Y-108299414D01*
X131328302Y-108299427D01*
X131267964Y-108445098D01*
X131267961Y-108445108D01*
X131237062Y-108600448D01*
X131204677Y-108662359D01*
X131203126Y-108663937D01*
X129388984Y-110478081D01*
X129327661Y-110511566D01*
X129301303Y-110514400D01*
X127792597Y-110514400D01*
X127725558Y-110494715D01*
X127679803Y-110441911D01*
X127669859Y-110372753D01*
X127698884Y-110309197D01*
X127719712Y-110290082D01*
X127829786Y-110210109D01*
X127829788Y-110210106D01*
X127829792Y-110210104D01*
X127980104Y-110059792D01*
X127980106Y-110059788D01*
X127980109Y-110059786D01*
X128105048Y-109887820D01*
X128105047Y-109887820D01*
X128105051Y-109887816D01*
X128201557Y-109698412D01*
X128267246Y-109496243D01*
X128300500Y-109286287D01*
X128300500Y-109073713D01*
X128267246Y-108863757D01*
X128201557Y-108661588D01*
X128105051Y-108472184D01*
X128105049Y-108472181D01*
X128105048Y-108472179D01*
X127980109Y-108300213D01*
X127829786Y-108149890D01*
X127657820Y-108024951D01*
X127657115Y-108024591D01*
X127649054Y-108020485D01*
X127598259Y-107972512D01*
X127581463Y-107904692D01*
X127603999Y-107838556D01*
X127649054Y-107799515D01*
X127657816Y-107795051D01*
X127679789Y-107779086D01*
X127829786Y-107670109D01*
X127829788Y-107670106D01*
X127829792Y-107670104D01*
X127980104Y-107519792D01*
X127980106Y-107519788D01*
X127980109Y-107519786D01*
X128105048Y-107347820D01*
X128105047Y-107347820D01*
X128105051Y-107347816D01*
X128201557Y-107158412D01*
X128267246Y-106956243D01*
X128300500Y-106746287D01*
X128300500Y-106533713D01*
X128267246Y-106323757D01*
X128201557Y-106121588D01*
X128105051Y-105932184D01*
X128105049Y-105932181D01*
X128105048Y-105932179D01*
X127980109Y-105760213D01*
X127829786Y-105609890D01*
X127657820Y-105484951D01*
X127657115Y-105484591D01*
X127649054Y-105480485D01*
X127598259Y-105432512D01*
X127581463Y-105364692D01*
X127603999Y-105298556D01*
X127649054Y-105259515D01*
X127657816Y-105255051D01*
X127733874Y-105199792D01*
X127829786Y-105130109D01*
X127829788Y-105130106D01*
X127829792Y-105130104D01*
X127980104Y-104979792D01*
X127980106Y-104979788D01*
X127980109Y-104979786D01*
X128105048Y-104807820D01*
X128105047Y-104807820D01*
X128105051Y-104807816D01*
X128201557Y-104618412D01*
X128254318Y-104456027D01*
X128284565Y-104406668D01*
X129616064Y-103075171D01*
X129677385Y-103041688D01*
X129679552Y-103041237D01*
X129680241Y-103041100D01*
X129680242Y-103041100D01*
X129834897Y-103010337D01*
X129980579Y-102949994D01*
X130111689Y-102862389D01*
X130223189Y-102750889D01*
X130310794Y-102619779D01*
X130371137Y-102474097D01*
X130401900Y-102319442D01*
X130401900Y-102161758D01*
X130401900Y-102161755D01*
X130401899Y-102161753D01*
X130371138Y-102007110D01*
X130371138Y-102007108D01*
X130371137Y-102007103D01*
X130334972Y-101919792D01*
X130310797Y-101861427D01*
X130310790Y-101861414D01*
X130223189Y-101730311D01*
X130223186Y-101730307D01*
X130111692Y-101618813D01*
X130111688Y-101618810D01*
X129980585Y-101531209D01*
X129980572Y-101531202D01*
X129834901Y-101470864D01*
X129834889Y-101470861D01*
X129680245Y-101440100D01*
X129680242Y-101440100D01*
X129522558Y-101440100D01*
X129522555Y-101440100D01*
X129367910Y-101470861D01*
X129367898Y-101470864D01*
X129222227Y-101531202D01*
X129222214Y-101531209D01*
X129091111Y-101618810D01*
X129091107Y-101618813D01*
X128979613Y-101730307D01*
X128979610Y-101730311D01*
X128892009Y-101861414D01*
X128892002Y-101861427D01*
X128831664Y-102007098D01*
X128831661Y-102007108D01*
X128800762Y-102162448D01*
X128768377Y-102224359D01*
X128766826Y-102225937D01*
X127958588Y-103034175D01*
X127897265Y-103067660D01*
X127827573Y-103062676D01*
X127799550Y-103047905D01*
X127798717Y-103047319D01*
X127657816Y-102944949D01*
X127641199Y-102936482D01*
X127633992Y-102931411D01*
X127617508Y-102910691D01*
X127598259Y-102892512D01*
X127596095Y-102883776D01*
X127590493Y-102876734D01*
X127587828Y-102850393D01*
X127581463Y-102824692D01*
X127584365Y-102816172D01*
X127583460Y-102807219D01*
X127595458Y-102783620D01*
X127603999Y-102758556D01*
X127611511Y-102752046D01*
X127615126Y-102744937D01*
X127629249Y-102736676D01*
X127649054Y-102719515D01*
X127657816Y-102715051D01*
X127733874Y-102659792D01*
X127829786Y-102590109D01*
X127829788Y-102590106D01*
X127829792Y-102590104D01*
X127980104Y-102439792D01*
X127980106Y-102439788D01*
X127980109Y-102439786D01*
X128105048Y-102267820D01*
X128105047Y-102267820D01*
X128105051Y-102267816D01*
X128201557Y-102078412D01*
X128267246Y-101876243D01*
X128300500Y-101666287D01*
X128300500Y-101453713D01*
X128267246Y-101243757D01*
X128201557Y-101041588D01*
X128105051Y-100852184D01*
X128105049Y-100852181D01*
X128105048Y-100852179D01*
X127980109Y-100680213D01*
X127829786Y-100529890D01*
X127657820Y-100404951D01*
X127657115Y-100404591D01*
X127649054Y-100400485D01*
X127598259Y-100352512D01*
X127581463Y-100284692D01*
X127603999Y-100218556D01*
X127649054Y-100179515D01*
X127657816Y-100175051D01*
X127733874Y-100119792D01*
X127829786Y-100050109D01*
X127829788Y-100050106D01*
X127829792Y-100050104D01*
X127980104Y-99899792D01*
X127980106Y-99899788D01*
X127980109Y-99899786D01*
X128105048Y-99727820D01*
X128105047Y-99727820D01*
X128105051Y-99727816D01*
X128201557Y-99538412D01*
X128267246Y-99336243D01*
X128300500Y-99126287D01*
X128300500Y-98913713D01*
X128267246Y-98703757D01*
X128201557Y-98501588D01*
X128105051Y-98312184D01*
X128105049Y-98312181D01*
X128105048Y-98312179D01*
X127980109Y-98140213D01*
X127829786Y-97989890D01*
X127657817Y-97864949D01*
X127648504Y-97860204D01*
X127597707Y-97812230D01*
X127580912Y-97744409D01*
X127603449Y-97678274D01*
X127648507Y-97639232D01*
X127657555Y-97634622D01*
X127711716Y-97595270D01*
X127711717Y-97595270D01*
X127079409Y-96962962D01*
X127142993Y-96945925D01*
X127257007Y-96880099D01*
X127350099Y-96787007D01*
X127415925Y-96672993D01*
X127432962Y-96609409D01*
X128065270Y-97241717D01*
X128065270Y-97241716D01*
X128104622Y-97187554D01*
X128201095Y-96998217D01*
X128266757Y-96796130D01*
X128266757Y-96796127D01*
X128300000Y-96586246D01*
X128300000Y-96373753D01*
X128266757Y-96163872D01*
X128266757Y-96163869D01*
X128201095Y-95961782D01*
X128104624Y-95772449D01*
X128065270Y-95718282D01*
X128065269Y-95718282D01*
X127432962Y-96350590D01*
X127415925Y-96287007D01*
X127350099Y-96172993D01*
X127257007Y-96079901D01*
X127142993Y-96014075D01*
X127079407Y-95997036D01*
X127711716Y-95364728D01*
X127657547Y-95325373D01*
X127657547Y-95325372D01*
X127648500Y-95320763D01*
X127597706Y-95272788D01*
X127580912Y-95204966D01*
X127603451Y-95138832D01*
X127648508Y-95099793D01*
X127657816Y-95095051D01*
X127737007Y-95037515D01*
X127829786Y-94970109D01*
X127829788Y-94970106D01*
X127829792Y-94970104D01*
X127980104Y-94819792D01*
X127980106Y-94819788D01*
X127980109Y-94819786D01*
X128082820Y-94678414D01*
X128105051Y-94647816D01*
X128105349Y-94647230D01*
X128125235Y-94608205D01*
X128173209Y-94557409D01*
X128235719Y-94540500D01*
X131368203Y-94540500D01*
X131435242Y-94560185D01*
G37*
%TD.AperFunction*%
%TA.AperFunction,Conductor*%
G36*
X125717105Y-108379085D02*
G01*
X125762860Y-108431889D01*
X125772804Y-108501047D01*
X125760551Y-108539692D01*
X125736124Y-108587635D01*
X125698444Y-108661585D01*
X125698443Y-108661587D01*
X125698443Y-108661588D01*
X125697680Y-108663937D01*
X125632753Y-108863760D01*
X125606498Y-109029527D01*
X125599500Y-109073713D01*
X125599500Y-109286287D01*
X125601733Y-109300386D01*
X125632754Y-109496244D01*
X125632754Y-109496247D01*
X125646491Y-109538523D01*
X125648486Y-109608364D01*
X125616241Y-109664522D01*
X123538082Y-111742681D01*
X123476759Y-111776166D01*
X123407067Y-111771182D01*
X123351134Y-111729310D01*
X123327928Y-111674398D01*
X123316757Y-111603872D01*
X123316757Y-111603869D01*
X123251095Y-111401782D01*
X123154624Y-111212449D01*
X123115270Y-111158282D01*
X123115269Y-111158282D01*
X122482962Y-111790589D01*
X122465925Y-111727007D01*
X122400099Y-111612993D01*
X122307007Y-111519901D01*
X122192993Y-111454075D01*
X122129409Y-111437037D01*
X122799627Y-110766818D01*
X122860950Y-110733333D01*
X122887307Y-110730499D01*
X122897872Y-110730499D01*
X122957483Y-110724091D01*
X123092331Y-110673796D01*
X123207546Y-110587546D01*
X123293796Y-110472331D01*
X123344091Y-110337483D01*
X123350500Y-110277873D01*
X123350499Y-108483399D01*
X123370184Y-108416361D01*
X123422987Y-108370606D01*
X123474499Y-108359400D01*
X125650066Y-108359400D01*
X125717105Y-108379085D01*
G37*
%TD.AperFunction*%
%TA.AperFunction,Conductor*%
G36*
X120592539Y-108379085D02*
G01*
X120638294Y-108431889D01*
X120649500Y-108483400D01*
X120649500Y-108729787D01*
X120629815Y-108796826D01*
X120587500Y-108837174D01*
X120479587Y-108899477D01*
X120479582Y-108899481D01*
X120416671Y-108962393D01*
X120367780Y-109011284D01*
X120367778Y-109011286D01*
X119223140Y-110155925D01*
X118095884Y-111283181D01*
X118034561Y-111316666D01*
X118008203Y-111319500D01*
X117785719Y-111319500D01*
X117718680Y-111299815D01*
X117675235Y-111251795D01*
X117655052Y-111212185D01*
X117655051Y-111212184D01*
X117530109Y-111040213D01*
X117416181Y-110926285D01*
X117382696Y-110864962D01*
X117387680Y-110795270D01*
X117429552Y-110739337D01*
X117460529Y-110722422D01*
X117592086Y-110673354D01*
X117592093Y-110673350D01*
X117707187Y-110587190D01*
X117707190Y-110587187D01*
X117793350Y-110472093D01*
X117793354Y-110472086D01*
X117843596Y-110337379D01*
X117843598Y-110337372D01*
X117849999Y-110277844D01*
X117850000Y-110277827D01*
X117850000Y-109630000D01*
X116933012Y-109630000D01*
X116965925Y-109572993D01*
X117000000Y-109445826D01*
X117000000Y-109314174D01*
X116965925Y-109187007D01*
X116933012Y-109130000D01*
X117850000Y-109130000D01*
X117850000Y-108483400D01*
X117869685Y-108416361D01*
X117922489Y-108370606D01*
X117974000Y-108359400D01*
X120525500Y-108359400D01*
X120592539Y-108379085D01*
G37*
%TD.AperFunction*%
%TA.AperFunction,Conductor*%
G36*
X161367942Y-83641185D02*
G01*
X161388584Y-83657819D01*
X162166241Y-84435476D01*
X162199726Y-84496799D01*
X162196492Y-84561473D01*
X162182753Y-84603757D01*
X162149500Y-84813713D01*
X162149500Y-85026286D01*
X162180617Y-85222754D01*
X162182754Y-85236243D01*
X162240106Y-85412754D01*
X162248444Y-85438414D01*
X162344951Y-85627820D01*
X162469890Y-85799786D01*
X162620213Y-85950109D01*
X162792179Y-86075048D01*
X162792181Y-86075049D01*
X162792184Y-86075051D01*
X162801493Y-86079794D01*
X162852290Y-86127766D01*
X162869087Y-86195587D01*
X162846552Y-86261722D01*
X162801505Y-86300760D01*
X162792446Y-86305376D01*
X162792440Y-86305380D01*
X162738282Y-86344727D01*
X162738282Y-86344728D01*
X163370591Y-86977037D01*
X163307007Y-86994075D01*
X163192993Y-87059901D01*
X163099901Y-87152993D01*
X163034075Y-87267007D01*
X163017037Y-87330591D01*
X162384728Y-86698282D01*
X162384727Y-86698282D01*
X162345380Y-86752439D01*
X162248904Y-86941782D01*
X162183242Y-87143869D01*
X162183242Y-87143872D01*
X162150000Y-87353753D01*
X162150000Y-87566246D01*
X162183242Y-87776127D01*
X162183242Y-87776130D01*
X162248904Y-87978217D01*
X162345375Y-88167550D01*
X162384728Y-88221716D01*
X163017037Y-87589408D01*
X163034075Y-87652993D01*
X163099901Y-87767007D01*
X163192993Y-87860099D01*
X163307007Y-87925925D01*
X163370590Y-87942962D01*
X162738282Y-88575269D01*
X162738282Y-88575270D01*
X162792452Y-88614626D01*
X162792451Y-88614626D01*
X162801495Y-88619234D01*
X162852292Y-88667208D01*
X162869087Y-88735029D01*
X162846550Y-88801164D01*
X162801499Y-88840202D01*
X162792182Y-88844949D01*
X162620213Y-88969890D01*
X162469890Y-89120213D01*
X162344951Y-89292179D01*
X162248444Y-89481585D01*
X162182753Y-89683759D01*
X162176855Y-89720999D01*
X162146925Y-89784134D01*
X162087613Y-89821064D01*
X162054382Y-89825600D01*
X159410145Y-89825600D01*
X159343106Y-89805915D01*
X159297351Y-89753111D01*
X159287407Y-89683953D01*
X159292214Y-89663282D01*
X159317246Y-89586243D01*
X159350500Y-89376287D01*
X159350500Y-89163713D01*
X159317246Y-88953757D01*
X159251557Y-88751588D01*
X159155051Y-88562184D01*
X159155049Y-88562181D01*
X159155048Y-88562179D01*
X159030109Y-88390213D01*
X158879786Y-88239890D01*
X158707820Y-88114951D01*
X158707115Y-88114591D01*
X158699054Y-88110485D01*
X158648259Y-88062512D01*
X158631463Y-87994692D01*
X158653999Y-87928556D01*
X158699054Y-87889515D01*
X158707816Y-87885051D01*
X158785731Y-87828443D01*
X158879786Y-87760109D01*
X158879788Y-87760106D01*
X158879792Y-87760104D01*
X159030104Y-87609792D01*
X159030106Y-87609788D01*
X159030109Y-87609786D01*
X159155048Y-87437820D01*
X159155047Y-87437820D01*
X159155051Y-87437816D01*
X159242083Y-87267007D01*
X159251553Y-87248420D01*
X159251554Y-87248419D01*
X159251556Y-87248414D01*
X159251557Y-87248412D01*
X159317246Y-87046243D01*
X159350500Y-86836287D01*
X159350500Y-86623713D01*
X159317246Y-86413757D01*
X159251557Y-86211588D01*
X159155051Y-86022184D01*
X159155049Y-86022181D01*
X159155048Y-86022179D01*
X159030109Y-85850213D01*
X158879786Y-85699890D01*
X158707817Y-85574949D01*
X158698504Y-85570204D01*
X158647707Y-85522230D01*
X158630912Y-85454409D01*
X158653449Y-85388274D01*
X158698507Y-85349232D01*
X158707555Y-85344622D01*
X158761716Y-85305270D01*
X158761717Y-85305270D01*
X158129408Y-84672962D01*
X158192993Y-84655925D01*
X158307007Y-84590099D01*
X158400099Y-84497007D01*
X158465925Y-84382993D01*
X158482962Y-84319409D01*
X159115270Y-84951717D01*
X159115270Y-84951716D01*
X159154622Y-84897554D01*
X159251095Y-84708217D01*
X159316757Y-84506130D01*
X159316757Y-84506127D01*
X159350000Y-84296246D01*
X159350000Y-84083753D01*
X159316757Y-83873872D01*
X159316757Y-83873869D01*
X159287498Y-83783818D01*
X159285503Y-83713977D01*
X159321584Y-83654144D01*
X159384285Y-83623316D01*
X159405429Y-83621500D01*
X161300903Y-83621500D01*
X161367942Y-83641185D01*
G37*
%TD.AperFunction*%
%TA.AperFunction,Conductor*%
G36*
X156661610Y-83641185D02*
G01*
X156707365Y-83693989D01*
X156717309Y-83763147D01*
X156712502Y-83783818D01*
X156683242Y-83873869D01*
X156683242Y-83873872D01*
X156650000Y-84083753D01*
X156650000Y-84296246D01*
X156683242Y-84506127D01*
X156683242Y-84506130D01*
X156748904Y-84708217D01*
X156845375Y-84897550D01*
X156884728Y-84951716D01*
X157517036Y-84319407D01*
X157534075Y-84382993D01*
X157599901Y-84497007D01*
X157692993Y-84590099D01*
X157807007Y-84655925D01*
X157870590Y-84672962D01*
X157238282Y-85305269D01*
X157238282Y-85305270D01*
X157292452Y-85344626D01*
X157292451Y-85344626D01*
X157301495Y-85349234D01*
X157352292Y-85397208D01*
X157369087Y-85465029D01*
X157346550Y-85531164D01*
X157301499Y-85570202D01*
X157292182Y-85574949D01*
X157120213Y-85699890D01*
X156969890Y-85850213D01*
X156844951Y-86022179D01*
X156748444Y-86211585D01*
X156682753Y-86413760D01*
X156679593Y-86433713D01*
X156649500Y-86623713D01*
X156649500Y-86836287D01*
X156682754Y-87046243D01*
X156748249Y-87247816D01*
X156748444Y-87248414D01*
X156844951Y-87437820D01*
X156969890Y-87609786D01*
X157120213Y-87760109D01*
X157292182Y-87885050D01*
X157300946Y-87889516D01*
X157351742Y-87937491D01*
X157368536Y-88005312D01*
X157345998Y-88071447D01*
X157300946Y-88110484D01*
X157292182Y-88114949D01*
X157120213Y-88239890D01*
X156969890Y-88390213D01*
X156844948Y-88562184D01*
X156844947Y-88562185D01*
X156824765Y-88601795D01*
X156776791Y-88652591D01*
X156714281Y-88669500D01*
X134179797Y-88669500D01*
X134112758Y-88649815D01*
X134067003Y-88597011D01*
X134057059Y-88527853D01*
X134086084Y-88464297D01*
X134092116Y-88457819D01*
X138892116Y-83657819D01*
X138953439Y-83624334D01*
X138979797Y-83621500D01*
X156594571Y-83621500D01*
X156661610Y-83641185D01*
G37*
%TD.AperFunction*%
%TA.AperFunction,Conductor*%
G36*
X167192539Y-51095185D02*
G01*
X167238294Y-51147989D01*
X167249500Y-51199500D01*
X167249500Y-141450500D01*
X167229815Y-141517539D01*
X167177011Y-141563294D01*
X167125500Y-141574500D01*
X107874500Y-141574500D01*
X107807461Y-141554815D01*
X107761706Y-141502011D01*
X107750500Y-141450500D01*
X107750500Y-122022135D01*
X109649500Y-122022135D01*
X109649500Y-123817870D01*
X109649501Y-123817876D01*
X109655908Y-123877483D01*
X109706202Y-124012328D01*
X109706206Y-124012335D01*
X109792452Y-124127544D01*
X109792455Y-124127547D01*
X109907664Y-124213793D01*
X109907671Y-124213797D01*
X110039082Y-124262810D01*
X110095016Y-124304681D01*
X110119433Y-124370145D01*
X110104582Y-124438418D01*
X110083431Y-124466673D01*
X109969889Y-124580215D01*
X109844951Y-124752179D01*
X109748444Y-124941585D01*
X109682753Y-125143760D01*
X109649500Y-125353713D01*
X109649500Y-125566286D01*
X109680410Y-125761447D01*
X109682754Y-125776243D01*
X109732677Y-125929890D01*
X109748444Y-125978414D01*
X109844951Y-126167820D01*
X109969890Y-126339786D01*
X110120213Y-126490109D01*
X110292182Y-126615050D01*
X110300946Y-126619516D01*
X110351742Y-126667491D01*
X110368536Y-126735312D01*
X110345998Y-126801447D01*
X110300946Y-126840484D01*
X110292182Y-126844949D01*
X110120213Y-126969890D01*
X109969890Y-127120213D01*
X109844951Y-127292179D01*
X109748444Y-127481585D01*
X109748443Y-127481587D01*
X109748443Y-127481588D01*
X109737432Y-127515476D01*
X109682753Y-127683760D01*
X109649500Y-127893713D01*
X109649500Y-128106286D01*
X109682753Y-128316239D01*
X109748444Y-128518414D01*
X109844951Y-128707820D01*
X109969890Y-128879786D01*
X110120213Y-129030109D01*
X110292179Y-129155048D01*
X110292181Y-129155049D01*
X110292184Y-129155051D01*
X110301493Y-129159794D01*
X110352290Y-129207766D01*
X110369087Y-129275587D01*
X110346552Y-129341722D01*
X110301505Y-129380760D01*
X110292446Y-129385376D01*
X110292440Y-129385380D01*
X110238282Y-129424727D01*
X110238282Y-129424728D01*
X110870591Y-130057037D01*
X110807007Y-130074075D01*
X110692993Y-130139901D01*
X110599901Y-130232993D01*
X110534075Y-130347007D01*
X110517037Y-130410591D01*
X109884728Y-129778282D01*
X109884727Y-129778282D01*
X109845380Y-129832439D01*
X109748904Y-130021782D01*
X109683242Y-130223869D01*
X109683242Y-130223872D01*
X109650000Y-130433753D01*
X109650000Y-130646246D01*
X109683242Y-130856127D01*
X109683242Y-130856130D01*
X109748904Y-131058217D01*
X109845375Y-131247550D01*
X109884728Y-131301716D01*
X110517037Y-130669408D01*
X110534075Y-130732993D01*
X110599901Y-130847007D01*
X110692993Y-130940099D01*
X110807007Y-131005925D01*
X110870590Y-131022962D01*
X110238282Y-131655269D01*
X110238282Y-131655270D01*
X110292449Y-131694624D01*
X110481782Y-131791095D01*
X110683870Y-131856757D01*
X110893754Y-131890000D01*
X111106246Y-131890000D01*
X111316127Y-131856757D01*
X111316130Y-131856757D01*
X111518217Y-131791095D01*
X111707554Y-131694622D01*
X111761716Y-131655270D01*
X111761717Y-131655270D01*
X111129408Y-131022962D01*
X111192993Y-131005925D01*
X111307007Y-130940099D01*
X111400099Y-130847007D01*
X111465925Y-130732993D01*
X111482962Y-130669409D01*
X112115270Y-131301717D01*
X112115270Y-131301716D01*
X112154622Y-131247554D01*
X112251095Y-131058217D01*
X112316757Y-130856130D01*
X112316757Y-130856127D01*
X112350000Y-130646246D01*
X112350000Y-130433753D01*
X112316757Y-130223872D01*
X112316757Y-130223869D01*
X112251095Y-130021782D01*
X112154624Y-129832449D01*
X112115270Y-129778282D01*
X112115269Y-129778282D01*
X111482962Y-130410590D01*
X111465925Y-130347007D01*
X111400099Y-130232993D01*
X111307007Y-130139901D01*
X111192993Y-130074075D01*
X111129409Y-130057037D01*
X111761716Y-129424728D01*
X111707547Y-129385373D01*
X111707547Y-129385372D01*
X111698500Y-129380763D01*
X111647706Y-129332788D01*
X111630912Y-129264966D01*
X111653451Y-129198832D01*
X111698508Y-129159793D01*
X111707816Y-129155051D01*
X111825970Y-129069208D01*
X111879786Y-129030109D01*
X111879788Y-129030106D01*
X111879792Y-129030104D01*
X112030104Y-128879792D01*
X112030106Y-128879788D01*
X112030109Y-128879786D01*
X112155048Y-128707820D01*
X112155047Y-128707820D01*
X112155051Y-128707816D01*
X112251557Y-128518412D01*
X112317246Y-128316243D01*
X112350500Y-128106287D01*
X112350500Y-127893713D01*
X112317246Y-127683757D01*
X112303506Y-127641473D01*
X112301512Y-127571635D01*
X112333755Y-127515478D01*
X113792416Y-126056819D01*
X113853739Y-126023334D01*
X113880097Y-126020500D01*
X115214281Y-126020500D01*
X115281320Y-126040185D01*
X115324765Y-126088205D01*
X115344947Y-126127814D01*
X115344948Y-126127815D01*
X115469890Y-126299786D01*
X115620213Y-126450109D01*
X115792182Y-126575050D01*
X115800946Y-126579516D01*
X115851742Y-126627491D01*
X115868536Y-126695312D01*
X115845998Y-126761447D01*
X115800946Y-126800484D01*
X115792182Y-126804949D01*
X115620213Y-126929890D01*
X115469890Y-127080213D01*
X115344951Y-127252179D01*
X115248444Y-127441585D01*
X115182753Y-127643760D01*
X115149500Y-127853713D01*
X115149500Y-128066286D01*
X115182753Y-128276239D01*
X115248444Y-128478414D01*
X115344951Y-128667820D01*
X115469890Y-128839786D01*
X115620213Y-128990109D01*
X115792182Y-129115050D01*
X115800946Y-129119516D01*
X115851742Y-129167491D01*
X115868536Y-129235312D01*
X115845998Y-129301447D01*
X115800946Y-129340484D01*
X115792182Y-129344949D01*
X115620213Y-129469890D01*
X115469890Y-129620213D01*
X115344951Y-129792179D01*
X115248444Y-129981585D01*
X115182753Y-130183760D01*
X115149500Y-130393713D01*
X115149500Y-130606286D01*
X115172508Y-130751557D01*
X115182754Y-130816243D01*
X115222997Y-130940099D01*
X115248444Y-131018414D01*
X115344951Y-131207820D01*
X115469890Y-131379786D01*
X115620213Y-131530109D01*
X115792179Y-131655048D01*
X115792181Y-131655049D01*
X115792184Y-131655051D01*
X115981588Y-131751557D01*
X116183757Y-131817246D01*
X116393713Y-131850500D01*
X116393714Y-131850500D01*
X116606286Y-131850500D01*
X116606287Y-131850500D01*
X116816243Y-131817246D01*
X117018412Y-131751557D01*
X117207816Y-131655051D01*
X117229789Y-131639086D01*
X117379786Y-131530109D01*
X117379788Y-131530106D01*
X117379792Y-131530104D01*
X117530104Y-131379792D01*
X117530106Y-131379788D01*
X117530109Y-131379786D01*
X117655048Y-131207820D01*
X117655047Y-131207820D01*
X117655051Y-131207816D01*
X117751557Y-131018412D01*
X117817246Y-130816243D01*
X117850500Y-130606287D01*
X117850500Y-130393713D01*
X117817246Y-130183757D01*
X117751557Y-129981588D01*
X117655051Y-129792184D01*
X117655049Y-129792181D01*
X117655048Y-129792179D01*
X117530109Y-129620213D01*
X117379786Y-129469890D01*
X117207820Y-129344951D01*
X117207115Y-129344591D01*
X117199054Y-129340485D01*
X117148259Y-129292512D01*
X117131463Y-129224692D01*
X117153999Y-129158556D01*
X117199054Y-129119515D01*
X117207816Y-129115051D01*
X117229789Y-129099086D01*
X117379786Y-128990109D01*
X117379788Y-128990106D01*
X117379792Y-128990104D01*
X117530104Y-128839792D01*
X117530106Y-128839788D01*
X117530109Y-128839786D01*
X117610180Y-128729576D01*
X117655051Y-128667816D01*
X117663864Y-128650520D01*
X117675235Y-128628205D01*
X117723209Y-128577409D01*
X117785719Y-128560500D01*
X125719913Y-128560500D01*
X125786952Y-128580185D01*
X125832707Y-128632989D01*
X125842651Y-128702147D01*
X125820231Y-128757385D01*
X125794951Y-128792179D01*
X125698444Y-128981585D01*
X125698443Y-128981587D01*
X125698443Y-128981588D01*
X125669973Y-129069208D01*
X125632753Y-129183760D01*
X125599500Y-129393713D01*
X125599500Y-129606286D01*
X125628942Y-129792179D01*
X125632754Y-129816243D01*
X125638016Y-129832439D01*
X125698444Y-130018414D01*
X125794951Y-130207820D01*
X125919890Y-130379786D01*
X126070213Y-130530109D01*
X126242179Y-130655048D01*
X126242181Y-130655049D01*
X126242184Y-130655051D01*
X126431588Y-130751557D01*
X126633757Y-130817246D01*
X126843713Y-130850500D01*
X126843714Y-130850500D01*
X127056286Y-130850500D01*
X127056287Y-130850500D01*
X127266243Y-130817246D01*
X127468412Y-130751557D01*
X127657816Y-130655051D01*
X127679789Y-130639086D01*
X127829786Y-130530109D01*
X127829788Y-130530106D01*
X127829792Y-130530104D01*
X127980104Y-130379792D01*
X127980106Y-130379788D01*
X127980109Y-130379786D01*
X128105048Y-130207820D01*
X128105047Y-130207820D01*
X128105051Y-130207816D01*
X128201557Y-130018412D01*
X128267246Y-129816243D01*
X128300500Y-129606287D01*
X128300500Y-129393713D01*
X128267246Y-129183757D01*
X128253506Y-129141473D01*
X128251512Y-129071635D01*
X128283754Y-129015480D01*
X128492417Y-128806816D01*
X128553739Y-128773334D01*
X128580097Y-128770500D01*
X150853648Y-128770500D01*
X150920687Y-128790185D01*
X150966442Y-128842989D01*
X150976386Y-128912147D01*
X150964132Y-128950796D01*
X150948444Y-128981583D01*
X150882753Y-129183760D01*
X150849500Y-129393713D01*
X150849500Y-129606286D01*
X150878942Y-129792179D01*
X150882754Y-129816243D01*
X150888016Y-129832439D01*
X150948444Y-130018414D01*
X151044951Y-130207820D01*
X151169890Y-130379786D01*
X151320213Y-130530109D01*
X151492179Y-130655048D01*
X151492181Y-130655049D01*
X151492184Y-130655051D01*
X151681588Y-130751557D01*
X151883757Y-130817246D01*
X152093713Y-130850500D01*
X152093714Y-130850500D01*
X152306286Y-130850500D01*
X152306287Y-130850500D01*
X152516243Y-130817246D01*
X152718412Y-130751557D01*
X152907816Y-130655051D01*
X152929789Y-130639086D01*
X153079786Y-130530109D01*
X153079788Y-130530106D01*
X153079792Y-130530104D01*
X153230104Y-130379792D01*
X153230106Y-130379788D01*
X153230109Y-130379786D01*
X153355048Y-130207820D01*
X153355047Y-130207820D01*
X153355051Y-130207816D01*
X153451557Y-130018412D01*
X153517246Y-129816243D01*
X153550500Y-129606287D01*
X153550500Y-129393713D01*
X153517246Y-129183757D01*
X153451557Y-128981588D01*
X153451555Y-128981585D01*
X153451555Y-128981583D01*
X153435868Y-128950796D01*
X153422971Y-128882127D01*
X153449247Y-128817386D01*
X153506353Y-128777128D01*
X153546352Y-128770500D01*
X160870331Y-128770500D01*
X160870347Y-128770501D01*
X160877943Y-128770501D01*
X161036054Y-128770501D01*
X161036057Y-128770501D01*
X161188785Y-128729577D01*
X161238904Y-128700639D01*
X161325716Y-128650520D01*
X161437520Y-128538716D01*
X161437520Y-128538714D01*
X161447728Y-128528507D01*
X161447729Y-128528504D01*
X162349462Y-127626772D01*
X162410783Y-127593289D01*
X162412950Y-127592838D01*
X162470885Y-127581313D01*
X162568297Y-127561937D01*
X162713979Y-127501594D01*
X162845089Y-127413989D01*
X162956589Y-127302489D01*
X163044194Y-127171379D01*
X163104537Y-127025697D01*
X163135300Y-126871042D01*
X163135300Y-126713358D01*
X163135300Y-126713355D01*
X163135299Y-126713353D01*
X163132643Y-126699999D01*
X163104537Y-126558703D01*
X163076123Y-126490104D01*
X163044197Y-126413027D01*
X163044190Y-126413014D01*
X162957864Y-126283819D01*
X162936986Y-126217142D01*
X162950479Y-126158637D01*
X163019873Y-126022445D01*
X163073402Y-125857701D01*
X163100500Y-125686611D01*
X163100500Y-124963389D01*
X163073402Y-124792299D01*
X163019873Y-124627555D01*
X162941232Y-124473212D01*
X162839414Y-124333072D01*
X162716928Y-124210586D01*
X162576788Y-124108768D01*
X162422445Y-124030127D01*
X162257701Y-123976598D01*
X162257699Y-123976597D01*
X162257698Y-123976597D01*
X162126271Y-123955781D01*
X162086611Y-123949500D01*
X161913389Y-123949500D01*
X161873728Y-123955781D01*
X161742302Y-123976597D01*
X161577552Y-124030128D01*
X161423211Y-124108768D01*
X161283073Y-124210585D01*
X161175166Y-124318492D01*
X161113843Y-124351976D01*
X161044151Y-124346992D01*
X160988218Y-124305120D01*
X160981946Y-124295906D01*
X160942317Y-124231656D01*
X160818345Y-124107684D01*
X160669124Y-124015643D01*
X160669119Y-124015641D01*
X160502697Y-123960494D01*
X160502690Y-123960493D01*
X160399986Y-123950000D01*
X160250000Y-123950000D01*
X160250000Y-125044670D01*
X160230255Y-125024925D01*
X160144745Y-124975556D01*
X160049370Y-124950000D01*
X159950630Y-124950000D01*
X159855255Y-124975556D01*
X159769745Y-125024925D01*
X159750000Y-125044670D01*
X159750000Y-123950000D01*
X159600027Y-123950000D01*
X159600012Y-123950001D01*
X159497302Y-123960494D01*
X159330880Y-124015641D01*
X159330875Y-124015643D01*
X159181654Y-124107684D01*
X159057684Y-124231654D01*
X158965643Y-124380875D01*
X158965641Y-124380880D01*
X158910494Y-124547302D01*
X158910493Y-124547309D01*
X158900000Y-124650013D01*
X158900000Y-125075000D01*
X159719670Y-125075000D01*
X159699925Y-125094745D01*
X159650556Y-125180255D01*
X159625000Y-125275630D01*
X159625000Y-125374370D01*
X159650556Y-125469745D01*
X159699925Y-125555255D01*
X159719670Y-125575000D01*
X158900001Y-125575000D01*
X158900001Y-125999986D01*
X158910494Y-126102697D01*
X158965641Y-126269119D01*
X158965643Y-126269124D01*
X159057684Y-126418345D01*
X159181654Y-126542315D01*
X159330875Y-126634356D01*
X159330880Y-126634358D01*
X159497302Y-126689505D01*
X159497309Y-126689506D01*
X159600019Y-126699999D01*
X159749999Y-126699999D01*
X159750000Y-126699998D01*
X159750000Y-125605330D01*
X159769745Y-125625075D01*
X159855255Y-125674444D01*
X159950630Y-125700000D01*
X160049370Y-125700000D01*
X160144745Y-125674444D01*
X160230255Y-125625075D01*
X160250000Y-125605330D01*
X160250000Y-126699999D01*
X160399972Y-126699999D01*
X160399986Y-126699998D01*
X160502697Y-126689505D01*
X160669119Y-126634358D01*
X160669124Y-126634356D01*
X160818345Y-126542315D01*
X160942315Y-126418345D01*
X160981945Y-126354094D01*
X161033893Y-126307368D01*
X161102855Y-126296145D01*
X161166937Y-126323988D01*
X161175166Y-126331508D01*
X161283072Y-126439414D01*
X161362186Y-126496894D01*
X161423207Y-126541229D01*
X161423208Y-126541229D01*
X161423212Y-126541232D01*
X161471529Y-126565850D01*
X161522325Y-126613824D01*
X161539120Y-126681645D01*
X161536853Y-126700520D01*
X161534164Y-126714042D01*
X161501782Y-126775955D01*
X161500226Y-126777538D01*
X160744584Y-127533181D01*
X160683261Y-127566666D01*
X160656903Y-127569500D01*
X153592632Y-127569500D01*
X153525593Y-127549815D01*
X153479838Y-127497011D01*
X153469894Y-127427853D01*
X153474701Y-127407182D01*
X153496904Y-127338848D01*
X153517246Y-127276243D01*
X153550500Y-127066287D01*
X153550500Y-126853713D01*
X153517246Y-126643757D01*
X153451557Y-126441588D01*
X153355051Y-126252184D01*
X153355049Y-126252181D01*
X153355048Y-126252179D01*
X153230109Y-126080213D01*
X153079786Y-125929890D01*
X152907820Y-125804951D01*
X152907115Y-125804591D01*
X152899054Y-125800485D01*
X152848259Y-125752512D01*
X152831463Y-125684692D01*
X152853999Y-125618556D01*
X152899054Y-125579515D01*
X152907816Y-125575051D01*
X152997699Y-125509748D01*
X153079786Y-125450109D01*
X153079788Y-125450106D01*
X153079792Y-125450104D01*
X153230104Y-125299792D01*
X153230106Y-125299788D01*
X153230109Y-125299786D01*
X153316952Y-125180255D01*
X153355051Y-125127816D01*
X153357636Y-125122742D01*
X153375235Y-125088205D01*
X153423209Y-125037409D01*
X153485719Y-125020500D01*
X154757031Y-125020500D01*
X154757047Y-125020501D01*
X154764643Y-125020501D01*
X154922754Y-125020501D01*
X154922757Y-125020501D01*
X155075485Y-124979577D01*
X155125604Y-124950639D01*
X155212416Y-124900520D01*
X155324220Y-124788716D01*
X155324220Y-124788714D01*
X155334428Y-124778507D01*
X155334430Y-124778504D01*
X155376695Y-124736239D01*
X155440162Y-124672772D01*
X155501484Y-124639288D01*
X155503651Y-124638837D01*
X155504340Y-124638700D01*
X155504342Y-124638700D01*
X155658997Y-124607937D01*
X155804679Y-124547594D01*
X155805116Y-124547302D01*
X155810415Y-124543762D01*
X155915999Y-124473212D01*
X155935789Y-124459989D01*
X156047289Y-124348489D01*
X156134894Y-124217379D01*
X156195237Y-124071697D01*
X156226000Y-123917042D01*
X156226000Y-123759358D01*
X156226000Y-123759355D01*
X156225999Y-123759353D01*
X156195238Y-123604710D01*
X156195237Y-123604703D01*
X156168523Y-123540208D01*
X156134897Y-123459027D01*
X156134890Y-123459014D01*
X156047289Y-123327911D01*
X156047286Y-123327907D01*
X155935792Y-123216413D01*
X155935788Y-123216410D01*
X155804685Y-123128809D01*
X155804672Y-123128802D01*
X155659001Y-123068464D01*
X155658989Y-123068461D01*
X155504345Y-123037700D01*
X155504342Y-123037700D01*
X155346658Y-123037700D01*
X155346655Y-123037700D01*
X155192010Y-123068461D01*
X155191998Y-123068464D01*
X155046327Y-123128802D01*
X155046314Y-123128809D01*
X154915211Y-123216410D01*
X154915207Y-123216413D01*
X154803713Y-123327907D01*
X154803710Y-123327911D01*
X154716109Y-123459014D01*
X154716102Y-123459027D01*
X154655764Y-123604698D01*
X154655761Y-123604710D01*
X154632890Y-123719691D01*
X154600505Y-123781602D01*
X154539790Y-123816176D01*
X154511273Y-123819500D01*
X153485719Y-123819500D01*
X153418680Y-123799815D01*
X153375235Y-123751795D01*
X153355052Y-123712185D01*
X153355051Y-123712184D01*
X153230109Y-123540213D01*
X153079786Y-123389890D01*
X152907820Y-123264951D01*
X152907115Y-123264591D01*
X152899054Y-123260485D01*
X152848259Y-123212512D01*
X152831463Y-123144692D01*
X152853999Y-123078556D01*
X152899054Y-123039515D01*
X152907816Y-123035051D01*
X153030625Y-122945826D01*
X153079786Y-122910109D01*
X153079788Y-122910106D01*
X153079792Y-122910104D01*
X153230104Y-122759792D01*
X153230106Y-122759788D01*
X153230109Y-122759786D01*
X153355048Y-122587820D01*
X153355047Y-122587820D01*
X153355051Y-122587816D01*
X153451557Y-122398412D01*
X153517246Y-122196243D01*
X153550500Y-121986287D01*
X153550500Y-121773713D01*
X153517246Y-121563757D01*
X153503506Y-121521473D01*
X153501512Y-121451635D01*
X153533755Y-121395478D01*
X154301516Y-120627719D01*
X154362839Y-120594234D01*
X154389197Y-120591400D01*
X157303934Y-120591400D01*
X157370973Y-120611085D01*
X157372825Y-120612298D01*
X157504514Y-120700290D01*
X157504527Y-120700297D01*
X157650198Y-120760635D01*
X157650203Y-120760637D01*
X157804853Y-120791399D01*
X157804856Y-120791400D01*
X157804858Y-120791400D01*
X157962544Y-120791400D01*
X157962545Y-120791399D01*
X158117197Y-120760637D01*
X158262879Y-120700294D01*
X158393989Y-120612689D01*
X158505489Y-120501189D01*
X158593094Y-120370079D01*
X158653437Y-120224397D01*
X158684200Y-120069742D01*
X158684200Y-119912058D01*
X158684200Y-119912055D01*
X158684199Y-119912053D01*
X158667470Y-119827951D01*
X158653437Y-119757403D01*
X158646678Y-119741086D01*
X158593097Y-119611727D01*
X158593090Y-119611714D01*
X158505489Y-119480611D01*
X158505486Y-119480607D01*
X158414657Y-119389778D01*
X161599500Y-119389778D01*
X161599500Y-119610222D01*
X161601395Y-119622184D01*
X161633985Y-119827952D01*
X161702103Y-120037603D01*
X161702104Y-120037606D01*
X161718479Y-120069742D01*
X161794934Y-120219792D01*
X161802187Y-120234025D01*
X161931752Y-120412358D01*
X161931756Y-120412363D01*
X162087636Y-120568243D01*
X162087641Y-120568247D01*
X162170495Y-120628443D01*
X162265978Y-120697815D01*
X162389268Y-120760635D01*
X162462393Y-120797895D01*
X162462396Y-120797896D01*
X162567221Y-120831955D01*
X162672049Y-120866015D01*
X162889778Y-120900500D01*
X162889779Y-120900500D01*
X163110221Y-120900500D01*
X163110222Y-120900500D01*
X163327951Y-120866015D01*
X163537606Y-120797895D01*
X163734022Y-120697815D01*
X163912365Y-120568242D01*
X164068242Y-120412365D01*
X164197815Y-120234022D01*
X164297895Y-120037606D01*
X164366015Y-119827951D01*
X164400500Y-119610222D01*
X164400500Y-119389778D01*
X164366015Y-119172049D01*
X164297895Y-118962394D01*
X164297895Y-118962393D01*
X164263237Y-118894375D01*
X164197815Y-118765978D01*
X164144181Y-118692157D01*
X164068247Y-118587641D01*
X164068243Y-118587636D01*
X163912363Y-118431756D01*
X163912358Y-118431752D01*
X163734025Y-118302187D01*
X163734024Y-118302186D01*
X163734022Y-118302185D01*
X163671096Y-118270122D01*
X163537606Y-118202104D01*
X163537603Y-118202103D01*
X163327952Y-118133985D01*
X163219086Y-118116742D01*
X163110222Y-118099500D01*
X162889778Y-118099500D01*
X162817201Y-118110995D01*
X162672047Y-118133985D01*
X162462396Y-118202103D01*
X162462393Y-118202104D01*
X162265974Y-118302187D01*
X162087641Y-118431752D01*
X162087636Y-118431756D01*
X161931756Y-118587636D01*
X161931752Y-118587641D01*
X161802187Y-118765974D01*
X161702104Y-118962393D01*
X161702103Y-118962396D01*
X161633985Y-119172047D01*
X161602773Y-119369111D01*
X161599500Y-119389778D01*
X158414657Y-119389778D01*
X158393992Y-119369113D01*
X158393988Y-119369110D01*
X158262885Y-119281509D01*
X158262872Y-119281502D01*
X158117201Y-119221164D01*
X158117189Y-119221161D01*
X157962545Y-119190400D01*
X157962542Y-119190400D01*
X157804858Y-119190400D01*
X157804855Y-119190400D01*
X157650210Y-119221161D01*
X157650198Y-119221164D01*
X157504527Y-119281502D01*
X157504514Y-119281509D01*
X157372825Y-119369502D01*
X157306147Y-119390380D01*
X157303934Y-119390400D01*
X154175769Y-119390400D01*
X154175753Y-119390399D01*
X154168157Y-119390399D01*
X154010043Y-119390399D01*
X153895497Y-119421092D01*
X153857314Y-119431323D01*
X153831397Y-119446287D01*
X153831396Y-119446287D01*
X153736500Y-119501075D01*
X153668600Y-119517548D01*
X153602573Y-119494695D01*
X153559382Y-119439774D01*
X153550500Y-119393688D01*
X153550500Y-119233713D01*
X153517246Y-119023760D01*
X153517246Y-119023757D01*
X153451557Y-118821588D01*
X153355051Y-118632184D01*
X153355049Y-118632181D01*
X153355048Y-118632179D01*
X153230104Y-118460207D01*
X153228371Y-118458178D01*
X153227953Y-118457247D01*
X153227241Y-118456266D01*
X153227446Y-118456116D01*
X153199795Y-118394419D01*
X153210227Y-118325333D01*
X153234971Y-118289962D01*
X153752706Y-117772228D01*
X153752711Y-117772224D01*
X153762914Y-117762020D01*
X153762916Y-117762020D01*
X153874720Y-117650216D01*
X153937323Y-117541784D01*
X153953777Y-117513285D01*
X153994701Y-117360557D01*
X153994701Y-117202443D01*
X153994701Y-117194848D01*
X153994700Y-117194830D01*
X153994700Y-115543259D01*
X153994701Y-115543246D01*
X153994701Y-115375145D01*
X153994701Y-115375143D01*
X153953777Y-115222415D01*
X153904914Y-115137782D01*
X153889817Y-115111633D01*
X153874721Y-115085485D01*
X153758585Y-114969349D01*
X153758574Y-114969339D01*
X153533757Y-114744522D01*
X153500272Y-114683199D01*
X153503507Y-114618523D01*
X153517246Y-114576243D01*
X153546779Y-114389778D01*
X161599500Y-114389778D01*
X161599500Y-114610222D01*
X161612261Y-114690791D01*
X161633985Y-114827952D01*
X161702103Y-115037603D01*
X161702104Y-115037606D01*
X161802187Y-115234025D01*
X161931752Y-115412358D01*
X161931756Y-115412363D01*
X162087636Y-115568243D01*
X162087641Y-115568247D01*
X162203037Y-115652086D01*
X162265978Y-115697815D01*
X162365340Y-115748443D01*
X162462393Y-115797895D01*
X162462396Y-115797896D01*
X162551082Y-115826711D01*
X162672049Y-115866015D01*
X162889778Y-115900500D01*
X162889779Y-115900500D01*
X163110221Y-115900500D01*
X163110222Y-115900500D01*
X163327951Y-115866015D01*
X163537606Y-115797895D01*
X163734022Y-115697815D01*
X163912365Y-115568242D01*
X164068242Y-115412365D01*
X164197815Y-115234022D01*
X164297895Y-115037606D01*
X164366015Y-114827951D01*
X164400500Y-114610222D01*
X164400500Y-114389778D01*
X164366015Y-114172049D01*
X164297895Y-113962394D01*
X164297895Y-113962393D01*
X164222321Y-113814074D01*
X164197815Y-113765978D01*
X164135832Y-113680665D01*
X164068247Y-113587641D01*
X164068243Y-113587636D01*
X163912363Y-113431756D01*
X163912358Y-113431752D01*
X163734025Y-113302187D01*
X163734024Y-113302186D01*
X163734022Y-113302185D01*
X163651444Y-113260109D01*
X163537606Y-113202104D01*
X163537603Y-113202103D01*
X163327952Y-113133985D01*
X163175165Y-113109786D01*
X163110222Y-113099500D01*
X162889778Y-113099500D01*
X162855362Y-113104951D01*
X162672047Y-113133985D01*
X162462396Y-113202103D01*
X162462393Y-113202104D01*
X162265974Y-113302187D01*
X162087641Y-113431752D01*
X162087636Y-113431756D01*
X161931756Y-113587636D01*
X161931752Y-113587641D01*
X161802187Y-113765974D01*
X161702104Y-113962393D01*
X161702103Y-113962396D01*
X161633985Y-114172047D01*
X161621387Y-114251588D01*
X161599500Y-114389778D01*
X153546779Y-114389778D01*
X153550500Y-114366287D01*
X153550500Y-114153713D01*
X153517246Y-113943757D01*
X153451557Y-113741588D01*
X153355051Y-113552184D01*
X153355049Y-113552181D01*
X153355048Y-113552179D01*
X153230109Y-113380213D01*
X153079786Y-113229890D01*
X152907820Y-113104951D01*
X152907115Y-113104591D01*
X152899054Y-113100485D01*
X152848259Y-113052512D01*
X152831463Y-112984692D01*
X152853999Y-112918556D01*
X152899054Y-112879515D01*
X152907816Y-112875051D01*
X153011402Y-112799792D01*
X153079786Y-112750109D01*
X153079788Y-112750106D01*
X153079792Y-112750104D01*
X153230104Y-112599792D01*
X153230106Y-112599788D01*
X153230109Y-112599786D01*
X153355048Y-112427820D01*
X153355047Y-112427820D01*
X153355051Y-112427816D01*
X153451557Y-112238412D01*
X153517246Y-112036243D01*
X153550500Y-111826287D01*
X153550500Y-111613713D01*
X153517246Y-111403757D01*
X153451557Y-111201588D01*
X153355051Y-111012184D01*
X153355049Y-111012181D01*
X153355048Y-111012179D01*
X153230109Y-110840213D01*
X153079786Y-110689890D01*
X152907820Y-110564951D01*
X152907115Y-110564591D01*
X152899054Y-110560485D01*
X152848259Y-110512512D01*
X152831463Y-110444692D01*
X152853999Y-110378556D01*
X152899054Y-110339515D01*
X152907816Y-110335051D01*
X152986502Y-110277883D01*
X153079786Y-110210109D01*
X153079788Y-110210106D01*
X153079792Y-110210104D01*
X153230104Y-110059792D01*
X153230106Y-110059788D01*
X153230109Y-110059786D01*
X153355048Y-109887820D01*
X153355047Y-109887820D01*
X153355051Y-109887816D01*
X153451557Y-109698412D01*
X153517246Y-109496243D01*
X153550500Y-109286287D01*
X153550500Y-109073713D01*
X153517246Y-108863757D01*
X153455206Y-108672818D01*
X153453211Y-108602977D01*
X153489291Y-108543144D01*
X153551992Y-108512316D01*
X153573137Y-108510500D01*
X161109903Y-108510500D01*
X161176942Y-108530185D01*
X161197584Y-108546819D01*
X161626561Y-108975796D01*
X161660046Y-109037119D01*
X161656811Y-109101794D01*
X161633985Y-109172045D01*
X161599500Y-109389778D01*
X161599500Y-109610221D01*
X161633985Y-109827952D01*
X161702103Y-110037603D01*
X161702104Y-110037606D01*
X161762392Y-110155925D01*
X161779754Y-110190000D01*
X161802187Y-110234025D01*
X161931752Y-110412358D01*
X161931756Y-110412363D01*
X162087636Y-110568243D01*
X162087641Y-110568247D01*
X162196558Y-110647379D01*
X162265978Y-110697815D01*
X162347469Y-110739337D01*
X162462393Y-110797895D01*
X162462396Y-110797896D01*
X162560460Y-110829758D01*
X162672049Y-110866015D01*
X162889778Y-110900500D01*
X162889779Y-110900500D01*
X163110221Y-110900500D01*
X163110222Y-110900500D01*
X163327951Y-110866015D01*
X163537606Y-110797895D01*
X163734022Y-110697815D01*
X163912365Y-110568242D01*
X164068242Y-110412365D01*
X164197815Y-110234022D01*
X164297895Y-110037606D01*
X164366015Y-109827951D01*
X164400500Y-109610222D01*
X164400500Y-109389778D01*
X164366015Y-109172049D01*
X164313780Y-109011284D01*
X164297896Y-108962396D01*
X164297895Y-108962393D01*
X164247636Y-108863757D01*
X164197815Y-108765978D01*
X164130131Y-108672818D01*
X164068247Y-108587641D01*
X164068243Y-108587636D01*
X163912363Y-108431756D01*
X163912358Y-108431752D01*
X163734025Y-108302187D01*
X163734024Y-108302186D01*
X163734022Y-108302185D01*
X163669262Y-108269188D01*
X163537606Y-108202104D01*
X163537603Y-108202103D01*
X163327952Y-108133985D01*
X163219086Y-108116742D01*
X163110222Y-108099500D01*
X162889778Y-108099500D01*
X162846232Y-108106397D01*
X162672045Y-108133985D01*
X162601794Y-108156811D01*
X162531953Y-108158806D01*
X162475796Y-108126561D01*
X161897590Y-107548355D01*
X161897588Y-107548352D01*
X161778717Y-107429481D01*
X161778716Y-107429480D01*
X161691904Y-107379360D01*
X161691904Y-107379359D01*
X161691900Y-107379358D01*
X161641785Y-107350423D01*
X161489057Y-107309499D01*
X161330943Y-107309499D01*
X161323347Y-107309499D01*
X161323331Y-107309500D01*
X153573137Y-107309500D01*
X153506098Y-107289815D01*
X153460343Y-107237011D01*
X153450399Y-107167853D01*
X153455206Y-107147182D01*
X153480027Y-107070791D01*
X153517246Y-106956243D01*
X153550500Y-106746287D01*
X153550500Y-106533713D01*
X153517246Y-106323757D01*
X153451557Y-106121588D01*
X153355051Y-105932184D01*
X153355049Y-105932181D01*
X153355048Y-105932179D01*
X153230109Y-105760213D01*
X153079786Y-105609890D01*
X152907820Y-105484951D01*
X152907115Y-105484591D01*
X152899054Y-105480485D01*
X152848259Y-105432512D01*
X152831463Y-105364692D01*
X152853999Y-105298556D01*
X152899054Y-105259515D01*
X152907816Y-105255051D01*
X152983874Y-105199792D01*
X153079786Y-105130109D01*
X153079788Y-105130106D01*
X153079792Y-105130104D01*
X153230104Y-104979792D01*
X153230106Y-104979788D01*
X153230109Y-104979786D01*
X153355048Y-104807820D01*
X153355047Y-104807820D01*
X153355051Y-104807816D01*
X153451557Y-104618412D01*
X153517246Y-104416243D01*
X153550500Y-104206287D01*
X153550500Y-103993713D01*
X153517246Y-103783757D01*
X153451557Y-103581588D01*
X153355051Y-103392184D01*
X153347023Y-103381134D01*
X153230109Y-103220213D01*
X153079786Y-103069890D01*
X152907820Y-102944951D01*
X152907115Y-102944591D01*
X152899054Y-102940485D01*
X152848259Y-102892512D01*
X152831463Y-102824692D01*
X152853999Y-102758556D01*
X152899054Y-102719515D01*
X152907816Y-102715051D01*
X152983874Y-102659792D01*
X153079786Y-102590109D01*
X153079788Y-102590106D01*
X153079792Y-102590104D01*
X153230104Y-102439792D01*
X153230106Y-102439788D01*
X153230109Y-102439786D01*
X153355048Y-102267820D01*
X153355047Y-102267820D01*
X153355051Y-102267816D01*
X153451557Y-102078412D01*
X153517246Y-101876243D01*
X153550500Y-101666287D01*
X153550500Y-101453713D01*
X153517246Y-101243757D01*
X153451557Y-101041588D01*
X153355051Y-100852184D01*
X153355049Y-100852181D01*
X153355048Y-100852179D01*
X153230109Y-100680213D01*
X153079786Y-100529890D01*
X152907820Y-100404951D01*
X152907115Y-100404591D01*
X152899054Y-100400485D01*
X152848259Y-100352512D01*
X152831463Y-100284692D01*
X152853999Y-100218556D01*
X152899054Y-100179515D01*
X152907816Y-100175051D01*
X152983874Y-100119792D01*
X153079786Y-100050109D01*
X153079788Y-100050106D01*
X153079792Y-100050104D01*
X153230104Y-99899792D01*
X153230106Y-99899788D01*
X153230109Y-99899786D01*
X153355048Y-99727820D01*
X153355047Y-99727820D01*
X153355051Y-99727816D01*
X153451557Y-99538412D01*
X153517246Y-99336243D01*
X153550500Y-99126287D01*
X153550500Y-98913713D01*
X153517246Y-98703757D01*
X153451557Y-98501588D01*
X153396592Y-98393713D01*
X162149500Y-98393713D01*
X162149500Y-98606286D01*
X162182753Y-98816239D01*
X162248444Y-99018414D01*
X162344951Y-99207820D01*
X162469890Y-99379786D01*
X162620213Y-99530109D01*
X162792182Y-99655050D01*
X162800946Y-99659516D01*
X162851742Y-99707491D01*
X162868536Y-99775312D01*
X162845998Y-99841447D01*
X162800946Y-99880484D01*
X162792182Y-99884949D01*
X162620213Y-100009890D01*
X162469890Y-100160213D01*
X162344951Y-100332179D01*
X162248444Y-100521585D01*
X162182753Y-100723760D01*
X162149500Y-100933713D01*
X162149500Y-101146286D01*
X162167761Y-101261585D01*
X162182754Y-101356243D01*
X162239604Y-101531209D01*
X162248444Y-101558414D01*
X162344951Y-101747820D01*
X162469890Y-101919786D01*
X162620213Y-102070109D01*
X162792179Y-102195048D01*
X162792181Y-102195049D01*
X162792184Y-102195051D01*
X162801493Y-102199794D01*
X162852290Y-102247766D01*
X162869087Y-102315587D01*
X162846552Y-102381722D01*
X162801505Y-102420760D01*
X162792446Y-102425376D01*
X162792440Y-102425380D01*
X162738282Y-102464727D01*
X162738282Y-102464728D01*
X163370591Y-103097037D01*
X163307007Y-103114075D01*
X163192993Y-103179901D01*
X163099901Y-103272993D01*
X163034075Y-103387007D01*
X163017037Y-103450591D01*
X162384728Y-102818282D01*
X162384727Y-102818282D01*
X162345380Y-102872439D01*
X162248904Y-103061782D01*
X162183242Y-103263869D01*
X162183242Y-103263872D01*
X162150000Y-103473753D01*
X162150000Y-103686246D01*
X162183242Y-103896127D01*
X162183242Y-103896130D01*
X162248904Y-104098217D01*
X162345375Y-104287550D01*
X162384728Y-104341716D01*
X163017037Y-103709408D01*
X163034075Y-103772993D01*
X163099901Y-103887007D01*
X163192993Y-103980099D01*
X163307007Y-104045925D01*
X163370590Y-104062962D01*
X162738282Y-104695269D01*
X162738282Y-104695270D01*
X162792449Y-104734624D01*
X162981782Y-104831095D01*
X163183870Y-104896757D01*
X163393754Y-104930000D01*
X163606246Y-104930000D01*
X163816127Y-104896757D01*
X163816130Y-104896757D01*
X164018217Y-104831095D01*
X164207554Y-104734622D01*
X164261716Y-104695270D01*
X164261717Y-104695270D01*
X163629408Y-104062962D01*
X163692993Y-104045925D01*
X163807007Y-103980099D01*
X163900099Y-103887007D01*
X163965925Y-103772993D01*
X163982962Y-103709408D01*
X164615270Y-104341717D01*
X164615270Y-104341716D01*
X164654622Y-104287554D01*
X164751095Y-104098217D01*
X164816757Y-103896130D01*
X164816757Y-103896127D01*
X164850000Y-103686246D01*
X164850000Y-103473753D01*
X164816757Y-103263872D01*
X164816757Y-103263869D01*
X164751095Y-103061782D01*
X164654624Y-102872449D01*
X164615270Y-102818282D01*
X164615269Y-102818282D01*
X163982962Y-103450590D01*
X163965925Y-103387007D01*
X163900099Y-103272993D01*
X163807007Y-103179901D01*
X163692993Y-103114075D01*
X163629409Y-103097037D01*
X164261716Y-102464728D01*
X164207547Y-102425373D01*
X164207547Y-102425372D01*
X164198500Y-102420763D01*
X164147706Y-102372788D01*
X164130912Y-102304966D01*
X164153451Y-102238832D01*
X164198508Y-102199793D01*
X164207816Y-102195051D01*
X164343815Y-102096243D01*
X164379786Y-102070109D01*
X164379788Y-102070106D01*
X164379792Y-102070104D01*
X164530104Y-101919792D01*
X164530106Y-101919788D01*
X164530109Y-101919786D01*
X164655048Y-101747820D01*
X164655047Y-101747820D01*
X164655051Y-101747816D01*
X164751557Y-101558412D01*
X164817246Y-101356243D01*
X164850500Y-101146287D01*
X164850500Y-100933713D01*
X164817246Y-100723757D01*
X164751557Y-100521588D01*
X164655051Y-100332184D01*
X164655049Y-100332181D01*
X164655048Y-100332179D01*
X164530109Y-100160213D01*
X164379786Y-100009890D01*
X164207820Y-99884951D01*
X164207115Y-99884591D01*
X164199054Y-99880485D01*
X164148259Y-99832512D01*
X164131463Y-99764692D01*
X164153999Y-99698556D01*
X164199054Y-99659515D01*
X164207816Y-99655051D01*
X164343815Y-99556243D01*
X164379786Y-99530109D01*
X164379788Y-99530106D01*
X164379792Y-99530104D01*
X164530104Y-99379792D01*
X164530106Y-99379788D01*
X164530109Y-99379786D01*
X164655048Y-99207820D01*
X164655047Y-99207820D01*
X164655051Y-99207816D01*
X164751557Y-99018412D01*
X164817246Y-98816243D01*
X164850500Y-98606287D01*
X164850500Y-98393713D01*
X164817246Y-98183757D01*
X164751557Y-97981588D01*
X164655051Y-97792184D01*
X164655049Y-97792181D01*
X164655048Y-97792179D01*
X164530109Y-97620213D01*
X164416181Y-97506285D01*
X164382696Y-97444962D01*
X164387680Y-97375270D01*
X164429552Y-97319337D01*
X164460529Y-97302422D01*
X164592086Y-97253354D01*
X164592093Y-97253350D01*
X164707187Y-97167190D01*
X164707190Y-97167187D01*
X164793350Y-97052093D01*
X164793354Y-97052086D01*
X164843596Y-96917379D01*
X164843598Y-96917372D01*
X164849999Y-96857844D01*
X164850000Y-96857827D01*
X164850000Y-96210000D01*
X163933012Y-96210000D01*
X163965925Y-96152993D01*
X164000000Y-96025826D01*
X164000000Y-95894174D01*
X163965925Y-95767007D01*
X163933012Y-95710000D01*
X164850000Y-95710000D01*
X164850000Y-95062172D01*
X164849999Y-95062155D01*
X164843598Y-95002627D01*
X164843596Y-95002620D01*
X164793354Y-94867913D01*
X164793350Y-94867906D01*
X164707190Y-94752812D01*
X164707187Y-94752809D01*
X164592093Y-94666649D01*
X164592086Y-94666645D01*
X164457379Y-94616403D01*
X164457372Y-94616401D01*
X164397844Y-94610000D01*
X163750000Y-94610000D01*
X163750000Y-95526988D01*
X163692993Y-95494075D01*
X163565826Y-95460000D01*
X163434174Y-95460000D01*
X163307007Y-95494075D01*
X163250000Y-95526988D01*
X163250000Y-94610000D01*
X162602155Y-94610000D01*
X162542627Y-94616401D01*
X162542620Y-94616403D01*
X162407913Y-94666645D01*
X162407906Y-94666649D01*
X162292812Y-94752809D01*
X162292809Y-94752812D01*
X162206649Y-94867906D01*
X162206645Y-94867913D01*
X162156403Y-95002620D01*
X162156401Y-95002627D01*
X162150000Y-95062155D01*
X162150000Y-95710000D01*
X163066988Y-95710000D01*
X163034075Y-95767007D01*
X163000000Y-95894174D01*
X163000000Y-96025826D01*
X163034075Y-96152993D01*
X163066988Y-96210000D01*
X162150000Y-96210000D01*
X162150000Y-96857844D01*
X162156401Y-96917372D01*
X162156403Y-96917379D01*
X162206645Y-97052086D01*
X162206649Y-97052093D01*
X162292809Y-97167187D01*
X162292812Y-97167190D01*
X162407906Y-97253350D01*
X162407913Y-97253354D01*
X162539470Y-97302422D01*
X162595404Y-97344293D01*
X162619821Y-97409758D01*
X162604969Y-97478031D01*
X162583819Y-97506285D01*
X162469889Y-97620215D01*
X162344951Y-97792179D01*
X162248444Y-97981585D01*
X162182753Y-98183760D01*
X162149500Y-98393713D01*
X153396592Y-98393713D01*
X153355051Y-98312184D01*
X153355049Y-98312181D01*
X153355048Y-98312179D01*
X153230109Y-98140213D01*
X153079786Y-97989890D01*
X152907817Y-97864949D01*
X152898504Y-97860204D01*
X152847707Y-97812230D01*
X152830912Y-97744409D01*
X152853449Y-97678274D01*
X152898507Y-97639232D01*
X152907555Y-97634622D01*
X152961716Y-97595270D01*
X152961717Y-97595270D01*
X152329408Y-96962962D01*
X152392993Y-96945925D01*
X152507007Y-96880099D01*
X152600099Y-96787007D01*
X152665925Y-96672993D01*
X152682962Y-96609408D01*
X153315270Y-97241717D01*
X153315270Y-97241716D01*
X153354622Y-97187554D01*
X153451095Y-96998217D01*
X153516757Y-96796130D01*
X153516757Y-96796127D01*
X153550000Y-96586246D01*
X153550000Y-96373753D01*
X153516757Y-96163872D01*
X153516757Y-96163869D01*
X153451095Y-95961782D01*
X153354624Y-95772449D01*
X153315270Y-95718282D01*
X153315269Y-95718282D01*
X152682962Y-96350590D01*
X152665925Y-96287007D01*
X152600099Y-96172993D01*
X152507007Y-96079901D01*
X152392993Y-96014075D01*
X152329409Y-95997037D01*
X152961716Y-95364728D01*
X152907547Y-95325373D01*
X152907547Y-95325372D01*
X152898500Y-95320763D01*
X152847706Y-95272788D01*
X152830912Y-95204966D01*
X152853451Y-95138832D01*
X152898508Y-95099793D01*
X152907816Y-95095051D01*
X152987007Y-95037515D01*
X153079786Y-94970109D01*
X153079788Y-94970106D01*
X153079792Y-94970104D01*
X153230104Y-94819792D01*
X153230106Y-94819788D01*
X153230109Y-94819786D01*
X153355048Y-94647820D01*
X153355047Y-94647820D01*
X153355051Y-94647816D01*
X153451557Y-94458412D01*
X153517246Y-94256243D01*
X153550500Y-94046287D01*
X153550500Y-93833713D01*
X153517246Y-93623757D01*
X153451557Y-93421588D01*
X153355051Y-93232184D01*
X153355049Y-93232181D01*
X153355048Y-93232179D01*
X153230109Y-93060213D01*
X153079786Y-92909890D01*
X152907820Y-92784951D01*
X152718414Y-92688444D01*
X152718413Y-92688443D01*
X152718412Y-92688443D01*
X152516243Y-92622754D01*
X152516241Y-92622753D01*
X152516240Y-92622753D01*
X152354957Y-92597208D01*
X152306287Y-92589500D01*
X152093713Y-92589500D01*
X152045042Y-92597208D01*
X151883760Y-92622753D01*
X151681585Y-92688444D01*
X151492179Y-92784951D01*
X151320213Y-92909890D01*
X151169890Y-93060213D01*
X151044951Y-93232179D01*
X150948444Y-93421585D01*
X150948443Y-93421587D01*
X150948443Y-93421588D01*
X150922704Y-93500805D01*
X150882753Y-93623760D01*
X150856037Y-93792440D01*
X150849500Y-93833713D01*
X150849500Y-94046287D01*
X150882754Y-94256243D01*
X150947752Y-94456286D01*
X150948444Y-94458414D01*
X151044951Y-94647820D01*
X151169890Y-94819786D01*
X151320213Y-94970109D01*
X151492179Y-95095048D01*
X151492181Y-95095049D01*
X151492184Y-95095051D01*
X151501493Y-95099794D01*
X151552290Y-95147766D01*
X151569087Y-95215587D01*
X151546552Y-95281722D01*
X151501505Y-95320760D01*
X151492446Y-95325376D01*
X151492440Y-95325380D01*
X151438282Y-95364727D01*
X151438282Y-95364728D01*
X152070591Y-95997037D01*
X152007007Y-96014075D01*
X151892993Y-96079901D01*
X151799901Y-96172993D01*
X151734075Y-96287007D01*
X151717037Y-96350591D01*
X151084728Y-95718282D01*
X151084727Y-95718282D01*
X151045380Y-95772439D01*
X150948904Y-95961782D01*
X150883242Y-96163869D01*
X150883242Y-96163872D01*
X150850000Y-96373753D01*
X150850000Y-96586246D01*
X150883242Y-96796127D01*
X150883242Y-96796130D01*
X150948904Y-96998217D01*
X151045375Y-97187550D01*
X151084728Y-97241716D01*
X151717037Y-96609408D01*
X151734075Y-96672993D01*
X151799901Y-96787007D01*
X151892993Y-96880099D01*
X152007007Y-96945925D01*
X152070590Y-96962962D01*
X151438282Y-97595269D01*
X151438282Y-97595270D01*
X151492452Y-97634626D01*
X151492451Y-97634626D01*
X151501495Y-97639234D01*
X151552292Y-97687208D01*
X151569087Y-97755029D01*
X151546550Y-97821164D01*
X151501499Y-97860202D01*
X151492182Y-97864949D01*
X151320213Y-97989890D01*
X151169890Y-98140213D01*
X151044948Y-98312184D01*
X151044947Y-98312185D01*
X151024765Y-98351795D01*
X150976791Y-98402591D01*
X150914281Y-98419500D01*
X146676598Y-98419500D01*
X146609559Y-98399815D01*
X146588917Y-98383181D01*
X145650698Y-97444962D01*
X144112106Y-95906371D01*
X144078622Y-95845049D01*
X144083606Y-95775357D01*
X144125478Y-95719424D01*
X144143493Y-95708206D01*
X144247816Y-95655051D01*
X144321445Y-95601557D01*
X144419786Y-95530109D01*
X144419788Y-95530106D01*
X144419792Y-95530104D01*
X144570104Y-95379792D01*
X144570106Y-95379788D01*
X144570109Y-95379786D01*
X144637515Y-95287007D01*
X144695051Y-95207816D01*
X144699793Y-95198508D01*
X144747763Y-95147711D01*
X144815583Y-95130911D01*
X144881719Y-95153445D01*
X144920763Y-95198500D01*
X144925373Y-95207547D01*
X144964728Y-95261716D01*
X145597037Y-94629408D01*
X145614075Y-94692993D01*
X145679901Y-94807007D01*
X145772993Y-94900099D01*
X145887007Y-94965925D01*
X145950590Y-94982962D01*
X145318282Y-95615269D01*
X145318282Y-95615270D01*
X145372449Y-95654624D01*
X145561782Y-95751095D01*
X145763870Y-95816757D01*
X145973754Y-95850000D01*
X146186246Y-95850000D01*
X146396127Y-95816757D01*
X146396130Y-95816757D01*
X146598217Y-95751095D01*
X146787554Y-95654622D01*
X146841716Y-95615270D01*
X146841717Y-95615270D01*
X146209408Y-94982962D01*
X146272993Y-94965925D01*
X146387007Y-94900099D01*
X146480099Y-94807007D01*
X146545925Y-94692993D01*
X146562962Y-94629409D01*
X147195270Y-95261717D01*
X147195270Y-95261716D01*
X147234622Y-95207554D01*
X147331095Y-95018217D01*
X147396757Y-94816130D01*
X147396757Y-94816127D01*
X147430000Y-94606246D01*
X147430000Y-94393753D01*
X147396757Y-94183872D01*
X147396757Y-94183869D01*
X147331095Y-93981782D01*
X147281851Y-93885136D01*
X147234624Y-93792449D01*
X147195270Y-93738282D01*
X147195269Y-93738282D01*
X146562962Y-94370590D01*
X146545925Y-94307007D01*
X146480099Y-94192993D01*
X146387007Y-94099901D01*
X146272993Y-94034075D01*
X146209409Y-94017037D01*
X146841716Y-93384728D01*
X146787550Y-93345375D01*
X146598217Y-93248904D01*
X146396129Y-93183242D01*
X146186246Y-93150000D01*
X145973754Y-93150000D01*
X145763872Y-93183242D01*
X145763869Y-93183242D01*
X145561782Y-93248904D01*
X145372439Y-93345380D01*
X145318282Y-93384727D01*
X145318282Y-93384728D01*
X145950591Y-94017037D01*
X145887007Y-94034075D01*
X145772993Y-94099901D01*
X145679901Y-94192993D01*
X145614075Y-94307007D01*
X145597037Y-94370591D01*
X144964728Y-93738282D01*
X144964727Y-93738282D01*
X144925380Y-93792440D01*
X144925376Y-93792446D01*
X144920760Y-93801505D01*
X144872781Y-93852297D01*
X144804959Y-93869087D01*
X144738826Y-93846543D01*
X144699794Y-93801493D01*
X144695051Y-93792184D01*
X144695049Y-93792181D01*
X144695048Y-93792179D01*
X144570109Y-93620213D01*
X144419786Y-93469890D01*
X144247820Y-93344951D01*
X144058414Y-93248444D01*
X144058413Y-93248443D01*
X144058412Y-93248443D01*
X143856243Y-93182754D01*
X143856241Y-93182753D01*
X143856240Y-93182753D01*
X143694957Y-93157208D01*
X143646287Y-93149500D01*
X143433713Y-93149500D01*
X143385042Y-93157208D01*
X143223760Y-93182753D01*
X143021585Y-93248444D01*
X142832180Y-93344951D01*
X142660206Y-93469896D01*
X142657455Y-93472246D01*
X142593689Y-93500805D01*
X142524605Y-93490357D01*
X142489258Y-93465623D01*
X141962990Y-92939355D01*
X141962988Y-92939352D01*
X141844117Y-92820481D01*
X141844116Y-92820480D01*
X141757304Y-92770360D01*
X141757304Y-92770359D01*
X141757300Y-92770358D01*
X141707185Y-92741423D01*
X141554457Y-92700499D01*
X141396343Y-92700499D01*
X141388747Y-92700499D01*
X141388731Y-92700500D01*
X139738057Y-92700500D01*
X139579943Y-92700500D01*
X139427215Y-92741423D01*
X139427214Y-92741423D01*
X139427212Y-92741424D01*
X139427209Y-92741425D01*
X139377096Y-92770359D01*
X139377095Y-92770360D01*
X139333689Y-92795420D01*
X139290285Y-92820479D01*
X139290282Y-92820481D01*
X139178478Y-92932286D01*
X138944522Y-93166241D01*
X138883199Y-93199726D01*
X138818523Y-93196491D01*
X138776245Y-93182754D01*
X138636272Y-93160584D01*
X138566287Y-93149500D01*
X138353713Y-93149500D01*
X138305042Y-93157208D01*
X138143760Y-93182753D01*
X137941585Y-93248444D01*
X137752179Y-93344951D01*
X137580213Y-93469890D01*
X137429890Y-93620213D01*
X137304949Y-93792182D01*
X137300484Y-93800946D01*
X137252509Y-93851742D01*
X137184688Y-93868536D01*
X137118553Y-93845998D01*
X137079516Y-93800946D01*
X137075050Y-93792182D01*
X136950109Y-93620213D01*
X136799786Y-93469890D01*
X136627819Y-93344951D01*
X136627818Y-93344950D01*
X136627816Y-93344949D01*
X136574918Y-93317996D01*
X136528328Y-93294257D01*
X136477532Y-93246282D01*
X136460737Y-93178461D01*
X136483275Y-93112326D01*
X136496936Y-93096098D01*
X138530117Y-91062919D01*
X138591440Y-91029434D01*
X138617798Y-91026600D01*
X156681111Y-91026600D01*
X156748150Y-91046285D01*
X156793905Y-91099089D01*
X156803849Y-91168247D01*
X156791596Y-91206895D01*
X156748444Y-91291585D01*
X156682753Y-91493760D01*
X156679593Y-91513713D01*
X156649500Y-91703713D01*
X156649500Y-91916287D01*
X156682754Y-92126243D01*
X156748249Y-92327816D01*
X156748444Y-92328414D01*
X156844951Y-92517820D01*
X156969890Y-92689786D01*
X157120213Y-92840109D01*
X157292182Y-92965050D01*
X157300946Y-92969516D01*
X157351742Y-93017491D01*
X157368536Y-93085312D01*
X157345998Y-93151447D01*
X157300946Y-93190484D01*
X157292182Y-93194949D01*
X157120213Y-93319890D01*
X156969890Y-93470213D01*
X156844951Y-93642179D01*
X156748444Y-93831585D01*
X156682753Y-94033760D01*
X156649500Y-94243713D01*
X156649500Y-94456286D01*
X156673561Y-94608205D01*
X156682754Y-94666243D01*
X156748249Y-94867816D01*
X156748444Y-94868414D01*
X156844951Y-95057820D01*
X156969890Y-95229786D01*
X157120213Y-95380109D01*
X157292179Y-95505048D01*
X157292181Y-95505049D01*
X157292184Y-95505051D01*
X157481588Y-95601557D01*
X157683757Y-95667246D01*
X157893713Y-95700500D01*
X157893714Y-95700500D01*
X158106286Y-95700500D01*
X158106287Y-95700500D01*
X158316243Y-95667246D01*
X158518412Y-95601557D01*
X158707816Y-95505051D01*
X158785731Y-95448443D01*
X158879786Y-95380109D01*
X158879788Y-95380106D01*
X158879792Y-95380104D01*
X159030104Y-95229792D01*
X159030106Y-95229788D01*
X159030109Y-95229786D01*
X159128000Y-95095049D01*
X159155051Y-95057816D01*
X159251557Y-94868412D01*
X159317246Y-94666243D01*
X159350500Y-94456287D01*
X159350500Y-94243713D01*
X159317246Y-94033757D01*
X159251557Y-93831588D01*
X159155051Y-93642184D01*
X159155049Y-93642181D01*
X159155048Y-93642179D01*
X159030109Y-93470213D01*
X158879786Y-93319890D01*
X158707820Y-93194951D01*
X158707115Y-93194591D01*
X158699054Y-93190485D01*
X158648259Y-93142512D01*
X158631463Y-93074692D01*
X158653999Y-93008556D01*
X158699054Y-92969515D01*
X158707816Y-92965051D01*
X158743188Y-92939352D01*
X158879786Y-92840109D01*
X158879788Y-92840106D01*
X158879792Y-92840104D01*
X159030104Y-92689792D01*
X159030106Y-92689788D01*
X159030109Y-92689786D01*
X159155048Y-92517820D01*
X159155047Y-92517820D01*
X159155051Y-92517816D01*
X159251557Y-92328412D01*
X159317246Y-92126243D01*
X159350500Y-91916287D01*
X159350500Y-91703713D01*
X159317246Y-91493757D01*
X159251557Y-91291588D01*
X159208404Y-91206895D01*
X159195508Y-91138226D01*
X159221784Y-91073485D01*
X159278891Y-91033228D01*
X159318889Y-91026600D01*
X162575095Y-91026600D01*
X162642134Y-91046285D01*
X162647980Y-91050282D01*
X162718598Y-91101588D01*
X162792184Y-91155051D01*
X162981588Y-91251557D01*
X163183757Y-91317246D01*
X163393713Y-91350500D01*
X163393714Y-91350500D01*
X163606286Y-91350500D01*
X163606287Y-91350500D01*
X163816243Y-91317246D01*
X164018412Y-91251557D01*
X164207816Y-91155051D01*
X164334626Y-91062919D01*
X164379786Y-91030109D01*
X164379788Y-91030106D01*
X164379792Y-91030104D01*
X164530104Y-90879792D01*
X164530106Y-90879788D01*
X164530109Y-90879786D01*
X164655048Y-90707820D01*
X164655047Y-90707820D01*
X164655051Y-90707816D01*
X164751557Y-90518412D01*
X164817246Y-90316243D01*
X164850500Y-90106287D01*
X164850500Y-89893713D01*
X164817246Y-89683757D01*
X164751557Y-89481588D01*
X164655051Y-89292184D01*
X164655049Y-89292181D01*
X164655048Y-89292179D01*
X164530109Y-89120213D01*
X164379786Y-88969890D01*
X164207817Y-88844949D01*
X164198504Y-88840204D01*
X164147707Y-88792230D01*
X164130912Y-88724409D01*
X164153449Y-88658274D01*
X164198507Y-88619232D01*
X164207555Y-88614622D01*
X164261716Y-88575270D01*
X164261717Y-88575270D01*
X163629408Y-87942962D01*
X163692993Y-87925925D01*
X163807007Y-87860099D01*
X163900099Y-87767007D01*
X163965925Y-87652993D01*
X163982962Y-87589408D01*
X164615270Y-88221717D01*
X164615270Y-88221716D01*
X164654622Y-88167554D01*
X164751095Y-87978217D01*
X164816757Y-87776130D01*
X164816757Y-87776127D01*
X164850000Y-87566246D01*
X164850000Y-87353753D01*
X164816757Y-87143872D01*
X164816757Y-87143869D01*
X164751095Y-86941782D01*
X164654624Y-86752449D01*
X164615270Y-86698282D01*
X164615269Y-86698282D01*
X163982962Y-87330590D01*
X163965925Y-87267007D01*
X163900099Y-87152993D01*
X163807007Y-87059901D01*
X163692993Y-86994075D01*
X163629409Y-86977037D01*
X164261716Y-86344728D01*
X164207547Y-86305373D01*
X164207547Y-86305372D01*
X164198500Y-86300763D01*
X164147706Y-86252788D01*
X164130912Y-86184966D01*
X164153451Y-86118832D01*
X164198508Y-86079793D01*
X164207816Y-86075051D01*
X164287007Y-86017515D01*
X164379786Y-85950109D01*
X164379788Y-85950106D01*
X164379792Y-85950104D01*
X164530104Y-85799792D01*
X164530106Y-85799788D01*
X164530109Y-85799786D01*
X164655048Y-85627820D01*
X164655047Y-85627820D01*
X164655051Y-85627816D01*
X164751557Y-85438412D01*
X164817246Y-85236243D01*
X164850500Y-85026287D01*
X164850500Y-84813713D01*
X164817246Y-84603757D01*
X164751557Y-84401588D01*
X164655051Y-84212184D01*
X164655049Y-84212181D01*
X164655048Y-84212179D01*
X164530109Y-84040213D01*
X164379786Y-83889890D01*
X164207820Y-83764951D01*
X164204279Y-83763147D01*
X164199054Y-83760485D01*
X164148259Y-83712512D01*
X164131463Y-83644692D01*
X164153999Y-83578556D01*
X164199054Y-83539515D01*
X164207816Y-83535051D01*
X164281135Y-83481782D01*
X164379786Y-83410109D01*
X164379788Y-83410106D01*
X164379792Y-83410104D01*
X164530104Y-83259792D01*
X164530106Y-83259788D01*
X164530109Y-83259786D01*
X164655048Y-83087820D01*
X164655047Y-83087820D01*
X164655051Y-83087816D01*
X164751557Y-82898412D01*
X164817246Y-82696243D01*
X164850500Y-82486287D01*
X164850500Y-82273713D01*
X164817246Y-82063757D01*
X164751557Y-81861588D01*
X164655051Y-81672184D01*
X164655049Y-81672181D01*
X164655048Y-81672179D01*
X164530109Y-81500213D01*
X164379786Y-81349890D01*
X164207820Y-81224951D01*
X164203598Y-81222800D01*
X164199054Y-81220485D01*
X164148259Y-81172512D01*
X164131463Y-81104692D01*
X164153999Y-81038556D01*
X164199054Y-80999515D01*
X164207816Y-80995051D01*
X164229789Y-80979086D01*
X164379786Y-80870109D01*
X164379788Y-80870106D01*
X164379792Y-80870104D01*
X164530104Y-80719792D01*
X164530106Y-80719788D01*
X164530109Y-80719786D01*
X164644653Y-80562128D01*
X164655051Y-80547816D01*
X164751557Y-80358412D01*
X164817246Y-80156243D01*
X164850500Y-79946287D01*
X164850500Y-79733713D01*
X164817246Y-79523757D01*
X164751557Y-79321588D01*
X164655051Y-79132184D01*
X164655049Y-79132181D01*
X164655048Y-79132179D01*
X164530109Y-78960213D01*
X164379786Y-78809890D01*
X164207820Y-78684951D01*
X164207115Y-78684591D01*
X164199054Y-78680485D01*
X164148259Y-78632512D01*
X164131463Y-78564692D01*
X164153999Y-78498556D01*
X164199054Y-78459515D01*
X164207816Y-78455051D01*
X164229789Y-78439086D01*
X164379786Y-78330109D01*
X164379788Y-78330106D01*
X164379792Y-78330104D01*
X164530104Y-78179792D01*
X164530106Y-78179788D01*
X164530109Y-78179786D01*
X164655048Y-78007820D01*
X164655047Y-78007820D01*
X164655051Y-78007816D01*
X164751557Y-77818412D01*
X164817246Y-77616243D01*
X164850500Y-77406287D01*
X164850500Y-77193713D01*
X164817246Y-76983757D01*
X164751557Y-76781588D01*
X164655051Y-76592184D01*
X164655049Y-76592181D01*
X164655048Y-76592179D01*
X164530109Y-76420213D01*
X164379786Y-76269890D01*
X164207820Y-76144951D01*
X164207115Y-76144591D01*
X164199054Y-76140485D01*
X164148259Y-76092512D01*
X164131463Y-76024692D01*
X164153999Y-75958556D01*
X164199054Y-75919515D01*
X164207816Y-75915051D01*
X164229789Y-75899086D01*
X164379786Y-75790109D01*
X164379788Y-75790106D01*
X164379792Y-75790104D01*
X164530104Y-75639792D01*
X164530106Y-75639788D01*
X164530109Y-75639786D01*
X164655048Y-75467820D01*
X164655047Y-75467820D01*
X164655051Y-75467816D01*
X164751557Y-75278412D01*
X164817246Y-75076243D01*
X164850500Y-74866287D01*
X164850500Y-74653713D01*
X164817246Y-74443757D01*
X164751557Y-74241588D01*
X164655051Y-74052184D01*
X164655049Y-74052181D01*
X164655048Y-74052179D01*
X164530109Y-73880213D01*
X164379786Y-73729890D01*
X164207820Y-73604951D01*
X164207115Y-73604591D01*
X164199054Y-73600485D01*
X164148259Y-73552512D01*
X164131463Y-73484692D01*
X164153999Y-73418556D01*
X164199054Y-73379515D01*
X164207816Y-73375051D01*
X164229789Y-73359086D01*
X164379786Y-73250109D01*
X164379788Y-73250106D01*
X164379792Y-73250104D01*
X164530104Y-73099792D01*
X164530106Y-73099788D01*
X164530109Y-73099786D01*
X164655048Y-72927820D01*
X164655047Y-72927820D01*
X164655051Y-72927816D01*
X164751557Y-72738412D01*
X164817246Y-72536243D01*
X164850500Y-72326287D01*
X164850500Y-72113713D01*
X164817246Y-71903757D01*
X164751557Y-71701588D01*
X164655051Y-71512184D01*
X164655049Y-71512181D01*
X164655048Y-71512179D01*
X164530109Y-71340213D01*
X164379786Y-71189890D01*
X164207820Y-71064951D01*
X164207115Y-71064591D01*
X164199054Y-71060485D01*
X164148259Y-71012512D01*
X164131463Y-70944692D01*
X164153999Y-70878556D01*
X164199054Y-70839515D01*
X164207816Y-70835051D01*
X164229789Y-70819086D01*
X164379786Y-70710109D01*
X164379788Y-70710106D01*
X164379792Y-70710104D01*
X164530104Y-70559792D01*
X164530106Y-70559788D01*
X164530109Y-70559786D01*
X164655048Y-70387820D01*
X164655047Y-70387820D01*
X164655051Y-70387816D01*
X164751557Y-70198412D01*
X164817246Y-69996243D01*
X164850500Y-69786287D01*
X164850500Y-69573713D01*
X164817246Y-69363757D01*
X164751557Y-69161588D01*
X164655051Y-68972184D01*
X164655049Y-68972181D01*
X164655048Y-68972179D01*
X164530109Y-68800213D01*
X164379786Y-68649890D01*
X164207820Y-68524951D01*
X164207115Y-68524591D01*
X164199054Y-68520485D01*
X164148259Y-68472512D01*
X164131463Y-68404692D01*
X164153999Y-68338556D01*
X164199054Y-68299515D01*
X164207816Y-68295051D01*
X164229789Y-68279086D01*
X164379786Y-68170109D01*
X164379788Y-68170106D01*
X164379792Y-68170104D01*
X164530104Y-68019792D01*
X164530106Y-68019788D01*
X164530109Y-68019786D01*
X164655048Y-67847820D01*
X164655047Y-67847820D01*
X164655051Y-67847816D01*
X164751557Y-67658412D01*
X164817246Y-67456243D01*
X164850500Y-67246287D01*
X164850500Y-67033713D01*
X164817246Y-66823757D01*
X164751557Y-66621588D01*
X164655051Y-66432184D01*
X164655049Y-66432181D01*
X164655048Y-66432179D01*
X164530109Y-66260213D01*
X164379786Y-66109890D01*
X164207820Y-65984951D01*
X164207115Y-65984591D01*
X164199054Y-65980485D01*
X164148259Y-65932512D01*
X164131463Y-65864692D01*
X164153999Y-65798556D01*
X164199054Y-65759515D01*
X164207816Y-65755051D01*
X164229789Y-65739086D01*
X164379786Y-65630109D01*
X164379788Y-65630106D01*
X164379792Y-65630104D01*
X164530104Y-65479792D01*
X164530106Y-65479788D01*
X164530109Y-65479786D01*
X164655048Y-65307820D01*
X164655047Y-65307820D01*
X164655051Y-65307816D01*
X164751557Y-65118412D01*
X164817246Y-64916243D01*
X164850500Y-64706287D01*
X164850500Y-64493713D01*
X164817246Y-64283757D01*
X164751557Y-64081588D01*
X164655051Y-63892184D01*
X164655049Y-63892181D01*
X164655048Y-63892179D01*
X164530109Y-63720213D01*
X164379786Y-63569890D01*
X164207820Y-63444951D01*
X164207115Y-63444591D01*
X164199054Y-63440485D01*
X164148259Y-63392512D01*
X164131463Y-63324692D01*
X164153999Y-63258556D01*
X164199054Y-63219515D01*
X164207816Y-63215051D01*
X164229789Y-63199086D01*
X164379786Y-63090109D01*
X164379788Y-63090106D01*
X164379792Y-63090104D01*
X164530104Y-62939792D01*
X164530106Y-62939788D01*
X164530109Y-62939786D01*
X164655048Y-62767820D01*
X164655047Y-62767820D01*
X164655051Y-62767816D01*
X164751557Y-62578412D01*
X164817246Y-62376243D01*
X164850500Y-62166287D01*
X164850500Y-61953713D01*
X164817246Y-61743757D01*
X164751557Y-61541588D01*
X164655051Y-61352184D01*
X164655049Y-61352181D01*
X164655048Y-61352179D01*
X164530109Y-61180213D01*
X164379786Y-61029890D01*
X164207820Y-60904951D01*
X164207115Y-60904591D01*
X164199054Y-60900485D01*
X164148259Y-60852512D01*
X164131463Y-60784692D01*
X164153999Y-60718556D01*
X164199054Y-60679515D01*
X164207816Y-60675051D01*
X164229789Y-60659086D01*
X164379786Y-60550109D01*
X164379788Y-60550106D01*
X164379792Y-60550104D01*
X164530104Y-60399792D01*
X164530106Y-60399788D01*
X164530109Y-60399786D01*
X164655048Y-60227820D01*
X164655047Y-60227820D01*
X164655051Y-60227816D01*
X164751557Y-60038412D01*
X164817246Y-59836243D01*
X164850500Y-59626287D01*
X164850500Y-59413713D01*
X164817246Y-59203757D01*
X164751557Y-59001588D01*
X164655051Y-58812184D01*
X164655049Y-58812181D01*
X164655048Y-58812179D01*
X164530109Y-58640213D01*
X164416569Y-58526673D01*
X164383084Y-58465350D01*
X164388068Y-58395658D01*
X164429940Y-58339725D01*
X164460915Y-58322810D01*
X164592331Y-58273796D01*
X164707546Y-58187546D01*
X164793796Y-58072331D01*
X164844091Y-57937483D01*
X164850500Y-57877873D01*
X164850499Y-56082128D01*
X164844091Y-56022517D01*
X164793796Y-55887669D01*
X164793795Y-55887668D01*
X164793793Y-55887664D01*
X164707547Y-55772455D01*
X164707544Y-55772452D01*
X164592335Y-55686206D01*
X164592328Y-55686202D01*
X164457482Y-55635908D01*
X164457483Y-55635908D01*
X164397883Y-55629501D01*
X164397881Y-55629500D01*
X164397873Y-55629500D01*
X164397864Y-55629500D01*
X162602129Y-55629500D01*
X162602123Y-55629501D01*
X162542516Y-55635908D01*
X162407671Y-55686202D01*
X162407664Y-55686206D01*
X162292455Y-55772452D01*
X162292452Y-55772455D01*
X162206206Y-55887664D01*
X162206202Y-55887671D01*
X162155908Y-56022517D01*
X162149501Y-56082116D01*
X162149501Y-56082123D01*
X162149500Y-56082135D01*
X162149500Y-57877870D01*
X162149501Y-57877876D01*
X162155908Y-57937483D01*
X162206202Y-58072328D01*
X162206206Y-58072335D01*
X162292452Y-58187544D01*
X162292455Y-58187547D01*
X162407664Y-58273793D01*
X162407671Y-58273797D01*
X162539082Y-58322810D01*
X162595016Y-58364681D01*
X162619433Y-58430145D01*
X162604582Y-58498418D01*
X162583431Y-58526673D01*
X162469889Y-58640215D01*
X162344951Y-58812179D01*
X162248444Y-59001585D01*
X162182753Y-59203760D01*
X162149500Y-59413713D01*
X162149500Y-59626286D01*
X162182753Y-59836239D01*
X162248444Y-60038414D01*
X162344951Y-60227820D01*
X162469890Y-60399786D01*
X162620213Y-60550109D01*
X162792182Y-60675050D01*
X162800946Y-60679516D01*
X162851742Y-60727491D01*
X162868536Y-60795312D01*
X162845998Y-60861447D01*
X162800946Y-60900484D01*
X162792182Y-60904949D01*
X162620213Y-61029890D01*
X162469890Y-61180213D01*
X162344951Y-61352179D01*
X162248444Y-61541585D01*
X162182753Y-61743760D01*
X162149500Y-61953713D01*
X162149500Y-62166286D01*
X162182753Y-62376239D01*
X162248444Y-62578414D01*
X162344951Y-62767820D01*
X162469890Y-62939786D01*
X162620213Y-63090109D01*
X162792182Y-63215050D01*
X162800946Y-63219516D01*
X162851742Y-63267491D01*
X162868536Y-63335312D01*
X162845998Y-63401447D01*
X162800946Y-63440484D01*
X162792182Y-63444949D01*
X162620213Y-63569890D01*
X162469890Y-63720213D01*
X162344951Y-63892179D01*
X162248444Y-64081585D01*
X162182753Y-64283760D01*
X162149500Y-64493713D01*
X162149500Y-64706286D01*
X162182753Y-64916239D01*
X162248444Y-65118414D01*
X162344951Y-65307820D01*
X162469890Y-65479786D01*
X162620213Y-65630109D01*
X162792182Y-65755050D01*
X162800946Y-65759516D01*
X162851742Y-65807491D01*
X162868536Y-65875312D01*
X162845998Y-65941447D01*
X162800946Y-65980484D01*
X162792182Y-65984949D01*
X162620213Y-66109890D01*
X162469890Y-66260213D01*
X162344951Y-66432179D01*
X162248444Y-66621585D01*
X162182753Y-66823760D01*
X162149500Y-67033713D01*
X162149500Y-67246286D01*
X162182753Y-67456239D01*
X162248444Y-67658414D01*
X162344951Y-67847820D01*
X162469890Y-68019786D01*
X162620213Y-68170109D01*
X162792182Y-68295050D01*
X162800946Y-68299516D01*
X162851742Y-68347491D01*
X162868536Y-68415312D01*
X162845998Y-68481447D01*
X162800946Y-68520484D01*
X162792182Y-68524949D01*
X162620213Y-68649890D01*
X162469890Y-68800213D01*
X162344951Y-68972179D01*
X162248444Y-69161585D01*
X162182753Y-69363760D01*
X162149500Y-69573713D01*
X162149500Y-69786286D01*
X162182753Y-69996239D01*
X162248444Y-70198414D01*
X162344951Y-70387820D01*
X162469890Y-70559786D01*
X162620213Y-70710109D01*
X162792182Y-70835050D01*
X162800946Y-70839516D01*
X162851742Y-70887491D01*
X162868536Y-70955312D01*
X162845998Y-71021447D01*
X162800946Y-71060484D01*
X162792182Y-71064949D01*
X162620213Y-71189890D01*
X162469890Y-71340213D01*
X162344948Y-71512184D01*
X162344947Y-71512185D01*
X162324765Y-71551795D01*
X162276791Y-71602591D01*
X162214281Y-71619500D01*
X159966170Y-71619500D01*
X159966154Y-71619499D01*
X159958558Y-71619499D01*
X159800443Y-71619499D01*
X159724079Y-71639961D01*
X159647714Y-71660423D01*
X159647709Y-71660426D01*
X159510790Y-71739475D01*
X159510782Y-71739481D01*
X156269383Y-74980881D01*
X156208060Y-75014366D01*
X156181702Y-75017200D01*
X129408566Y-75017200D01*
X129341527Y-74997515D01*
X129339675Y-74996302D01*
X129207985Y-74908309D01*
X129207972Y-74908302D01*
X129062301Y-74847964D01*
X129062289Y-74847961D01*
X128907645Y-74817200D01*
X128907642Y-74817200D01*
X128749958Y-74817200D01*
X128749955Y-74817200D01*
X128595310Y-74847961D01*
X128595298Y-74847964D01*
X128449627Y-74908302D01*
X128449614Y-74908309D01*
X128318511Y-74995910D01*
X128318507Y-74995913D01*
X128207013Y-75107407D01*
X128207010Y-75107411D01*
X128119409Y-75238514D01*
X128119402Y-75238527D01*
X128059064Y-75384198D01*
X128059061Y-75384210D01*
X128027111Y-75544832D01*
X128024629Y-75544338D01*
X128002587Y-75598878D01*
X127945539Y-75639219D01*
X127929561Y-75643523D01*
X127788608Y-75671561D01*
X127788598Y-75671564D01*
X127642927Y-75731902D01*
X127642914Y-75731909D01*
X127511811Y-75819510D01*
X127511807Y-75819513D01*
X127400313Y-75931007D01*
X127400310Y-75931011D01*
X127312709Y-76062114D01*
X127312702Y-76062127D01*
X127252364Y-76207798D01*
X127252361Y-76207810D01*
X127221600Y-76362453D01*
X127221600Y-76520146D01*
X127252361Y-76674789D01*
X127252364Y-76674801D01*
X127312702Y-76820472D01*
X127312709Y-76820485D01*
X127400310Y-76951588D01*
X127400313Y-76951592D01*
X127511807Y-77063086D01*
X127511811Y-77063089D01*
X127642914Y-77150690D01*
X127642927Y-77150697D01*
X127788598Y-77211035D01*
X127788603Y-77211037D01*
X127943253Y-77241799D01*
X127943256Y-77241800D01*
X127943258Y-77241800D01*
X128100944Y-77241800D01*
X128100945Y-77241799D01*
X128255597Y-77211037D01*
X128401279Y-77150694D01*
X128448569Y-77119096D01*
X128532975Y-77062698D01*
X128599653Y-77041820D01*
X128601866Y-77041800D01*
X161732031Y-77041800D01*
X161732047Y-77041801D01*
X161739643Y-77041801D01*
X161897754Y-77041801D01*
X161897757Y-77041801D01*
X162001349Y-77014043D01*
X162071197Y-77015706D01*
X162129060Y-77054868D01*
X162156564Y-77119096D01*
X162155914Y-77153215D01*
X162149500Y-77193712D01*
X162149500Y-77406286D01*
X162182753Y-77616239D01*
X162248444Y-77818414D01*
X162344951Y-78007820D01*
X162469890Y-78179786D01*
X162620213Y-78330109D01*
X162792182Y-78455050D01*
X162800946Y-78459516D01*
X162851742Y-78507491D01*
X162868536Y-78575312D01*
X162845998Y-78641447D01*
X162800946Y-78680484D01*
X162792182Y-78684949D01*
X162620213Y-78809890D01*
X162469890Y-78960213D01*
X162344948Y-79132184D01*
X162344947Y-79132185D01*
X162324765Y-79171795D01*
X162276791Y-79222591D01*
X162214281Y-79239500D01*
X138897969Y-79239500D01*
X138897953Y-79239499D01*
X138890357Y-79239499D01*
X138732243Y-79239499D01*
X138624887Y-79268265D01*
X138579510Y-79280424D01*
X138579509Y-79280425D01*
X138529396Y-79309359D01*
X138529395Y-79309360D01*
X138485989Y-79334420D01*
X138442585Y-79359479D01*
X138442582Y-79359481D01*
X124851681Y-92950382D01*
X124851679Y-92950385D01*
X124816352Y-93011575D01*
X124816351Y-93011577D01*
X124772623Y-93087314D01*
X124765921Y-93112326D01*
X124731699Y-93240043D01*
X124731699Y-93240045D01*
X124731699Y-93408146D01*
X124731700Y-93408159D01*
X124731700Y-96998230D01*
X124731699Y-96998248D01*
X124731699Y-97163954D01*
X124731698Y-97163954D01*
X124772623Y-97316685D01*
X124801558Y-97366800D01*
X124801559Y-97366804D01*
X124801560Y-97366804D01*
X124851679Y-97453614D01*
X124851681Y-97453617D01*
X124970549Y-97572485D01*
X124970555Y-97572490D01*
X125095581Y-97697516D01*
X125129066Y-97758839D01*
X125131900Y-97785197D01*
X125131900Y-100255730D01*
X125131899Y-100255748D01*
X125131899Y-100421454D01*
X125131898Y-100421454D01*
X125154202Y-100504692D01*
X125172823Y-100574185D01*
X125199554Y-100620484D01*
X125201758Y-100624300D01*
X125201759Y-100624304D01*
X125201760Y-100624304D01*
X125234038Y-100680213D01*
X125251879Y-100711114D01*
X125251881Y-100711117D01*
X125370749Y-100829985D01*
X125370755Y-100829990D01*
X125616241Y-101075476D01*
X125649726Y-101136799D01*
X125646492Y-101201473D01*
X125632753Y-101243757D01*
X125601656Y-101440100D01*
X125599500Y-101453713D01*
X125599500Y-101666287D01*
X125632754Y-101876243D01*
X125695745Y-102070109D01*
X125698444Y-102078414D01*
X125794951Y-102267820D01*
X125919890Y-102439786D01*
X126070213Y-102590109D01*
X126242182Y-102715050D01*
X126250946Y-102719516D01*
X126301742Y-102767491D01*
X126318536Y-102835312D01*
X126295998Y-102901447D01*
X126250946Y-102940484D01*
X126242182Y-102944949D01*
X126070213Y-103069890D01*
X125919890Y-103220213D01*
X125794951Y-103392179D01*
X125698444Y-103581585D01*
X125632753Y-103783760D01*
X125599500Y-103993713D01*
X125599500Y-104206286D01*
X125632753Y-104416239D01*
X125632753Y-104416241D01*
X125632754Y-104416243D01*
X125648396Y-104464385D01*
X125698444Y-104618414D01*
X125794951Y-104807820D01*
X125919890Y-104979786D01*
X126070213Y-105130109D01*
X126242182Y-105255050D01*
X126250946Y-105259516D01*
X126301742Y-105307491D01*
X126318536Y-105375312D01*
X126295998Y-105441447D01*
X126250946Y-105480484D01*
X126242182Y-105484949D01*
X126070213Y-105609890D01*
X125919890Y-105760213D01*
X125794951Y-105932179D01*
X125698444Y-106121585D01*
X125632753Y-106323760D01*
X125599500Y-106533713D01*
X125599500Y-106746286D01*
X125632754Y-106956243D01*
X125645698Y-106996081D01*
X125647693Y-107065923D01*
X125611613Y-107125756D01*
X125548912Y-107156584D01*
X125527767Y-107158400D01*
X114520466Y-107158400D01*
X114453427Y-107138715D01*
X114451575Y-107137502D01*
X114319885Y-107049509D01*
X114319872Y-107049502D01*
X114174201Y-106989164D01*
X114174189Y-106989161D01*
X114019545Y-106958400D01*
X114019542Y-106958400D01*
X113861858Y-106958400D01*
X113861855Y-106958400D01*
X113707210Y-106989161D01*
X113707198Y-106989164D01*
X113561527Y-107049502D01*
X113561514Y-107049509D01*
X113430411Y-107137110D01*
X113430407Y-107137113D01*
X113318913Y-107248607D01*
X113318910Y-107248611D01*
X113231309Y-107379714D01*
X113231302Y-107379727D01*
X113170964Y-107525398D01*
X113170961Y-107525410D01*
X113140200Y-107680053D01*
X113140200Y-107837746D01*
X113170961Y-107992389D01*
X113170964Y-107992401D01*
X113231302Y-108138072D01*
X113231309Y-108138085D01*
X113318910Y-108269188D01*
X113318913Y-108269192D01*
X113430407Y-108380686D01*
X113430411Y-108380689D01*
X113561514Y-108468290D01*
X113561527Y-108468297D01*
X113640594Y-108501047D01*
X113707203Y-108528637D01*
X113861853Y-108559399D01*
X113861856Y-108559400D01*
X113861858Y-108559400D01*
X114019544Y-108559400D01*
X114019545Y-108559399D01*
X114174197Y-108528637D01*
X114319879Y-108468294D01*
X114388389Y-108422517D01*
X114451575Y-108380298D01*
X114518253Y-108359420D01*
X114520466Y-108359400D01*
X115026000Y-108359400D01*
X115093039Y-108379085D01*
X115138794Y-108431889D01*
X115150000Y-108483400D01*
X115150000Y-109130000D01*
X116066988Y-109130000D01*
X116034075Y-109187007D01*
X116000000Y-109314174D01*
X116000000Y-109445826D01*
X116034075Y-109572993D01*
X116066988Y-109630000D01*
X115150000Y-109630000D01*
X115150000Y-110277844D01*
X115156401Y-110337372D01*
X115156403Y-110337379D01*
X115206645Y-110472086D01*
X115206649Y-110472093D01*
X115292809Y-110587187D01*
X115292812Y-110587190D01*
X115407906Y-110673350D01*
X115407913Y-110673354D01*
X115539470Y-110722422D01*
X115595404Y-110764293D01*
X115619821Y-110829758D01*
X115604969Y-110898031D01*
X115583819Y-110926285D01*
X115469889Y-111040215D01*
X115344948Y-111212184D01*
X115344947Y-111212185D01*
X115324765Y-111251795D01*
X115276791Y-111302591D01*
X115214281Y-111319500D01*
X112550758Y-111319500D01*
X112483719Y-111299815D01*
X112463077Y-111283181D01*
X112416181Y-111236285D01*
X112382696Y-111174962D01*
X112387680Y-111105270D01*
X112429552Y-111049337D01*
X112460529Y-111032422D01*
X112592086Y-110983354D01*
X112592093Y-110983350D01*
X112707187Y-110897190D01*
X112707190Y-110897187D01*
X112793350Y-110782093D01*
X112793354Y-110782086D01*
X112843596Y-110647379D01*
X112843598Y-110647372D01*
X112849999Y-110587844D01*
X112850000Y-110587827D01*
X112850000Y-109940000D01*
X111933012Y-109940000D01*
X111965925Y-109882993D01*
X112000000Y-109755826D01*
X112000000Y-109624174D01*
X111965925Y-109497007D01*
X111933012Y-109440000D01*
X112850000Y-109440000D01*
X112850000Y-108792172D01*
X112849999Y-108792155D01*
X112843598Y-108732627D01*
X112843596Y-108732620D01*
X112793354Y-108597913D01*
X112793350Y-108597906D01*
X112707190Y-108482812D01*
X112707187Y-108482809D01*
X112592093Y-108396649D01*
X112592086Y-108396645D01*
X112457379Y-108346403D01*
X112457372Y-108346401D01*
X112397844Y-108340000D01*
X111750000Y-108340000D01*
X111750000Y-109256988D01*
X111692993Y-109224075D01*
X111565826Y-109190000D01*
X111434174Y-109190000D01*
X111307007Y-109224075D01*
X111250000Y-109256988D01*
X111250000Y-108340000D01*
X110602155Y-108340000D01*
X110542627Y-108346401D01*
X110542620Y-108346403D01*
X110407913Y-108396645D01*
X110407906Y-108396649D01*
X110292812Y-108482809D01*
X110292809Y-108482812D01*
X110206649Y-108597906D01*
X110206645Y-108597913D01*
X110156403Y-108732620D01*
X110156401Y-108732627D01*
X110150000Y-108792155D01*
X110150000Y-109440000D01*
X111066988Y-109440000D01*
X111034075Y-109497007D01*
X111000000Y-109624174D01*
X111000000Y-109755826D01*
X111034075Y-109882993D01*
X111066988Y-109940000D01*
X110150000Y-109940000D01*
X110150000Y-110587844D01*
X110156401Y-110647372D01*
X110156403Y-110647379D01*
X110206645Y-110782086D01*
X110206649Y-110782093D01*
X110292809Y-110897187D01*
X110292812Y-110897190D01*
X110407906Y-110983350D01*
X110407913Y-110983354D01*
X110539470Y-111032422D01*
X110595404Y-111074293D01*
X110619821Y-111139758D01*
X110604969Y-111208031D01*
X110583819Y-111236285D01*
X110469889Y-111350215D01*
X110344951Y-111522179D01*
X110248444Y-111711585D01*
X110182753Y-111913760D01*
X110149500Y-112123713D01*
X110149500Y-112336286D01*
X110181794Y-112540185D01*
X110182754Y-112546243D01*
X110233682Y-112702984D01*
X110248444Y-112748414D01*
X110344951Y-112937820D01*
X110469890Y-113109786D01*
X110620213Y-113260109D01*
X110792182Y-113385050D01*
X110800946Y-113389516D01*
X110851742Y-113437491D01*
X110868536Y-113505312D01*
X110845998Y-113571447D01*
X110800946Y-113610484D01*
X110792182Y-113614949D01*
X110620213Y-113739890D01*
X110469890Y-113890213D01*
X110344951Y-114062179D01*
X110248444Y-114251585D01*
X110182753Y-114453760D01*
X110149500Y-114663713D01*
X110149500Y-114876286D01*
X110182633Y-115085484D01*
X110182754Y-115086243D01*
X110226999Y-115222415D01*
X110248444Y-115288414D01*
X110344951Y-115477820D01*
X110469890Y-115649786D01*
X110471453Y-115651349D01*
X110471855Y-115652086D01*
X110473053Y-115653488D01*
X110472758Y-115653739D01*
X110504938Y-115712672D01*
X110499954Y-115782364D01*
X110471453Y-115826711D01*
X109853081Y-116445082D01*
X109853077Y-116445087D01*
X109806314Y-116526085D01*
X109806314Y-116526086D01*
X109774023Y-116582014D01*
X109762821Y-116623819D01*
X109733099Y-116734743D01*
X109733099Y-116734745D01*
X109733099Y-116902846D01*
X109733100Y-116902859D01*
X109733100Y-121015230D01*
X109733099Y-121015248D01*
X109733099Y-121180954D01*
X109733098Y-121180954D01*
X109733099Y-121180957D01*
X109774023Y-121333685D01*
X109790133Y-121361588D01*
X109853080Y-121470616D01*
X109873652Y-121491188D01*
X109880852Y-121502383D01*
X109887103Y-121523647D01*
X109897725Y-121543099D01*
X109896765Y-121556513D01*
X109900559Y-121569416D01*
X109894321Y-121590683D01*
X109892741Y-121612791D01*
X109884681Y-121623556D01*
X109880897Y-121636462D01*
X109864150Y-121650982D01*
X109850870Y-121668723D01*
X109792455Y-121712452D01*
X109792452Y-121712455D01*
X109706206Y-121827664D01*
X109706202Y-121827671D01*
X109655908Y-121962517D01*
X109649501Y-122022116D01*
X109649500Y-122022135D01*
X107750500Y-122022135D01*
X107750500Y-80562135D01*
X120649500Y-80562135D01*
X120649500Y-82357870D01*
X120649501Y-82357876D01*
X120655908Y-82417483D01*
X120706202Y-82552328D01*
X120706206Y-82552335D01*
X120792452Y-82667544D01*
X120792455Y-82667547D01*
X120907664Y-82753793D01*
X120907671Y-82753797D01*
X120952618Y-82770561D01*
X121042517Y-82804091D01*
X121102127Y-82810500D01*
X121112685Y-82810499D01*
X121179723Y-82830179D01*
X121200372Y-82846818D01*
X121870591Y-83517037D01*
X121807007Y-83534075D01*
X121692993Y-83599901D01*
X121599901Y-83692993D01*
X121534075Y-83807007D01*
X121517037Y-83870591D01*
X120884728Y-83238282D01*
X120884727Y-83238282D01*
X120845380Y-83292439D01*
X120748904Y-83481782D01*
X120683242Y-83683869D01*
X120683242Y-83683872D01*
X120650000Y-83893753D01*
X120650000Y-84106246D01*
X120683242Y-84316127D01*
X120683242Y-84316130D01*
X120748904Y-84518217D01*
X120845375Y-84707550D01*
X120884728Y-84761716D01*
X121517037Y-84129408D01*
X121534075Y-84192993D01*
X121599901Y-84307007D01*
X121692993Y-84400099D01*
X121807007Y-84465925D01*
X121870590Y-84482962D01*
X121238282Y-85115269D01*
X121238282Y-85115270D01*
X121292452Y-85154626D01*
X121292451Y-85154626D01*
X121301495Y-85159234D01*
X121352292Y-85207208D01*
X121369087Y-85275029D01*
X121346550Y-85341164D01*
X121301499Y-85380202D01*
X121292182Y-85384949D01*
X121120213Y-85509890D01*
X120969890Y-85660213D01*
X120844951Y-85832179D01*
X120748444Y-86021585D01*
X120682753Y-86223760D01*
X120649500Y-86433713D01*
X120649500Y-86646286D01*
X120666314Y-86752449D01*
X120682754Y-86856243D01*
X120710547Y-86941782D01*
X120748444Y-87058414D01*
X120844951Y-87247820D01*
X120969890Y-87419786D01*
X121120213Y-87570109D01*
X121292182Y-87695050D01*
X121300946Y-87699516D01*
X121351742Y-87747491D01*
X121368536Y-87815312D01*
X121345998Y-87881447D01*
X121300946Y-87920484D01*
X121292182Y-87924949D01*
X121120213Y-88049890D01*
X120969890Y-88200213D01*
X120844951Y-88372179D01*
X120748444Y-88561585D01*
X120682753Y-88763760D01*
X120649500Y-88973713D01*
X120649500Y-89186286D01*
X120666272Y-89292184D01*
X120682754Y-89396243D01*
X120710484Y-89481588D01*
X120748444Y-89598414D01*
X120844951Y-89787820D01*
X120969890Y-89959786D01*
X121120213Y-90110109D01*
X121292182Y-90235050D01*
X121300946Y-90239516D01*
X121351742Y-90287491D01*
X121368536Y-90355312D01*
X121345998Y-90421447D01*
X121300946Y-90460484D01*
X121292182Y-90464949D01*
X121120213Y-90589890D01*
X120969890Y-90740213D01*
X120844951Y-90912179D01*
X120748444Y-91101585D01*
X120682753Y-91303760D01*
X120649500Y-91513713D01*
X120649500Y-91726286D01*
X120682753Y-91936239D01*
X120748444Y-92138414D01*
X120844951Y-92327820D01*
X120969890Y-92499786D01*
X121120213Y-92650109D01*
X121292182Y-92775050D01*
X121300946Y-92779516D01*
X121351742Y-92827491D01*
X121368536Y-92895312D01*
X121345998Y-92961447D01*
X121300946Y-93000484D01*
X121292182Y-93004949D01*
X121120213Y-93129890D01*
X120969890Y-93280213D01*
X120844951Y-93452179D01*
X120748444Y-93641585D01*
X120682753Y-93843760D01*
X120660893Y-93981782D01*
X120649500Y-94053713D01*
X120649500Y-94266287D01*
X120682754Y-94476243D01*
X120738501Y-94647815D01*
X120748444Y-94678414D01*
X120844951Y-94867820D01*
X120969890Y-95039786D01*
X121120213Y-95190109D01*
X121292182Y-95315050D01*
X121300946Y-95319516D01*
X121351742Y-95367491D01*
X121368536Y-95435312D01*
X121345998Y-95501447D01*
X121300946Y-95540484D01*
X121292182Y-95544949D01*
X121120213Y-95669890D01*
X120969890Y-95820213D01*
X120844951Y-95992179D01*
X120748444Y-96181585D01*
X120682753Y-96383760D01*
X120649500Y-96593713D01*
X120649500Y-96806286D01*
X120681106Y-97005843D01*
X120682754Y-97016243D01*
X120738415Y-97187550D01*
X120748444Y-97218414D01*
X120844951Y-97407820D01*
X120969890Y-97579786D01*
X121120213Y-97730109D01*
X121292182Y-97855050D01*
X121300946Y-97859516D01*
X121351742Y-97907491D01*
X121368536Y-97975312D01*
X121345998Y-98041447D01*
X121300946Y-98080484D01*
X121292182Y-98084949D01*
X121120213Y-98209890D01*
X120969890Y-98360213D01*
X120844951Y-98532179D01*
X120748444Y-98721585D01*
X120682753Y-98923760D01*
X120649500Y-99133713D01*
X120649500Y-99346286D01*
X120678614Y-99530109D01*
X120682754Y-99556243D01*
X120716258Y-99659358D01*
X120748444Y-99758414D01*
X120844951Y-99947820D01*
X120969890Y-100119786D01*
X121120213Y-100270109D01*
X121292182Y-100395050D01*
X121300946Y-100399516D01*
X121351742Y-100447491D01*
X121368536Y-100515312D01*
X121345998Y-100581447D01*
X121300946Y-100620484D01*
X121292182Y-100624949D01*
X121120213Y-100749890D01*
X120969890Y-100900213D01*
X120844951Y-101072179D01*
X120748444Y-101261585D01*
X120682753Y-101463760D01*
X120649500Y-101673713D01*
X120649500Y-101886286D01*
X120678614Y-102070109D01*
X120682754Y-102096243D01*
X120729084Y-102238832D01*
X120748444Y-102298414D01*
X120844951Y-102487820D01*
X120969890Y-102659786D01*
X121120213Y-102810109D01*
X121292182Y-102935050D01*
X121300946Y-102939516D01*
X121351742Y-102987491D01*
X121368536Y-103055312D01*
X121345998Y-103121447D01*
X121300946Y-103160484D01*
X121292182Y-103164949D01*
X121120213Y-103289890D01*
X120969890Y-103440213D01*
X120844951Y-103612179D01*
X120748444Y-103801585D01*
X120682753Y-104003760D01*
X120676075Y-104045925D01*
X120649500Y-104213713D01*
X120649500Y-104426287D01*
X120654211Y-104456030D01*
X120681866Y-104630641D01*
X120682754Y-104636243D01*
X120738501Y-104807815D01*
X120748444Y-104838414D01*
X120844951Y-105027820D01*
X120969890Y-105199786D01*
X121120213Y-105350109D01*
X121292179Y-105475048D01*
X121292181Y-105475049D01*
X121292184Y-105475051D01*
X121481588Y-105571557D01*
X121683757Y-105637246D01*
X121893713Y-105670500D01*
X121893714Y-105670500D01*
X122106286Y-105670500D01*
X122106287Y-105670500D01*
X122316243Y-105637246D01*
X122518412Y-105571557D01*
X122707816Y-105475051D01*
X122754068Y-105441447D01*
X122879786Y-105350109D01*
X122879788Y-105350106D01*
X122879792Y-105350104D01*
X123030104Y-105199792D01*
X123030106Y-105199788D01*
X123030109Y-105199786D01*
X123155048Y-105027820D01*
X123155047Y-105027820D01*
X123155051Y-105027816D01*
X123251557Y-104838412D01*
X123317246Y-104636243D01*
X123350500Y-104426287D01*
X123350500Y-104213713D01*
X123317246Y-104003757D01*
X123251557Y-103801588D01*
X123155051Y-103612184D01*
X123155049Y-103612181D01*
X123155048Y-103612179D01*
X123030109Y-103440213D01*
X122879786Y-103289890D01*
X122707820Y-103164951D01*
X122707115Y-103164591D01*
X122699054Y-103160485D01*
X122648259Y-103112512D01*
X122631463Y-103044692D01*
X122653999Y-102978556D01*
X122699054Y-102939515D01*
X122707816Y-102935051D01*
X122754068Y-102901447D01*
X122879786Y-102810109D01*
X122879788Y-102810106D01*
X122879792Y-102810104D01*
X123030104Y-102659792D01*
X123030106Y-102659788D01*
X123030109Y-102659786D01*
X123155048Y-102487820D01*
X123155047Y-102487820D01*
X123155051Y-102487816D01*
X123251557Y-102298412D01*
X123317246Y-102096243D01*
X123350500Y-101886287D01*
X123350500Y-101673713D01*
X123317246Y-101463757D01*
X123251557Y-101261588D01*
X123155051Y-101072184D01*
X123155049Y-101072181D01*
X123155048Y-101072179D01*
X123030109Y-100900213D01*
X122879786Y-100749890D01*
X122707820Y-100624951D01*
X122706542Y-100624300D01*
X122699054Y-100620485D01*
X122648259Y-100572512D01*
X122631463Y-100504692D01*
X122653999Y-100438556D01*
X122699054Y-100399515D01*
X122707816Y-100395051D01*
X122754068Y-100361447D01*
X122879786Y-100270109D01*
X122879788Y-100270106D01*
X122879792Y-100270104D01*
X123030104Y-100119792D01*
X123030106Y-100119788D01*
X123030109Y-100119786D01*
X123155048Y-99947820D01*
X123155047Y-99947820D01*
X123155051Y-99947816D01*
X123251557Y-99758412D01*
X123317246Y-99556243D01*
X123350500Y-99346287D01*
X123350500Y-99133713D01*
X123317246Y-98923757D01*
X123251557Y-98721588D01*
X123155051Y-98532184D01*
X123155049Y-98532181D01*
X123155048Y-98532179D01*
X123030109Y-98360213D01*
X122879786Y-98209890D01*
X122707820Y-98084951D01*
X122707115Y-98084591D01*
X122699054Y-98080485D01*
X122648259Y-98032512D01*
X122631463Y-97964692D01*
X122653999Y-97898556D01*
X122699054Y-97859515D01*
X122707816Y-97855051D01*
X122754458Y-97821164D01*
X122879786Y-97730109D01*
X122879788Y-97730106D01*
X122879792Y-97730104D01*
X123030104Y-97579792D01*
X123030106Y-97579788D01*
X123030109Y-97579786D01*
X123155048Y-97407820D01*
X123155047Y-97407820D01*
X123155051Y-97407816D01*
X123251557Y-97218412D01*
X123317246Y-97016243D01*
X123350500Y-96806287D01*
X123350500Y-96593713D01*
X123317246Y-96383757D01*
X123251557Y-96181588D01*
X123155051Y-95992184D01*
X123155049Y-95992181D01*
X123155048Y-95992179D01*
X123030109Y-95820213D01*
X122879786Y-95669890D01*
X122707820Y-95544951D01*
X122707115Y-95544591D01*
X122699054Y-95540485D01*
X122648259Y-95492512D01*
X122631463Y-95424692D01*
X122653999Y-95358556D01*
X122699054Y-95319515D01*
X122707816Y-95315051D01*
X122753690Y-95281722D01*
X122879786Y-95190109D01*
X122879788Y-95190106D01*
X122879792Y-95190104D01*
X123030104Y-95039792D01*
X123030106Y-95039788D01*
X123030109Y-95039786D01*
X123139086Y-94889789D01*
X123155051Y-94867816D01*
X123251557Y-94678412D01*
X123317246Y-94476243D01*
X123350500Y-94266287D01*
X123350500Y-94053713D01*
X123317246Y-93843757D01*
X123251557Y-93641588D01*
X123155051Y-93452184D01*
X123155049Y-93452181D01*
X123155048Y-93452179D01*
X123030109Y-93280213D01*
X122879786Y-93129890D01*
X122707820Y-93004951D01*
X122707115Y-93004591D01*
X122699054Y-93000485D01*
X122648259Y-92952512D01*
X122631463Y-92884692D01*
X122653999Y-92818556D01*
X122699054Y-92779515D01*
X122707816Y-92775051D01*
X122754101Y-92741423D01*
X122879786Y-92650109D01*
X122879788Y-92650106D01*
X122879792Y-92650104D01*
X123030104Y-92499792D01*
X123030106Y-92499788D01*
X123030109Y-92499786D01*
X123139086Y-92349789D01*
X123155051Y-92327816D01*
X123251557Y-92138412D01*
X123317246Y-91936243D01*
X123350500Y-91726287D01*
X123350500Y-91513713D01*
X123317246Y-91303757D01*
X123251557Y-91101588D01*
X123155051Y-90912184D01*
X123155049Y-90912181D01*
X123155048Y-90912179D01*
X123030109Y-90740213D01*
X122879786Y-90589890D01*
X122707820Y-90464951D01*
X122707115Y-90464591D01*
X122699054Y-90460485D01*
X122648259Y-90412512D01*
X122631463Y-90344692D01*
X122653999Y-90278556D01*
X122699054Y-90239515D01*
X122707816Y-90235051D01*
X122729789Y-90219086D01*
X122879786Y-90110109D01*
X122879788Y-90110106D01*
X122879792Y-90110104D01*
X123030104Y-89959792D01*
X123030106Y-89959788D01*
X123030109Y-89959786D01*
X123155048Y-89787820D01*
X123155047Y-89787820D01*
X123155051Y-89787816D01*
X123251557Y-89598412D01*
X123317246Y-89396243D01*
X123350500Y-89186287D01*
X123350500Y-88973713D01*
X123317246Y-88763757D01*
X123251557Y-88561588D01*
X123155051Y-88372184D01*
X123155049Y-88372181D01*
X123155048Y-88372179D01*
X123030109Y-88200213D01*
X122879786Y-88049890D01*
X122707820Y-87924951D01*
X122707115Y-87924591D01*
X122699054Y-87920485D01*
X122648259Y-87872512D01*
X122631463Y-87804692D01*
X122653999Y-87738556D01*
X122699054Y-87699515D01*
X122707816Y-87695051D01*
X122825166Y-87609792D01*
X122879786Y-87570109D01*
X122879788Y-87570106D01*
X122879792Y-87570104D01*
X123030104Y-87419792D01*
X123030106Y-87419788D01*
X123030109Y-87419786D01*
X123154613Y-87248419D01*
X123155051Y-87247816D01*
X123251557Y-87058412D01*
X123317246Y-86856243D01*
X123350500Y-86646287D01*
X123350500Y-86433713D01*
X123317246Y-86223757D01*
X123251557Y-86021588D01*
X123155051Y-85832184D01*
X123155049Y-85832181D01*
X123155048Y-85832179D01*
X123030109Y-85660213D01*
X122879786Y-85509890D01*
X122707817Y-85384949D01*
X122698504Y-85380204D01*
X122647707Y-85332230D01*
X122630912Y-85264409D01*
X122653449Y-85198274D01*
X122698507Y-85159232D01*
X122707555Y-85154622D01*
X122761716Y-85115270D01*
X122761717Y-85115270D01*
X122129408Y-84482962D01*
X122192993Y-84465925D01*
X122307007Y-84400099D01*
X122400099Y-84307007D01*
X122465925Y-84192993D01*
X122482962Y-84129408D01*
X123115270Y-84761717D01*
X123115270Y-84761716D01*
X123154622Y-84707554D01*
X123251095Y-84518217D01*
X123316757Y-84316130D01*
X123316757Y-84316127D01*
X123350000Y-84106246D01*
X123350000Y-83893753D01*
X123316757Y-83683872D01*
X123316757Y-83683869D01*
X123251095Y-83481782D01*
X123154624Y-83292449D01*
X123115270Y-83238282D01*
X123115269Y-83238282D01*
X122482962Y-83870590D01*
X122465925Y-83807007D01*
X122400099Y-83692993D01*
X122307007Y-83599901D01*
X122192993Y-83534075D01*
X122129409Y-83517037D01*
X122799627Y-82846818D01*
X122860950Y-82813333D01*
X122887307Y-82810499D01*
X122897872Y-82810499D01*
X122957483Y-82804091D01*
X123092331Y-82753796D01*
X123207546Y-82667546D01*
X123293796Y-82552331D01*
X123344091Y-82417483D01*
X123350500Y-82357873D01*
X123350499Y-80562128D01*
X123344091Y-80502517D01*
X123293796Y-80367669D01*
X123293795Y-80367668D01*
X123293793Y-80367664D01*
X123207547Y-80252455D01*
X123207544Y-80252452D01*
X123092335Y-80166206D01*
X123092328Y-80166202D01*
X122957482Y-80115908D01*
X122957483Y-80115908D01*
X122897883Y-80109501D01*
X122897881Y-80109500D01*
X122897873Y-80109500D01*
X122897864Y-80109500D01*
X121102129Y-80109500D01*
X121102123Y-80109501D01*
X121042516Y-80115908D01*
X120907671Y-80166202D01*
X120907664Y-80166206D01*
X120792455Y-80252452D01*
X120792452Y-80252455D01*
X120706206Y-80367664D01*
X120706202Y-80367671D01*
X120655908Y-80502517D01*
X120651038Y-80547820D01*
X120649501Y-80562123D01*
X120649500Y-80562135D01*
X107750500Y-80562135D01*
X107750500Y-51199500D01*
X107770185Y-51132461D01*
X107822989Y-51086706D01*
X107874500Y-51075500D01*
X167125500Y-51075500D01*
X167192539Y-51095185D01*
G37*
%TD.AperFunction*%
%TD*%
M02*
