%TF.GenerationSoftware,KiCad,Pcbnew,10.0.0*%
%TF.CreationDate,2026-04-12T14:35:19-04:00*%
%TF.ProjectId,kicad_sailframes-e1,6b696361-645f-4736-9169-6c6672616d65,rev?*%
%TF.SameCoordinates,Original*%
%TF.FileFunction,Soldermask,Top*%
%TF.FilePolarity,Negative*%
%FSLAX46Y46*%
G04 Gerber Fmt 4.6, Leading zero omitted, Abs format (unit mm)*
G04 Created by KiCad (PCBNEW 10.0.0) date 2026-04-12 14:35:19*
%MOMM*%
%LPD*%
G01*
G04 APERTURE LIST*
G04 Aperture macros list*
%AMRoundRect*
0 Rectangle with rounded corners*
0 $1 Rounding radius*
0 $2 $3 $4 $5 $6 $7 $8 $9 X,Y pos of 4 corners*
0 Add a 4 corners polygon primitive as box body*
4,1,4,$2,$3,$4,$5,$6,$7,$8,$9,$2,$3,0*
0 Add four circle primitives for the rounded corners*
1,1,$1+$1,$2,$3*
1,1,$1+$1,$4,$5*
1,1,$1+$1,$6,$7*
1,1,$1+$1,$8,$9*
0 Add four rect primitives between the rounded corners*
20,1,$1+$1,$2,$3,$4,$5,0*
20,1,$1+$1,$4,$5,$6,$7,0*
20,1,$1+$1,$6,$7,$8,$9,0*
20,1,$1+$1,$8,$9,$2,$3,0*%
G04 Aperture macros list end*
%ADD10RoundRect,0.250000X-0.450000X0.262500X-0.450000X-0.262500X0.450000X-0.262500X0.450000X0.262500X0*%
%ADD11C,1.700000*%
%ADD12C,1.800000*%
%ADD13RoundRect,0.250000X-0.350000X-0.625000X0.350000X-0.625000X0.350000X0.625000X-0.350000X0.625000X0*%
%ADD14O,1.200000X1.750000*%
%ADD15R,1.700000X1.700000*%
%ADD16RoundRect,0.250000X0.450000X-0.262500X0.450000X0.262500X-0.450000X0.262500X-0.450000X-0.262500X0*%
G04 APERTURE END LIST*
D10*
%TO.C,R1*%
X157500000Y-116175000D03*
X157500000Y-118000000D03*
%TD*%
D11*
%TO.C,U1*%
X152200000Y-129500000D03*
X152200000Y-126960000D03*
X152200000Y-124420000D03*
X152200000Y-121880000D03*
X152200000Y-119340000D03*
X152200000Y-116800000D03*
X152200000Y-114260000D03*
X152200000Y-111720000D03*
X152200000Y-109180000D03*
X152200000Y-106640000D03*
X152200000Y-104100000D03*
X152200000Y-101560000D03*
X152200000Y-99020000D03*
X152200000Y-96480000D03*
X152200000Y-93940000D03*
X126950000Y-93940000D03*
X126950000Y-96480000D03*
X126950000Y-99020000D03*
X126950000Y-101560000D03*
X126950000Y-104100000D03*
X126950000Y-106640000D03*
X126950000Y-109180000D03*
X126950000Y-111720000D03*
X126950000Y-114260000D03*
X126950000Y-116800000D03*
X126950000Y-119340000D03*
X126950000Y-121880000D03*
X126950000Y-124420000D03*
X126950000Y-126960000D03*
X126950000Y-129500000D03*
%TD*%
D12*
%TO.C,SW1*%
X163000000Y-109500000D03*
X163000000Y-114500000D03*
X163000000Y-119500000D03*
%TD*%
D13*
%TO.C,J10*%
X160000000Y-125325000D03*
D14*
X162000000Y-125325000D03*
%TD*%
D15*
%TO.C,J7*%
X116500000Y-109380000D03*
D11*
X116500000Y-111920000D03*
X116500000Y-114460000D03*
X116500000Y-117000000D03*
%TD*%
D10*
%TO.C,R4*%
X122412500Y-121762500D03*
X122412500Y-123587500D03*
%TD*%
D15*
%TO.C,J8*%
X122000000Y-109380000D03*
D11*
X122000000Y-111920000D03*
X122000000Y-114460000D03*
X122000000Y-117000000D03*
%TD*%
D15*
%TO.C,J4*%
X116500000Y-122880000D03*
D11*
X116500000Y-125420000D03*
X116500000Y-127960000D03*
X116500000Y-130500000D03*
%TD*%
D10*
%TO.C,R3*%
X122500000Y-126175000D03*
X122500000Y-128000000D03*
%TD*%
D15*
%TO.C,J6*%
X111500000Y-109690000D03*
D11*
X111500000Y-112230000D03*
X111500000Y-114770000D03*
X111500000Y-117310000D03*
%TD*%
D15*
%TO.C,J3*%
X122000000Y-81460000D03*
D11*
X122000000Y-84000000D03*
X122000000Y-86540000D03*
X122000000Y-89080000D03*
X122000000Y-91620000D03*
X122000000Y-94160000D03*
X122000000Y-96700000D03*
X122000000Y-99240000D03*
X122000000Y-101780000D03*
X122000000Y-104320000D03*
%TD*%
D15*
%TO.C,J9*%
X158000000Y-81650000D03*
D11*
X158000000Y-84190000D03*
X158000000Y-86730000D03*
X158000000Y-89270000D03*
X158000000Y-91810000D03*
X158000000Y-94350000D03*
%TD*%
D16*
%TO.C,R2*%
X157500000Y-112825000D03*
X157500000Y-111000000D03*
%TD*%
D15*
%TO.C,J5*%
X163500000Y-95960000D03*
D11*
X163500000Y-98500000D03*
X163500000Y-101040000D03*
X163500000Y-103580000D03*
%TD*%
D15*
%TO.C,J1*%
X133380000Y-94500000D03*
D11*
X135920000Y-94500000D03*
X138460000Y-94500000D03*
X141000000Y-94500000D03*
X143540000Y-94500000D03*
X146080000Y-94500000D03*
%TD*%
D15*
%TO.C,J2*%
X111000000Y-122920000D03*
D11*
X111000000Y-125460000D03*
X111000000Y-128000000D03*
X111000000Y-130540000D03*
%TD*%
D15*
%TO.C,U2*%
X163500000Y-56980000D03*
D11*
X163500000Y-59520000D03*
X163500000Y-62060000D03*
X163500000Y-64600000D03*
X163500000Y-67140000D03*
X163500000Y-69680000D03*
X163500000Y-72220000D03*
X163500000Y-74760000D03*
X163500000Y-77300000D03*
X163500000Y-79840000D03*
X163500000Y-82380000D03*
X163500000Y-84920000D03*
X163500000Y-87460000D03*
X163500000Y-90000000D03*
%TD*%
M02*
