M48
; DRILL file KiCad 10.0.0 date 2026-04-12T14:36:24
; FORMAT={-:-/ absolute / metric / decimal}
; #@! TF.CreationDate,2026-04-12T14:36:24-04:00
; #@! TF.GenerationSoftware,Kicad,Pcbnew,10.0.0
; #@! TF.FileFunction,Plated,1,2,PTH
FMAT,2
METRIC
; #@! TA.AperFunction,Plated,PTH,ViaDrill
T1C0.300
; #@! TA.AperFunction,Plated,PTH,ComponentDrill
T2C0.750
; #@! TA.AperFunction,Plated,PTH,ComponentDrill
T3C1.000
%
G90
G05
T1
X113.941Y-107.759
X120.066Y-108.569
X122.328Y-125.044
X127.581Y-95.79
X128.022Y-76.441
X128.829Y-75.618
X129.601Y-90.205
X129.601Y-102.241
X132.038Y-108.679
X132.651Y-89.05
X151.109Y-107.57
X155.425Y-123.838
X157.884Y-119.991
X162.335Y-126.792
T2
X160.0Y-125.325
X162.0Y-125.325
T3
X111.0Y-122.92
X111.0Y-125.46
X111.0Y-128.0
X111.0Y-130.54
X111.5Y-109.69
X111.5Y-112.23
X111.5Y-114.77
X111.5Y-117.31
X116.5Y-109.38
X116.5Y-111.92
X116.5Y-114.46
X116.5Y-117.0
X116.5Y-122.88
X116.5Y-125.42
X116.5Y-127.96
X116.5Y-130.5
X122.0Y-81.46
X122.0Y-84.0
X122.0Y-86.54
X122.0Y-89.08
X122.0Y-91.62
X122.0Y-94.16
X122.0Y-96.7
X122.0Y-99.24
X122.0Y-101.78
X122.0Y-104.32
X122.0Y-109.38
X122.0Y-111.92
X122.0Y-114.46
X122.0Y-117.0
X126.95Y-93.94
X126.95Y-96.48
X126.95Y-99.02
X126.95Y-101.56
X126.95Y-104.1
X126.95Y-106.64
X126.95Y-109.18
X126.95Y-111.72
X126.95Y-114.26
X126.95Y-116.8
X126.95Y-119.34
X126.95Y-121.88
X126.95Y-124.42
X126.95Y-126.96
X126.95Y-129.5
X133.38Y-94.5
X135.92Y-94.5
X138.46Y-94.5
X141.0Y-94.5
X143.54Y-94.5
X146.08Y-94.5
X152.2Y-93.94
X152.2Y-96.48
X152.2Y-99.02
X152.2Y-101.56
X152.2Y-104.1
X152.2Y-106.64
X152.2Y-109.18
X152.2Y-111.72
X152.2Y-114.26
X152.2Y-116.8
X152.2Y-119.34
X152.2Y-121.88
X152.2Y-124.42
X152.2Y-126.96
X152.2Y-129.5
X158.0Y-81.65
X158.0Y-84.19
X158.0Y-86.73
X158.0Y-89.27
X158.0Y-91.81
X158.0Y-94.35
X163.0Y-109.5
X163.0Y-114.5
X163.0Y-119.5
X163.5Y-56.98
X163.5Y-59.52
X163.5Y-62.06
X163.5Y-64.6
X163.5Y-67.14
X163.5Y-69.68
X163.5Y-72.22
X163.5Y-74.76
X163.5Y-77.3
X163.5Y-79.84
X163.5Y-82.38
X163.5Y-84.92
X163.5Y-87.46
X163.5Y-90.0
X163.5Y-95.96
X163.5Y-98.5
X163.5Y-101.04
X163.5Y-103.58
M30
